<svg xmlns="http://www.w3.org/2000/svg" viewBox="0 0 216 108"><defs><style>.cls-1{fill:#ffcb00;}.cls-2{fill:#fff;}.cls-3{fill:#f37538;}.cls-4{fill:#42a0ca;}.cls-5{fill:#66bb46;}.cls-6{fill:#95489a;}</style></defs><title>Asset 23</title><g id="Layer_2" data-name="Layer 2"><g id="Layer_1-2" data-name="Layer 1"><rect id="_Rectangle_" data-name="&lt;Rectangle&gt;" class="cls-1" width="216" height="108"/><g id="_Group_" data-name="&lt;Group&gt;"><g id="_Group_2" data-name="&lt;Group&gt;"><path id="_Compound_Path_" data-name="&lt;Compound Path&gt;" class="cls-2" d="M27.86,69.68a9.86,9.86,0,1,1,9.86-9.86A9.87,9.87,0,0,1,27.86,69.68Z"/></g><g id="_Group_3" data-name="&lt;Group&gt;"><path id="_Compound_Path_2" data-name="&lt;Compound Path&gt;" class="cls-2" d="M39.51,58a9.86,9.86,0,1,1,9.86-9.86A9.87,9.87,0,0,1,39.51,58Z"/></g><g id="_Group_4" data-name="&lt;Group&gt;"><path id="_Compound_Path_3" data-name="&lt;Compound Path&gt;" class="cls-2" d="M51.17,69.68A9.86,9.86,0,1,1,61,59.83,9.87,9.87,0,0,1,51.17,69.68Z"/></g><g id="_Group_5" data-name="&lt;Group&gt;"><path id="_Compound_Path_4" data-name="&lt;Compound Path&gt;" class="cls-2" d="M64.71,69.68a9.86,9.86,0,1,1,9.86-9.86A9.87,9.87,0,0,1,64.71,69.68Z"/></g><g id="_Group_6" data-name="&lt;Group&gt;"><g id="_Group_7" data-name="&lt;Group&gt;"><g id="_Group_8" data-name="&lt;Group&gt;"><g id="_Group_9" data-name="&lt;Group&gt;"><path id="_Path_" data-name="&lt;Path&gt;" class="cls-2" d="M64.7,50.84a9,9,0,0,0-6.77,3.08,9,9,0,0,0-10.06-2.45,9,9,0,1,0-16.72,0,9,9,0,1,0,5.07,5.07,9,9,0,0,0,6.59,0,9,9,0,0,0,15.13,9.2,9,9,0,1,0,6.77-14.9Z"/><path id="_Compound_Path_5" data-name="&lt;Compound Path&gt;" class="cls-3" d="M64.7,51.46a8.32,8.32,0,0,0-6.37,2.95,9,9,0,0,1,0,10.84A8.36,8.36,0,1,0,64.7,51.46Zm0,11.9a3.53,3.53,0,1,1,3.53-3.53A3.53,3.53,0,0,1,64.7,63.36Z"/><g id="_Group_10" data-name="&lt;Group&gt;"><path id="_Path_2" data-name="&lt;Path&gt;" class="cls-4" d="M36.31,49.68A3.53,3.53,0,1,1,43,48.17a3.51,3.51,0,0,1-.38,1.59l3.49,3.49a8.36,8.36,0,1,0-13.35-.07Z"/><path id="_Path_3" data-name="&lt;Path&gt;" class="cls-4" d="M41.1,51.33a3.52,3.52,0,0,1-1.58.38,3.59,3.59,0,0,1-1.41-.3l-3.52,3.52a8.35,8.35,0,0,0,10-.11Z"/></g><path id="_Path_4" data-name="&lt;Path&gt;" class="cls-5" d="M51.17,51.46a8.33,8.33,0,0,0-3.68.86,9.32,9.32,0,0,1-.88,1.37l3,3a3.49,3.49,0,0,1,1.58-.38,3.54,3.54,0,1,1-3.16,2l-3-3a9.2,9.2,0,0,1-1.37.88,8.36,8.36,0,1,0,7.5-4.68Z"/><path id="_Path_5" data-name="&lt;Path&gt;" class="cls-6" d="M34.14,55.38l-3,3a3.56,3.56,0,1,1-1.74-1.79l3-3a9.54,9.54,0,0,1-.82-1.3,8.39,8.39,0,1,0,3.82,3.82A8.94,8.94,0,0,1,34.14,55.38Z"/></g></g></g><path id="_Compound_Path_6" data-name="&lt;Compound Path&gt;" d="M157.82,63a7.2,7.2,0,0,1-6.57,4.14c-4.22,0-7.79-4-8.12-9.13v-.78c.22-4.45,3-9.18,7.79-9.18a7.54,7.54,0,0,1,6.25,3.29L146,55.84l-.23.09.46,1.21L159.08,52l-.14-.25a9,9,0,0,0-8-5c-5.68,0-8.9,5.6-9,10.87s3.76,10.83,9.36,10.83c2.93,0,6.53-1.74,7.74-5.06l.09-.26-1.18-.33Zm39.92,3.75c-.18,0-.29,0-.37-.55V54.9c0-4.95-3-8.14-7.75-8.14-2.2,0-4.57.89-7.25,2.73l-.22.15.78,1,.2-.14a11.9,11.9,0,0,1,6.48-2.48c3.86,0,6.45,2.75,6.45,6.84v7.26a2.84,2.84,0,0,1-.55,1.48c-1.66,2.59-5.28,3.51-7.87,3.51a5.37,5.37,0,0,1-5.58-5.22c0-3.54,4-4.8,7.4-4.8a18.06,18.06,0,0,1,3.81.32l.26.05.23-1.25-.25,0a22,22,0,0,0-4-.37c-4.33,0-8.7,1.89-8.7,6.1a6.64,6.64,0,0,0,6.88,6.53A11.4,11.4,0,0,0,196.06,65v1.19a1.73,1.73,0,0,0,1.67,1.84H198V66.76Zm-21.92,1.3h1.31V49.9h-1.31Zm.7-23.7a1.8,1.8,0,1,0,1.79,1.8A1.8,1.8,0,0,0,176.52,44.36Zm-12.6,7.27V47.07h-1.3v21h1.3V54.9c1.09-3.94,4-6.38,7.73-6.52h.25V47.07h-.26A8.73,8.73,0,0,0,163.92,51.63ZM140.47,66l-.08,0a6.21,6.21,0,0,1-3.13.92,2.34,2.34,0,0,1-2.51-2.11V48.38h4.94v-1.3h-4.94V39.93h-1.3v7.14h-3v1.3h3V64.85a3.55,3.55,0,0,0,3.81,3.41,7.15,7.15,0,0,0,3.91-1.2l.18-.15-.68-1Zm-12.4.21V54.9c0-4.95-3-8.14-7.75-8.14-2.2,0-4.57.89-7.24,2.73l-.22.15.78,1,.2-.14a11.89,11.89,0,0,1,6.48-2.48c3.86,0,6.45,2.75,6.45,6.84v7.26a2.84,2.84,0,0,1-.55,1.48c-1.66,2.59-5.28,3.51-7.87,3.51a5.36,5.36,0,0,1-5.58-5.22c0-3.54,4-4.8,7.39-4.8a18,18,0,0,1,3.81.32l.26.05.24-1.25-.25,0a22,22,0,0,0-4-.37c-4.33,0-8.7,1.89-8.7,6.1a6.64,6.64,0,0,0,6.88,6.53A11.24,11.24,0,0,0,126.76,65v1.19a1.73,1.73,0,0,0,1.67,1.84h.27V66.76h-.26C128.27,66.76,128.15,66.72,128.06,66.2Zm-34-5.37L81.41,39.67l-.07-.12h-1V68.06H81.6V42.46l11.95,20,.07.12h.92l12-20.08v25.6h1.3V39.54h-1Z"/></g></g></g></g></svg>