<svg xmlns="http://www.w3.org/2000/svg" viewBox="0 0 216 108"><defs><style>.cls-1{fill:#ffcb00;}.cls-2{fill:#1c5ba9;}</style></defs><title>Asset 22</title><g id="Layer_2" data-name="Layer 2"><g id="Layer_1-2" data-name="Layer 1"><rect id="_Rectangle_" data-name="&lt;Rectangle&gt;" class="cls-1" width="216" height="108"/><path id="_Compound_Path_" data-name="&lt;Compound Path&gt;" class="cls-2" d="M31.09,40.91C24,40.91,18,47.39,18,55.07,18,61.73,23,69,31.11,69.18,38.32,69,44.18,62.7,44.18,55.07,44.18,48.23,38.92,40.91,31.09,40.91Zm0,25.17c-6,0-9.77-5.62-10-11,0-5.34,4-11.05,10-11.05,5.41,0,10,5.06,10,11.05C41.07,60.39,37.06,66.08,31.09,66.08ZM59.81,40.91a12.49,12.49,0,0,0-9.25,4.34V32.1A1.07,1.07,0,0,0,49.49,31h-1a1.07,1.07,0,0,0-1.07,1.07V59.45a5.51,5.51,0,0,0,.43,2.33c1.89,4.86,7.21,7.4,11.49,7.4,7.08,0,13-6.32,13.24-14.11C72.61,48.26,67.71,40.91,59.81,40.91Zm-.44,25.17c-4.37,0-8.81-3.88-8.81-6.67V50.55c.93-1.79,3.89-6.54,9.25-6.54,6,0,9.69,5.74,9.69,11.05C69.5,61.65,64.26,66.08,59.37,66.08Zm42.2-11c0-6.84-5.26-14.16-13.09-14.16-7.1,0-13.09,6.49-13.09,14.16,0,6.66,5,13.95,13.11,14.11C95.71,69,101.57,62.7,101.57,55.07Zm-13.09,11c-6,0-9.77-5.62-10-11,0-5.34,4-11.05,10-11.05,5.41,0,10,5.06,10,11.05C98.46,60.39,94.45,66.08,88.48,66.08ZM127,40.91c-7.1,0-13.09,6.49-13.09,14.16,0,6.66,5,13.95,13.11,14.11,7.21-.16,13.07-6.49,13.07-14.11C140.12,48.23,134.86,40.91,127,40.91Zm0,25.17c-6,0-9.77-5.62-10-11,0-5.34,4-11.05,10-11.05,5.41,0,10,5.06,10,11.05C137,60.39,133,66.08,127,66.08Zm57.88-25.17c-7.1,0-13.09,6.49-13.09,14.16,0,6.66,5,13.95,13.11,14.11C192.14,69,198,62.7,198,55.07,198,48.23,192.74,40.91,184.91,40.91Zm0,25.17c-6,0-9.77-5.62-10-11,0-5.34,4-11.05,10-11.05,5.41,0,10,5.06,10,11.05C194.89,60.39,190.88,66.08,184.91,66.08ZM156.19,40.91a12.49,12.49,0,0,0-9.25,4.34V32.1A1.07,1.07,0,0,0,145.87,31h-1a1.07,1.07,0,0,0-1.07,1.06c0,.16-.07,16-.07,27.36a5,5,0,0,0,.43,2.16l.07.17c1.89,4.86,7.21,7.4,11.49,7.4,7.08,0,13-6.32,13.24-14.11C169,48.26,164.1,40.91,156.19,40.91Zm-.44,25.17c-4.37,0-8.81-3.88-8.81-6.67V50.55c.93-1.79,3.89-6.54,9.25-6.54,6,0,9.69,5.74,9.69,11.05C165.88,61.65,160.64,66.08,155.75,66.08ZM108.44,31.66h-1a1.07,1.07,0,0,0-1.07,1.07v3.12a1.07,1.07,0,0,0,1.07,1.07h1a1.07,1.07,0,0,0,1.07-1.07V32.73A1.07,1.07,0,0,0,108.44,31.66Zm0,9.74h-1a1.07,1.07,0,0,0-1.07,1.07V69.38a4.73,4.73,0,0,1-4.48,4.48,4.88,4.88,0,0,1-3.34-1,1.07,1.07,0,0,0-1.34-.05l-.78.58A1.07,1.07,0,0,0,96.34,75,7.87,7.87,0,0,0,102,77a7.77,7.77,0,0,0,7.54-7.59V42.46A1.07,1.07,0,0,0,108.44,41.4Z"/></g></g></svg>