<svg xmlns="http://www.w3.org/2000/svg" viewBox="0 0 216 108"><defs><style>.cls-1{fill:#ffcb00;}.cls-2{fill:#fff;}.cls-3{fill:#fbb116;}</style></defs><title>Asset 24</title><g id="Layer_2" data-name="Layer 2"><g id="Layer_1-2" data-name="Layer 1"><rect id="_Rectangle_" data-name="&lt;Rectangle&gt;" class="cls-1" width="216" height="108"/><g id="_Group_" data-name="&lt;Group&gt;"><path id="_Path_" data-name="&lt;Path&gt;" class="cls-2" d="M197.33,52.3a10.81,10.81,0,0,0-2.14-3.82,9.21,9.21,0,0,0-3.72-2.55,11.77,11.77,0,0,0-4.14-.7V43.71a4.56,4.56,0,0,0-3.81-4.5,8.87,8.87,0,0,0-1-.1l-.67,0-.7,0a8.83,8.83,0,0,0-1,.1,4.56,4.56,0,0,0-3.81,4.5v1.87l-.54,0-.67,0-.67,0a8.83,8.83,0,0,0-1,.1,4.55,4.55,0,0,0-3.13,2.09,4.55,4.55,0,0,0-3.13-2.09,8.91,8.91,0,0,0-1-.1l-.67,0-.67,0a8.83,8.83,0,0,0-1,.1V44.16a4.56,4.56,0,0,0-3.92-4.51c-.24,0-.54-.06-.89-.08a14,14,0,0,0-1.53,0q-.47,0-.83.08a4.56,4.56,0,0,0-3.92,4.51.5.5,0,1,1-1,0,4.56,4.56,0,0,0-3.92-4.51q-.36-.05-.83-.08a14,14,0,0,0-1.53,0c-.35,0-.64,0-.88.08a4.56,4.56,0,0,0-3.92,4.51v1.45c-.13,0-.26-.07-.39-.09a8.72,8.72,0,0,0-.87-.09,10,10,0,0,0-3.5.36,4.71,4.71,0,0,0-.64-.19,9.51,9.51,0,0,0-1.14-.17,11.16,11.16,0,0,0-2.1,0q-.45,0-.94.13a4.54,4.54,0,0,0-2.78,1.7,11,11,0,0,0-1.82-1.08,12.32,12.32,0,0,0-9.85,0c-.32.15-.63.32-.93.5a4.55,4.55,0,0,0-2.29-1.12,4.56,4.56,0,0,0-4.47-3.69h-.23a4.56,4.56,0,0,0-3.39,1.52l-2.16,2.42a13.45,13.45,0,0,0-1.88-.45,18.42,18.42,0,0,0-2.82-.2,12.11,12.11,0,0,0-5,1A11,11,0,0,0,90,48.57a10.68,10.68,0,0,0-3.3-2.39,12.32,12.32,0,0,0-9.85,0c-.18.09-.35.19-.53.28a4.53,4.53,0,0,0-2.08-.94,8.43,8.43,0,0,0-.88-.09,10,10,0,0,0-3.5.36,4.54,4.54,0,0,0-.64-.19,9.51,9.51,0,0,0-1.14-.17,11.06,11.06,0,0,0-1.88,0c0-.06,0-.12-.07-.18A10,10,0,0,0,63,41.52a11.27,11.27,0,0,0-4.16-1.84,20.53,20.53,0,0,0-5.41-.39L52,39.37l-1.37.11-1.16.13A4.54,4.54,0,0,0,46,42.1,15.44,15.44,0,1,0,22.57,62c.56,4.24,2.31,10.4,10.88,10.4S43.77,66.25,44.33,62a15.43,15.43,0,0,0,1.21-1.37V64.7a4.56,4.56,0,0,0,3.8,4.49,10.18,10.18,0,0,0,1.31.13l.9,0a16.24,16.24,0,0,0,2-.12,4.56,4.56,0,0,0,4-4.52v-3q.6-.1,1.2-.24a11.68,11.68,0,0,0,2.51-.91V64.7a4.56,4.56,0,0,0,3.8,4.49q.54.09,1.16.14c.38,0,.72,0,1,0s.65,0,1,0a11.34,11.34,0,0,0,1.19-.15,4.55,4.55,0,0,0,3.61-3.47l0,.05a10.51,10.51,0,0,0,3.76,2.84,12.49,12.49,0,0,0,9.77,0,10.53,10.53,0,0,0,3.29-2.35,11.48,11.48,0,0,0,8.67,3.35,15.14,15.14,0,0,0,5.51-1,4.53,4.53,0,0,0,1.05-.59,9.53,9.53,0,0,0,5.29,1.44,16.56,16.56,0,0,0,1.85-.1,14,14,0,0,0,1.79-.32,4.53,4.53,0,0,0,1.73-.87c.26.14.52.29.79.41a12.49,12.49,0,0,0,9.77,0,10.82,10.82,0,0,0,1.87-1.1,4.54,4.54,0,0,0,2.82,1.69q.54.09,1.15.14c.38,0,.72,0,1,0s.65,0,1,0a11.32,11.32,0,0,0,1.19-.15,4.56,4.56,0,0,0,3.73-4.48.7.7,0,0,1,1.4,0,4.56,4.56,0,0,0,3.82,4.5,8.81,8.81,0,0,0,1,.1,14.11,14.11,0,0,0,1.56,0c.31,0,.59,0,.83-.08a4.56,4.56,0,0,0,3.92-4.51.5.5,0,1,1,1,0,4.56,4.56,0,0,0,3.92,4.51c.24,0,.52.06.86.08l.75,0,.8,0a8.47,8.47,0,0,0,.94-.1,4.55,4.55,0,0,0,3.2-2.21c.11.1.21.21.32.31a9.24,9.24,0,0,0,4,1.95,16.59,16.59,0,0,0,3.49.36,21,21,0,0,0,3.41-.27c1-.17,2-.37,2.8-.6a4.54,4.54,0,0,0,1.28-.57,4.53,4.53,0,0,0,.78.39,17.58,17.58,0,0,0,2.65.72,17.12,17.12,0,0,0,3.39.33,12.43,12.43,0,0,0,9.29-3.52A12.57,12.57,0,0,0,198,57,14.69,14.69,0,0,0,197.33,52.3Z"/><g id="_Group_2" data-name="&lt;Group&gt;"><g id="_Group_3" data-name="&lt;Group&gt;"><g id="_Group_4" data-name="&lt;Group&gt;"><path id="_Compound_Path_" data-name="&lt;Compound Path&gt;" class="cls-3" d="M50.09,44.13l1-.11,1.23-.1,1.29-.07,1.24,0a13.75,13.75,0,0,1,3,.31,6.68,6.68,0,0,1,2.48,1.09,5.43,5.43,0,0,1,1.7,2,7.16,7.16,0,0,1,.63,3.18A7.35,7.35,0,0,1,62,53.77a5.83,5.83,0,0,1-1.77,2.13A6.86,6.86,0,0,1,57.72,57a12.46,12.46,0,0,1-2.86.33h-1q-.41,0-.9-.07V64.7a11.77,11.77,0,0,1-1.46.09h-.73a5.81,5.81,0,0,1-.73-.07ZM53,54.73l.8.09q.34,0,1,0a8.39,8.39,0,0,0,1.76-.19A4.15,4.15,0,0,0,58.12,54a3.46,3.46,0,0,0,1.1-1.33,5,5,0,0,0,.41-2.19,4.83,4.83,0,0,0-.36-2,3.29,3.29,0,0,0-1-1.29,3.82,3.82,0,0,0-1.51-.69,8.7,8.7,0,0,0-1.91-.2,17.63,17.63,0,0,0-1.86.09Z"/><path id="_Compound_Path_2" data-name="&lt;Compound Path&gt;" class="cls-3" d="M65.83,50l.6-.09q.29,0,.6,0l.63,0a4.59,4.59,0,0,1,.57.09q.09.43.17,1.13a10,10,0,0,1,.09,1.19,5.91,5.91,0,0,1,1.59-1.69A4.2,4.2,0,0,1,72.6,50h.47l.41,0a4.68,4.68,0,0,1,.09.54q0,.29,0,.6a6.22,6.22,0,0,1,0,.71q0,.37-.1.71a1.94,1.94,0,0,0-.47-.06H72.6a5,5,0,0,0-1.47.21,3.08,3.08,0,0,0-1.26.76A3.76,3.76,0,0,0,69,55a7.51,7.51,0,0,0-.33,2.43V64.7a6.78,6.78,0,0,1-.7.09l-.7,0-.7,0q-.39,0-.73-.09Z"/><path id="_Compound_Path_3" data-name="&lt;Compound Path&gt;" class="cls-3" d="M81.77,65a7.18,7.18,0,0,1-3-.59,6,6,0,0,1-2.14-1.61,6.71,6.71,0,0,1-1.27-2.43,11.27,11.27,0,0,1,0-6.05,6.72,6.72,0,0,1,1.27-2.43,6.1,6.1,0,0,1,2.14-1.63,7.8,7.8,0,0,1,6,0,6.1,6.1,0,0,1,2.14,1.63,6.72,6.72,0,0,1,1.27,2.43,11.27,11.27,0,0,1,0,6.05,6.72,6.72,0,0,1-1.27,2.43,6,6,0,0,1-2.14,1.61A7.18,7.18,0,0,1,81.77,65Zm0-2.26a3.24,3.24,0,0,0,2.91-1.43,7.16,7.16,0,0,0,.94-4,7.09,7.09,0,0,0-.94-4A3.26,3.26,0,0,0,81.77,52a3.22,3.22,0,0,0-2.9,1.41,7.17,7.17,0,0,0-.93,4,7.24,7.24,0,0,0,.93,4A3.21,3.21,0,0,0,81.77,62.78Z"/><path id="_Compound_Path_4" data-name="&lt;Compound Path&gt;" class="cls-3" d="M101.88,62.16a4.55,4.55,0,0,1,.4,1,5.35,5.35,0,0,1,.2,1.23,10.57,10.57,0,0,1-3.86.66A7,7,0,0,1,93.11,63a8.05,8.05,0,0,1-1.86-5.58,9.69,9.69,0,0,1,.46-3,6.88,6.88,0,0,1,1.36-2.43,6.4,6.4,0,0,1,2.24-1.63,7.57,7.57,0,0,1,3.11-.6,13.85,13.85,0,0,1,2.11.14,8.7,8.7,0,0,1,1.74.46,5.85,5.85,0,0,1-.13,1.13,4.93,4.93,0,0,1-.36,1.13,9.74,9.74,0,0,0-3.2-.49,3.83,3.83,0,0,0-3.28,1.46,6.3,6.3,0,0,0-1.09,3.86,5.61,5.61,0,0,0,1.23,4,4.47,4.47,0,0,0,3.37,1.27,10.23,10.23,0,0,0,1.59-.11A7.18,7.18,0,0,0,101.88,62.16Z"/><path id="_Compound_Path_5" data-name="&lt;Compound Path&gt;" class="cls-3" d="M106.1,52.3h-2.23l-.11-.4,4.91-5.48h.23V50h3.71a4.76,4.76,0,0,1,.11,1.09c0,.21,0,.41,0,.6s0,.38-.09.57H108.9V59a14.38,14.38,0,0,0,.1,1.91,2.82,2.82,0,0,0,.34,1.1,1.17,1.17,0,0,0,.66.51,3.57,3.57,0,0,0,1,.13,5.55,5.55,0,0,0,.91-.07q.43-.07.77-.16a4.52,4.52,0,0,1,.24,1.17q0,.6,0,1.06a9.34,9.34,0,0,1-1.2.21,12,12,0,0,1-1.34.07,4.76,4.76,0,0,1-3.21-1,4.17,4.17,0,0,1-1.16-3.31Z"/><path id="_Compound_Path_6" data-name="&lt;Compound Path&gt;" class="cls-3" d="M121.53,65a7.18,7.18,0,0,1-3-.59,6,6,0,0,1-2.14-1.61,6.71,6.71,0,0,1-1.27-2.43,11.27,11.27,0,0,1,0-6.05,6.72,6.72,0,0,1,1.27-2.43,6.1,6.1,0,0,1,2.14-1.63,7.8,7.8,0,0,1,6,0,6.1,6.1,0,0,1,2.14,1.63,6.72,6.72,0,0,1,1.27,2.43,11.27,11.27,0,0,1,0,6.05,6.72,6.72,0,0,1-1.27,2.43,6,6,0,0,1-2.14,1.61A7.18,7.18,0,0,1,121.53,65Zm0-2.26a3.24,3.24,0,0,0,2.91-1.43,7.16,7.16,0,0,0,.94-4,7.09,7.09,0,0,0-.94-4A3.26,3.26,0,0,0,121.53,52a3.22,3.22,0,0,0-2.9,1.41,7.17,7.17,0,0,0-.93,4,7.24,7.24,0,0,0,.93,4A3.21,3.21,0,0,0,121.53,62.78Z"/><path id="_Compound_Path_7" data-name="&lt;Compound Path&gt;" class="cls-3" d="M131.86,50l.6-.09q.29,0,.6,0l.63,0a4.59,4.59,0,0,1,.57.09q.09.43.17,1.13a10,10,0,0,1,.09,1.19,5.91,5.91,0,0,1,1.59-1.69,4.2,4.2,0,0,1,2.53-.71h.47l.41,0a4.68,4.68,0,0,1,.09.54q0,.29,0,.6a6.22,6.22,0,0,1,0,.71q0,.37-.1.71a1.94,1.94,0,0,0-.47-.06h-.39a5,5,0,0,0-1.47.21,3.08,3.08,0,0,0-1.26.76A3.76,3.76,0,0,0,135,55a7.51,7.51,0,0,0-.33,2.43V64.7a6.78,6.78,0,0,1-.7.09l-.7,0-.7,0q-.39,0-.73-.09Z"/></g><path id="_Path_2" data-name="&lt;Path&gt;" class="cls-3" d="M44.34,51a10.89,10.89,0,1,0-17.43,8.71c.5,5.29,1.35,8.1,6.54,8.1s6-2.81,6.54-8.1A10.88,10.88,0,0,0,44.34,51Z"/><g id="_Group_5" data-name="&lt;Group&gt;"><path id="_Compound_Path_8" data-name="&lt;Compound Path&gt;" d="M145.2,44.16l.49,0h1l.46,0V52.9h10.11V44.16l.46,0h1l.49,0V64.7l-.44,0h-1.07l-.46,0v-10H147.17v10l-.46,0h-1.07l-.44,0Z"/><path id="_Compound_Path_9" data-name="&lt;Compound Path&gt;" d="M164.54,50.13l.49,0H166l.47,0v8.2a8.48,8.48,0,0,0,.31,2.53,3.43,3.43,0,0,0,.93,1.54,3.37,3.37,0,0,0,1.5.77,8.53,8.53,0,0,0,2,.21,12.7,12.7,0,0,0,1.69-.1,8.58,8.58,0,0,0,1.31-.27V50.13l.49,0h.93l.47,0v14.2a24.07,24.07,0,0,1-2.36.5A16.39,16.39,0,0,1,171,65a11.9,11.9,0,0,1-2.53-.26,4.7,4.7,0,0,1-2.06-1,5,5,0,0,1-1.39-2,9.12,9.12,0,0,1-.51-3.34Z"/><path id="_Compound_Path_10" data-name="&lt;Compound Path&gt;" d="M180.88,43.71l.47,0h.93l.49,0v8.45a5.74,5.74,0,0,1,1.73-1.64,5.31,5.31,0,0,1,2.93-.73,7,7,0,0,1,2.46.41,4.69,4.69,0,0,1,1.9,1.3A6.28,6.28,0,0,1,193,53.73a10.37,10.37,0,0,1,.44,3.23,8.16,8.16,0,0,1-2.08,5.94,8,8,0,0,1-6,2.14,12.51,12.51,0,0,1-2.48-.24,13.48,13.48,0,0,1-2-.53ZM182.76,63a7.15,7.15,0,0,0,1.39.33,11.42,11.42,0,0,0,1.56.1,6.46,6.46,0,0,0,2.19-.37,5,5,0,0,0,1.83-1.14,5.59,5.59,0,0,0,1.26-2,7.69,7.69,0,0,0,.47-2.84,7.32,7.32,0,0,0-1-4.08,3.54,3.54,0,0,0-3.18-1.49,5.44,5.44,0,0,0-1.49.23,4.13,4.13,0,0,0-1.47.77,4.2,4.2,0,0,0-1.11,1.44,5.13,5.13,0,0,0-.44,2.27Z"/></g><circle id="_Path_3" data-name="&lt;Path&gt;" class="cls-2" cx="33.45" cy="51.04" r="6.1"/><circle id="_Path_4" data-name="&lt;Path&gt;" cx="34.55" cy="51.65" r="4.58"/><circle id="_Path_5" data-name="&lt;Path&gt;" class="cls-2" cx="27.5" cy="44.97" r="1.36"/></g></g></g></g></g></svg>