<svg xmlns="http://www.w3.org/2000/svg" viewBox="0 0 216 108">
  <defs>
    <style>
      .cls-1 {
        fill: #ffcb00;
      }

      .cls-2 {
        fill: #208649;
      }
    </style>
  </defs>
  <title>Asset 12</title>
  <g id="Layer_2" data-name="Layer 2">
    <g id="Layer_1-2" data-name="Layer 1">
      <rect id="_Rectangle_" data-name="&lt;Rectangle&gt;" class="cls-1" width="216" height="108"/>
      <g id="_Group_" data-name="&lt;Group&gt;">
        <g id="_Group_2" data-name="&lt;Group&gt;">
          <g id="_Group_3" data-name="&lt;Group&gt;">
            <g id="_Group_4" data-name="&lt;Group&gt;">
              <g id="_Group_5" data-name="&lt;Group&gt;">
                <path id="_Compound_Path_" data-name="&lt;Compound Path&gt;" class="cls-2" d="M27.11,42.57h8.46c7.67,0,13.55,3.36,13.55,11.76,0,6.79-4.79,11.09-11.49,11.09H27.11Zm8.3,16h.52c2.76,0,4.88-1.27,4.88-4.27,0-3.21-1.85-4.58-4.88-4.58h-.52Z"/>
              </g>
              <g id="_Group_6" data-name="&lt;Group&gt;">
                <path id="_Compound_Path_2" data-name="&lt;Compound Path&gt;" class="cls-2" d="M74.19,54.06c0,7.33-5.67,11.73-12.64,11.73S48.91,61.4,48.91,54.06c0-7.18,5.7-11.85,12.64-11.85S74.19,46.88,74.19,54.06Zm-16.91.12a4.28,4.28,0,1,0,8.55,0,4.28,4.28,0,1,0-8.55,0Z"/>
              </g>
            </g>
            <g id="_Group_7" data-name="&lt;Group&gt;">
              <path id="_Compound_Path_3" data-name="&lt;Compound Path&gt;" d="M11.8,42.5V55.75c0,3.66,1.1,7.06,5.42,7.06s5.42-3.39,5.42-7.06V42.5h2.8V56.71c0,4.94-3.07,8.73-8.22,8.73S9,61.65,9,56.71V42.5Z"/>
            </g>
            <g id="_Group_8" data-name="&lt;Group&gt;">
              <g id="_Group_9" data-name="&lt;Group&gt;">
                <path id="_Compound_Path_4" data-name="&lt;Compound Path&gt;" d="M78.61,65.37H75.76V42.57h2.84Z"/>
              </g>
              <g id="_Group_10" data-name="&lt;Group&gt;">
                <path id="_Compound_Path_5" data-name="&lt;Compound Path&gt;" d="M89,65.37H86.17V45.17H80.75v-2.6H94.42v2.6H89Z"/>
              </g>
            </g>
          </g>
        </g>
        <path id="_Compound_Path_6" data-name="&lt;Compound Path&gt;" d="M157.67,52.17a.16.16,0,0,0,.16-.16V45.37a.16.16,0,0,0-.16-.16h-.42a.16.16,0,0,0-.16.16V52a.16.16,0,0,0,.16.16Zm-6.52-7H148a.16.16,0,0,0-.16.16V52a.16.16,0,0,0,.16.16h3.17a.16.16,0,0,0,.16-.16v-.4a.16.16,0,0,0-.16-.16h-2.59V48.74h2.52a.16.16,0,0,0,.16-.16v-.4a.16.16,0,0,0-.16-.16h-2.52V45.92h2.59a.16.16,0,0,0,.16-.16v-.4A.16.16,0,0,0,151.15,45.21ZM125,47.13a1.81,1.81,0,0,0-.74-1.56,2.59,2.59,0,0,0-1.61-.37h-.83a.16.16,0,0,0-.16.16V52a.16.16,0,0,0,.16.16h.42a.16.16,0,0,0,.16-.16V49.08l2.09,3a.16.16,0,0,0,.13.07h.49a.16.16,0,0,0,.16-.16.16.16,0,0,0-.06-.13l-2-2.87A1.78,1.78,0,0,0,125,47.13Zm-1.16.91a1.51,1.51,0,0,1-1.06.27h-.38V45.92h.32a2.19,2.19,0,0,1,.92.14,1.12,1.12,0,0,1,.61,1.05A1.17,1.17,0,0,1,123.88,48Zm9.35-3a.16.16,0,0,0-.3,0L130.14,52a.16.16,0,0,0,.15.22h.43a.16.16,0,0,0,.15-.1l.85-2.09h2.7l.85,2.09a.16.16,0,0,0,.15.1h.44A.16.16,0,0,0,136,52a.16.16,0,0,0,0-.1ZM132,49.27l1.06-2.62,1.06,2.62Zm22.08,2.27a1.55,1.55,0,0,1-1.45-1.1.16.16,0,0,0-.22-.09l-.37.17a.16.16,0,0,0-.08.2,2.23,2.23,0,0,0,4.35-.56,1.61,1.61,0,0,0-.84-1.46L154.2,48l-.05,0c-.52-.25-1.06-.5-1.06-1.07a1.09,1.09,0,0,1,1.09-1.11,1.36,1.36,0,0,1,1.21.71.16.16,0,0,0,.11.07.16.16,0,0,0,.13,0l.3-.25a.16.16,0,0,0,0-.2,2,2,0,0,0-1.76-1A1.79,1.79,0,0,0,152.34,47a1.49,1.49,0,0,0,.77,1.33l1.2.64.12.06c.53.26,1.13.55,1.13,1.15A1.46,1.46,0,0,1,154.09,51.54ZM137,45.21h-.42a.16.16,0,0,0-.16.16V52a.16.16,0,0,0,.16.16h2.12a.16.16,0,0,0,.16-.16v-.4a.16.16,0,0,0-.16-.16H137.2V45.37A.16.16,0,0,0,137,45.21Zm-16.47,0h-3.17a.16.16,0,0,0-.16.16V52a.16.16,0,0,0,.16.16h3.17a.16.16,0,0,0,.16-.16v-.4a.16.16,0,0,0-.16-.16H118V48.74h2.52a.16.16,0,0,0,.16-.16v-.4a.16.16,0,0,0-.16-.16H118V45.92h2.59a.16.16,0,0,0,.16-.16v-.4A.16.16,0,0,0,120.57,45.21Zm-3.93,0h-.42a.16.16,0,0,0-.15.11l-1.82,5.26-1.83-5.26a.16.16,0,0,0-.15-.11h-.42a.16.16,0,0,0-.15.21l2.39,6.87a.16.16,0,0,0,.15.11h0a.16.16,0,0,0,.15-.11l2.42-6.87a.16.16,0,0,0-.15-.21Zm45.51.63a2.88,2.88,0,0,1,2.43,1.36.16.16,0,0,0,.23,0l.34-.27a.16.16,0,0,0,0-.22,3.62,3.62,0,0,0-6.64,2,3.6,3.6,0,0,0,6.21,2.42,3.12,3.12,0,0,0,.74-2.32.16.16,0,0,0-.16-.16h-2.8a.16.16,0,0,0-.16.16v.4a.16.16,0,0,0,.16.16h2.21a2,2,0,0,1-.74,1.48,3,3,0,0,1-1.86.7,2.89,2.89,0,0,1-2.85-2.85A2.93,2.93,0,0,1,162.14,45.84Zm-34.34,5.71a1.55,1.55,0,0,1-1.45-1.1.16.16,0,0,0-.22-.09l-.37.17a.16.16,0,0,0-.08.2,2.23,2.23,0,0,0,4.35-.56,1.61,1.61,0,0,0-.84-1.46L127.91,48l-.05,0c-.52-.25-1.06-.5-1.06-1.07a1.09,1.09,0,0,1,1.09-1.11,1.36,1.36,0,0,1,1.21.71.16.16,0,0,0,.11.07.16.16,0,0,0,.13,0l.3-.25a.16.16,0,0,0,0-.2,2,2,0,0,0-1.76-1A1.79,1.79,0,0,0,126.06,47a1.49,1.49,0,0,0,.77,1.33l1.2.64.12.06c.53.26,1.13.55,1.13,1.15A1.46,1.46,0,0,1,127.81,51.54Zm74.43-6.34h-.42a.16.16,0,0,0-.16.16v5.4l-5.3-5.6a.16.16,0,0,0-.28.11V52a.16.16,0,0,0,.16.16h.42a.16.16,0,0,0,.16-.16V46.71l5.3,5.64a.16.16,0,0,0,.12.05h.06a.16.16,0,0,0,.1-.15V45.37A.16.16,0,0,0,202.23,45.21Zm-12.17,0h-.42a.16.16,0,0,0-.16.16v5.4l-5.3-5.6a.16.16,0,0,0-.28.11V52a.16.16,0,0,0,.16.16h.42a.16.16,0,0,0,.16-.16V46.71l5.3,5.64a.16.16,0,0,0,.12.05h.06a.16.16,0,0,0,.1-.15V45.37A.16.16,0,0,0,190.07,45.21Zm-79.42,7h.42a.16.16,0,0,0,.16-.16V45.37a.16.16,0,0,0-.16-.16h-.42a.16.16,0,0,0-.16.16V52A.16.16,0,0,0,110.65,52.17Zm32.78-7h-1.2a.16.16,0,0,0-.16.16V52a.16.16,0,0,0,.16.16h1.2a3.46,3.46,0,0,0,2.62-.93,3.5,3.5,0,0,0,1.07-2.55A3.54,3.54,0,0,0,146,46.09,3.42,3.42,0,0,0,143.43,45.21Zm2.11,5.5a2.75,2.75,0,0,1-2.12.76h-.61V45.92h.61a2.77,2.77,0,0,1,2,.68,2.84,2.84,0,0,1,.07,4.1Zm46.38-5.5h-.42a.16.16,0,0,0-.16.16V52a.16.16,0,0,0,.16.16h2.12a.16.16,0,0,0,.16-.16v-.4a.16.16,0,0,0-.16-.16h-1.53V45.37A.16.16,0,0,0,191.92,45.21Zm-12.34-.09a3.57,3.57,0,1,0,3.61,3.57A3.64,3.64,0,0,0,179.58,45.12Zm0,6.43a2.85,2.85,0,1,1,2.86-2.85A2.9,2.9,0,0,1,179.58,51.54Zm-7.21-6.34h-.42a.16.16,0,0,0-.16.16v5.4l-5.3-5.6a.16.16,0,0,0-.28.11V52a.16.16,0,0,0,.16.16h.42A.16.16,0,0,0,167,52V46.71l5.3,5.64a.16.16,0,0,0,.12.05h.06a.16.16,0,0,0,.1-.15V45.37A.16.16,0,0,0,172.37,45.21Zm34.47,0h-3.17a.16.16,0,0,0-.16.16V52a.16.16,0,0,0,.16.16h3.17A.16.16,0,0,0,207,52v-.4a.16.16,0,0,0-.16-.16h-2.59V48.74h2.52a.16.16,0,0,0,.16-.16v-.4a.16.16,0,0,0-.16-.16h-2.52V45.92h2.59a.16.16,0,0,0,.16-.16v-.4A.16.16,0,0,0,206.84,45.21ZM99.59,52.26a2.59,2.59,0,0,0,1.93-.84,2.75,2.75,0,0,0,.49-1.92V45.37a.16.16,0,0,0-.16-.16h-.42a.16.16,0,0,0-.16.16v4A2.59,2.59,0,0,1,101,51a1.89,1.89,0,0,1-2.73,0,2.59,2.59,0,0,1-.31-1.58v-4a.16.16,0,0,0-.16-.16h-.42a.16.16,0,0,0-.16.16v4.14a2.75,2.75,0,0,0,.49,1.92A2.59,2.59,0,0,0,99.59,52.26Zm95.21-.09A.16.16,0,0,0,195,52V45.37a.16.16,0,0,0-.16-.16h-.42a.16.16,0,0,0-.16.16V52a.16.16,0,0,0,.16.16Zm-85.53.21a.16.16,0,0,0,.1-.15V45.37a.16.16,0,0,0-.16-.16h-.42a.16.16,0,0,0-.16.16v5.4l-5.3-5.6a.16.16,0,0,0-.28.11V52a.16.16,0,0,0,.16.16h.42a.16.16,0,0,0,.16-.16V46.71l5.3,5.64a.16.16,0,0,0,.12.05ZM140.7,62.1a1.55,1.55,0,0,1-1.45-1.1.16.16,0,0,0-.22-.09l-.37.17a.16.16,0,0,0-.08.2,2.23,2.23,0,0,0,4.35-.56,1.61,1.61,0,0,0-.85-1.46l-1.27-.66,0,0c-.52-.25-1.06-.5-1.06-1.07a1.09,1.09,0,0,1,1.09-1.11,1.36,1.36,0,0,1,1.21.71.16.16,0,0,0,.11.07.16.16,0,0,0,.13,0l.3-.25a.16.16,0,0,0,0-.2,2,2,0,0,0-1.76-1A1.79,1.79,0,0,0,139,57.52a1.49,1.49,0,0,0,.77,1.33l1.2.64.12.06c.53.26,1.13.55,1.13,1.15A1.46,1.46,0,0,1,140.7,62.1Zm-15.35-5.22H125a.16.16,0,0,0-.16.16v1.29h-.29a.16.16,0,0,0-.16.16v.37a.16.16,0,0,0,.16.16h.29v3.54a.16.16,0,0,0,.16.16h.4a.16.16,0,0,0,.16-.16V59h.55a.16.16,0,0,0,.16-.16V58.5a.16.16,0,0,0-.16-.16h-.55V57A.16.16,0,0,0,125.35,56.88Zm-25,3.64a2.22,2.22,0,0,0,2.25,2.29,2.42,2.42,0,0,0,1.59-.6.16.16,0,0,0,.06-.12v-.54a.16.16,0,0,0-.29-.1,1.79,1.79,0,0,1-1.37.67,1.59,1.59,0,0,1,0-3.19,1.72,1.72,0,0,1,1.32.61.16.16,0,0,0,.28-.11v-.53a.16.16,0,0,0-.06-.12,2.29,2.29,0,0,0-1.52-.54A2.24,2.24,0,0,0,100.34,60.53Zm6.48-2.28a2.29,2.29,0,1,0,2.3,2.29A2.29,2.29,0,0,0,106.83,58.25Zm0,3.88a1.59,1.59,0,1,1,1.61-1.58A1.58,1.58,0,0,1,106.8,62.13Zm3.53-3.79h-.4a.16.16,0,0,0-.16.16v4.07a.16.16,0,0,0,.16.16h.4a.16.16,0,0,0,.16-.16v-2c0-1.12.32-1.62,1-1.62s.82.38.82,1.17v2.46a.16.16,0,0,0,.16.16h.4a.16.16,0,0,0,.16-.16V60.11c0-.87-.17-1.86-1.5-1.86a1.51,1.51,0,0,0-1.06.42V58.5A.16.16,0,0,0,110.33,58.34Zm10.66,0h-.4a.16.16,0,0,0-.16.16v4.07a.16.16,0,0,0,.16.16h.4a.16.16,0,0,0,.16-.16v-2c0-1.12.32-1.62,1-1.62s.82.38.82,1.17v2.46a.16.16,0,0,0,.16.16h.4a.16.16,0,0,0,.16-.16V60.11c0-.87-.17-1.86-1.5-1.86a1.51,1.51,0,0,0-1.06.42V58.5A.16.16,0,0,0,121,58.34Zm10.58-2.65a.16.16,0,0,0-.1.15v6.73a.16.16,0,0,0,.16.16H132a.16.16,0,0,0,.16-.16V57.27l5.3,5.64a.16.16,0,0,0,.12.05h.06a.16.16,0,0,0,.1-.15V55.93a.16.16,0,0,0-.16-.16h-.42a.16.16,0,0,0-.16.16v5.4l-5.3-5.6A.16.16,0,0,0,131.57,55.69Zm50.13.24v.4a.16.16,0,0,0,.16.16h1.56v6.09a.16.16,0,0,0,.16.16H184a.16.16,0,0,0,.16-.16V56.48h1.56a.16.16,0,0,0,.16-.16v-.4a.16.16,0,0,0-.16-.16h-3.86A.16.16,0,0,0,181.7,55.93Zm4.23,3.32a3.61,3.61,0,1,0,3.61-3.57A3.64,3.64,0,0,0,185.93,59.25Zm6.47,0a2.86,2.86,0,1,1-2.86-2.85A2.9,2.9,0,0,1,192.4,59.25ZM202,55.76h-.42a.16.16,0,0,0-.16.16v6.65a.16.16,0,0,0,.16.16h2.12a.16.16,0,0,0,.16-.16v-.4a.16.16,0,0,0-.16-.16h-1.53V55.93A.16.16,0,0,0,202,55.76Zm-29.68-.08a.16.16,0,0,0-.1.15v6.73a.16.16,0,0,0,.16.16h.42a.16.16,0,0,0,.16-.16V57.27l5.3,5.64a.16.16,0,0,0,.12.05h.06a.16.16,0,0,0,.1-.15V55.93a.16.16,0,0,0-.16-.16h-.42a.16.16,0,0,0-.16.16v5.4l-5.3-5.6A.16.16,0,0,0,172.29,55.69Zm-14.11.24v.4a.16.16,0,0,0,.16.16h1.56v6.09a.16.16,0,0,0,.16.16h.42a.16.16,0,0,0,.16-.16V56.48h1.56a.16.16,0,0,0,.16-.16v-.4a.16.16,0,0,0-.16-.16h-3.86A.16.16,0,0,0,158.18,55.93Zm6.08,3.32a3.61,3.61,0,1,0,3.61-3.57A3.64,3.64,0,0,0,164.27,59.25Zm3.61-2.85A2.85,2.85,0,1,1,165,59.25,2.9,2.9,0,0,1,167.87,56.4Zm-4.9-.63a.16.16,0,0,0-.16.16v6.65a.16.16,0,0,0,.16.16h.42a.16.16,0,0,0,.16-.16V55.93a.16.16,0,0,0-.16-.16Zm-33.36.16v6.65a.16.16,0,0,0,.16.16h.42a.16.16,0,0,0,.16-.16V55.93a.16.16,0,0,0-.16-.16h-.42A.16.16,0,0,0,129.61,55.93Zm-14.08,4.6a2.17,2.17,0,0,0,4.1,1.11.16.16,0,0,0-.06-.21l-.33-.19a.17.17,0,0,0-.13,0,.16.16,0,0,0-.1.08,1.44,1.44,0,0,1-2.76-.56h3.37a.16.16,0,0,0,.16-.16,2.4,2.4,0,0,0-.65-1.74,2,2,0,0,0-1.47-.59A2.16,2.16,0,0,0,115.54,60.53Zm2.14-1.58A1.42,1.42,0,0,1,119,60h-2.75A1.46,1.46,0,0,1,117.68,58.94Zm26.17-3.18a.16.16,0,0,0-.16.16v6.65a.16.16,0,0,0,.16.16h.42a.16.16,0,0,0,.16-.16v-3H145a2.39,2.39,0,0,0,1.58-.46,2,2,0,0,0,0-2.93,2.23,2.23,0,0,0-1.54-.43Zm2.62,1.9a1.14,1.14,0,0,1-.38.88,1.45,1.45,0,0,1-1.06.32h-.61V56.48H145a1.68,1.68,0,0,1,1.07.23A1.16,1.16,0,0,1,146.48,57.66ZM114.3,62.73h.4a.16.16,0,0,0,.16-.16V59h.55a.16.16,0,0,0,.16-.16V58.5a.16.16,0,0,0-.16-.16h-.55V57a.16.16,0,0,0-.16-.16h-.4a.16.16,0,0,0-.16.16v1.29h-.29a.16.16,0,0,0-.16.16v.37a.16.16,0,0,0,.16.16h.29v3.54A.16.16,0,0,0,114.3,62.73Zm36.9-6.25a.16.16,0,0,0,.16-.16v-.4a.16.16,0,0,0-.16-.16H148a.16.16,0,0,0-.16.16v6.65a.16.16,0,0,0,.16.16h3.17a.16.16,0,0,0,.16-.16v-.4a.16.16,0,0,0-.16-.16H148.6V59.3h2.52a.16.16,0,0,0,.16-.16v-.4a.16.16,0,0,0-.16-.16H148.6V56.48Zm4.36,6.34a3.6,3.6,0,0,0,2.32-.87.16.16,0,0,0,.06-.12v-.58a.16.16,0,0,0-.29-.1,3,3,0,0,1-2.11,1,3,3,0,0,1-2-.87,2.72,2.72,0,0,1-.84-1.94,2.92,2.92,0,0,1,2.86-2.9,2.86,2.86,0,0,1,2.11,1,.16.16,0,0,0,.18,0,.16.16,0,0,0,.11-.15V56.7a.16.16,0,0,0-.05-.12,3.44,3.44,0,0,0-2.31-.91,3.57,3.57,0,1,0,0,7.15Zm41.51,0a3.57,3.57,0,1,0-3.61-3.57A3.64,3.64,0,0,0,197.07,62.82Zm0-6.43a2.85,2.85,0,1,1-2.86,2.85A2.9,2.9,0,0,1,197.07,56.4Zm9.77-13.83H97.33a.16.16,0,0,0-.16.16v.42a.16.16,0,0,0,.16.16H206.84a.16.16,0,0,0,.16-.16v-.42A.16.16,0,0,0,206.84,42.57Zm0,22.06H97.33a.16.16,0,0,0-.16.16v.42a.16.16,0,0,0,.16.16H206.84a.16.16,0,0,0,.16-.16v-.42A.16.16,0,0,0,206.84,64.63Z"/>
      </g>
    </g>
  </g>
</svg>
