<?xml version="1.0" encoding="utf-8"?>
<!-- Generator: Adobe Illustrator 26.3.1, SVG Export Plug-In . SVG Version: 6.00 Build 0)  -->
<svg version="1.1" xmlns="http://www.w3.org/2000/svg" xmlns:xlink="http://www.w3.org/1999/xlink" x="0px" y="0px"
	 viewBox="0 0 217 109" style="enable-background:new 0 0 217 109;" xml:space="preserve">
<style type="text/css">
	.st0{fill:#FFCB00;}
	.st1{fill:#FFFFFF;}
	.st2{fill:#052815;}
	.st3{fill:#082A18;}
	.st4{fill:#052814;}
	.st5{fill:#072916;}
	.st6{fill:#0F6637;}
	.st7{fill:#168348;}
	.st8{fill:#157F45;}
	.st9{fill:#106A3A;}
	.st10{fill:#147B43;}
	.st11{fill:#137640;}
	.st12{fill:#137841;}
	.st13{fill:#116E3B;}
	.st14{fill:#12733F;}
	.st15{fill:#C8E2DD;}
	.st16{fill:#0E6436;}
	.st17{fill:#116E3C;}
	.st18{fill:#116D3B;}
	.st19{fill:#157D44;}
	.st20{fill:#12743F;}
	.st21{fill:#C9E3DE;}
	.st22{fill:#31925E;}
</style>
<g id="Layer_1">
	<rect id="_Rectangle_" x="0.5" y="0.5" class="st0" width="216" height="108"/>
	<path class="st1" d="M123.58,46.82c1.7,0.89,2.69,2.3,3.08,4.12c0.35,1.64,0.04,3.18-0.91,4.58c-1.07,1.57-2.54,2.4-4.42,2.58
		c-1.79,0.17-3.33-0.41-4.58-1.62c-2.11-2.05-2.49-5.25-0.71-7.84c0.98-1.42,2.37-2.2,4.1-2.44
		C121.35,46.04,122.46,46.3,123.58,46.82z"/>
	<path class="st1" d="M103.54,47.26c1.7,0.89,2.69,2.3,3.08,4.12c0.35,1.64,0.04,3.18-0.91,4.58c-1.07,1.57-2.54,2.4-4.42,2.58
		c-1.79,0.17-3.33-0.41-4.58-1.62c-2.11-2.05-2.49-5.25-0.71-7.84c0.98-1.42,2.37-2.2,4.1-2.44
		C101.32,46.47,102.42,46.73,103.54,47.26z"/>
	<path class="st1" d="M139.49,48.72c1.7,0.89,2.69,2.3,3.08,4.12c0.35,1.64,0.04,3.18-0.91,4.58c-1.07,1.57-2.54,2.4-4.42,2.58
		c-1.79,0.17-3.33-0.41-4.58-1.62c-2.11-2.05-2.49-5.25-0.71-7.84c0.98-1.42,2.37-2.2,4.1-2.44
		C137.27,47.94,138.37,48.2,139.49,48.72z"/>
</g>
<g id="Layer_2">
	<g>
		<g>
			<path class="st1" d="M69.2,40.89c0-0.66-0.04-1.25-0.13-1.8c-0.21-1.31-0.79-2.38-1.73-3.19c-1.48-1.28-3.22-1.47-4.72-1.5
				c-1.31-0.02-2.56,0.13-3.93,0.32c-2.43,0.33-2.9,1.5-2.9,3.44v15.38c0,0.3,0,0.59,0.01,0.88c0.01,0.6,0.01,1.17-0.01,1.75
				c-0.03,0.58-0.2,1.05-0.54,1.42c-0.3,0.33-0.78,0.66-2.02,0.53c-0.57-0.06-0.99-0.33-1.32-0.84c-0.24-0.38-0.36-0.89-0.37-1.55
				c-0.01-2.96-0.01-5.91-0.01-8.87c0-2.01,0-4.03,0-6.04c0-0.68-0.04-1.25-0.14-1.79c-0.23-1.29-0.81-2.35-1.73-3.15
				c-1.45-1.26-3.1-1.46-4.67-1.49c-1.21-0.03-2.54,0.09-4.05,0.34c-0.12,0.02-0.22,0.03-0.31,0.04c-2.53,0.32-2.52,2.29-2.52,3.35
				c0.01,2.85,0.01,5.71,0.01,8.56c0,2.53,0,5.07,0,7.6c0,0.7,0.03,1.4,0.07,2.1l0.03,0.72c0.08,1.85,0.58,3.66,1.53,5.52
				c0.98,1.9,2.41,3.48,4.25,4.68c2.31,1.51,4.94,2.36,7.8,2.52c0.59,0.03,1.25,0.06,1.96,0.06c1.23,0,2.6-0.08,3.98-0.37
				c3.73-0.77,6.53-2.37,8.56-4.89c1.84-2.29,2.84-4.99,2.89-7.82c0.06-3.96,0.05-7.98,0.03-11.86
				C69.21,43.61,69.2,42.25,69.2,40.89z"/>
			<path class="st1" d="M182.13,36.12L182.13,36.12c-0.39-0.65-1.24-1.31-2.25-1.31c-7.2-0.02-14.4-0.02-21.61-0.01
				c-1.87,0-3.78,1.37-4.48,3.15c-0.37-0.95-1.01-1.78-1.9-2.4c-1.37-0.97-2.85-1.12-4.12-1.14c-1.31-0.03-2.72,0.09-4.2,0.34
				l-0.21,0.03c-2.34,0.37-2.53,1.87-2.52,3.24c0.01,1.99,0.01,3.99,0.01,6l0,0.36c-0.34-0.73-1.09-1.58-2.22-1.61
				c-0.65-0.02-1.26,0.03-1.86,0.07l-0.58,0.04c-0.1,0.01-0.21,0.01-0.31,0c-0.11,0-0.23,0-0.36,0c-0.02-0.04-0.05-0.08-0.08-0.12
				c0.13-0.23,0.25-0.46,0.38-0.69c0.31-0.58,0.63-1.16,0.96-1.73c0.7-1.21,0.46-2.57-0.61-3.47c-1.07-0.9-2.13-1.8-3.21-2.68
				c-1.03-0.84-2.43-0.8-3.47,0.1c-0.68,0.59-1.37,1.17-2.06,1.75c-0.1-0.04-0.19-0.08-0.29-0.11c-0.07-0.45-0.13-0.89-0.19-1.34
				l-0.12-0.84c-0.1-0.68-0.39-2.76-2.76-2.83c-0.43-0.01-0.86-0.02-1.29-0.03c-0.89-0.02-1.78-0.04-2.66-0.08
				c-1.43-0.08-2.55,0.78-2.85,2.17c-0.17,0.78-0.34,1.56-0.51,2.34c-0.02,0.01-0.04,0.01-0.06,0.02c-0.32-0.34-0.63-0.68-0.95-1.03
				L115,33.48c-1.21-1.31-2.6-1.2-3.5-0.66c-0.83,0.5-1.66,1.01-2.48,1.53l-1.03,0.64c-1.24,0.77-1.67,2.16-1.09,3.53
				c0.28,0.66,0.55,1.34,0.81,2.01l0.13,0.33c-0.02,0.03-0.04,0.05-0.06,0.08c-0.83-0.19-1.68-0.38-2.53-0.54
				c-1.1-0.21-2.38,0.43-2.84,1.42c-0.39,0.84-0.76,1.69-1.13,2.53c-0.08,0.18-0.16,0.36-0.24,0.54c-0.5-1.41-1.19-2.74-2.1-3.99
				c-1.22-1.68-2.77-3.09-4.61-4.16c-2.83-1.66-6.17-2.52-10.21-2.64c-2.19-0.06-4.39,0.13-6.26,0.32
				c-1.53,0.16-3.02,0.47-4.42,0.93c-2.44,0.8-3.68,2.47-3.66,4.98c0.05,6.79,0.03,13.7,0.02,20.39l0,2.14c0,2.35,1.14,4.2,3.3,5.34
				c1.27,0.67,2.69,1.08,4.34,1.26c0.46,0.05,0.91,0.11,1.37,0.16c1.2,0.15,2.45,0.3,3.72,0.35c0.21,0.01,0.43,0.01,0.64,0.01
				c0.94,0,1.86-0.07,2.76-0.14c0.38-0.03,0.75-0.06,1.13-0.08l0.26-0.03c0.06-0.01,0.12-0.02,0.17-0.03
				c0.13-0.02,0.25-0.03,0.37-0.06c3.25-0.64,5.72-1.65,7.77-3.18c1.62-1.21,2.98-2.72,4.05-4.5c0.51-0.84,0.92-1.72,1.26-2.65
				c0.49,1.05,1.48,1.66,2.69,1.59c0.66-0.04,1.33-0.06,1.99-0.08c0.2-0.01,0.4-0.01,0.6-0.02c0.03,0.05,0.07,0.11,0.1,0.16
				c-0.41,0.71-0.83,1.43-1.26,2.13c-0.66,1.08-0.48,2.34,0.45,3.21c0.25,0.23,0.5,0.47,0.76,0.7l0.93,0.86
				c0.33,0.31,0.66,0.62,1.01,0.92c1.94,1.67,3.1,1.3,4.67-0.04c0.4-0.34,0.83-0.67,1.28-1c0.02,0.01,0.04,0.02,0.06,0.03l0.4,0.19
				c0.11,0.85,0.2,1.62,0.27,2.42c0.14,1.43,1.11,2.38,2.53,2.46c0.29,0.02,0.57,0.05,0.86,0.09c0.33,0.04,0.67,0.08,1.01,0.1
				c0.99,0.07,1.76,0.1,2.49,0.1c0.03,0,0.06,0,0.09,0c1.04,0,2.08-0.79,2.38-1.8c0.2-0.68,0.38-1.36,0.56-2.04
				c0.06-0.24,0.13-0.47,0.19-0.71c0.09-0.02,0.17-0.04,0.26-0.06c0.56,0.59,1.09,1.18,1.61,1.77c1.04,1.18,2.41,1.38,3.75,0.54
				l0.29-0.18c0.97-0.61,1.95-1.22,2.94-1.8c1.31-0.76,1.77-2.09,1.21-3.46c-0.33-0.82-0.66-1.64-0.98-2.44
				c0.03-0.04,0.06-0.08,0.1-0.12c0.66,0.13,1.33,0.28,2.05,0.44c0.04,0.01,0.09,0.02,0.13,0.03l1.49,0.1l0,0
				c0.79-0.12,1.63-0.58,2.15-1.91l0.4-1.02c0.16-0.41,0.31-0.81,0.47-1.2c0,1.49,0,2.98,0,4.46c0,1.6,0.58,3,1.68,4.05
				c1.08,1.04,2.49,1.57,4.2,1.6c0.11,0,0.22,0,0.33,0c1.29,0,2.56-0.1,3.8-0.19l0.18-0.01c2.27-0.17,3.23-1.22,3.23-3.51l0-5.21
				c0-4.25,0-8.49-0.01-12.74c0-0.91-0.01-1.84-0.02-2.78c0.01,0.02,0.02,0.04,0.03,0.06c0.5,1.09,1.5,1.71,2.74,1.69
				c1.46-0.02,2.91-0.01,4.37-0.01h0.07v2.22c0,4.32,0,8.61,0.01,12.9c0,0.79,0.02,1.72,0.12,2.7c0.22,2.03,1.35,3.6,3.11,4.3
				c0.91,0.37,1.96,0.6,3.02,0.67c0.31,0.02,0.62,0.03,0.94,0.03c1.22,0,2.52-0.15,3.95-0.46c1.46-0.31,2.3-1.34,2.29-2.82
				c-0.01-4.1-0.01-8.19-0.01-12.31l0-7.21c1,0.01,2.03,0.01,3.05-0.04c0.91-0.04,1.87-0.31,2.72-0.75
				c2.55-1.34,2.65-4.06,2.69-4.95C183.41,39.22,182.99,37.55,182.13,36.12z M83.11,45.81c2.09,0.02,3.39,0.6,4.31,1.92
				c0.05,0.07,0.13,0.24,0.2,0.39c0.05,0.12,0.11,0.23,0.16,0.34c0.41,0.92,0.62,1.84,0.64,2.8c0.03,1.39,0.02,2.73-0.41,3.98
				c-0.56,1.63-1.59,2.5-3.32,2.82c-0.51,0.09-1.02,0.12-1.58,0.1l0-1.9C83.12,52.78,83.12,49.3,83.11,45.81z M101.94,49.27
				c0.49,0.32,0.98,0.64,1.46,0.97l0.44,0.3c0,0.03,0,0.06-0.01,0.09c-0.57,0.25-1.14,0.48-1.72,0.72
				C102.09,50.64,102.02,49.95,101.94,49.27z M124.16,54.13c-0.72,1.05-1.65,1.58-2.99,1.71c-1.18,0.11-2.17-0.24-3.04-1.07
				c-1.47-1.41-1.65-3.5-0.46-5.21c0.64-0.92,1.52-1.42,2.76-1.59c0.16-0.02,0.32-0.03,0.48-0.03c0.57,0,1.15,0.14,1.82,0.44
				c1.13,0.6,1.78,1.48,2.05,2.75C125,52.21,124.8,53.19,124.16,54.13z M140.57,54.71c-0.07-0.05-0.14-0.1-0.22-0.15
				c-0.33-0.21-0.66-0.42-1-0.64c-0.43-0.28-0.86-0.55-1.3-0.83c0.28-0.13,0.56-0.27,0.84-0.4c0.53-0.26,1.07-0.52,1.61-0.77
				c0.12-0.06,0.24-0.13,0.35-0.2c0,0.98,0,1.96,0,2.94L140.57,54.71z"/>
		</g>
		<path class="st2" d="M115.25,66.27c-0.45-0.21-0.85-0.42-1.27-0.59c-0.09-0.04-0.25-0.02-0.33,0.04
			c-0.74,0.55-1.49,1.07-2.19,1.67c-1.02,0.87-1.07,0.9-2.06,0.05c-0.48-0.42-0.94-0.87-1.41-1.3c-0.41-0.37-0.82-0.74-1.22-1.12
			c-0.22-0.2-0.28-0.42-0.1-0.71c0.61-1.01,1.2-2.03,1.79-3.05c0.04-0.08,0.04-0.22,0-0.3c-0.42-0.69-0.85-1.37-1.27-2.05
			c-0.21,0.02-0.44,0.05-0.67,0.05c-1.04,0.04-2.08,0.05-3.11,0.12c-0.53,0.03-0.75-0.26-0.84-0.68c-0.29-1.27-0.57-2.54-0.83-3.81
			c-0.09-0.42,0.01-0.77,0.47-0.96c1.01-0.41,2.01-0.84,3.02-1.27c0.29-0.13,0.51-0.29,0.49-0.69c-0.02-0.49,0.03-1,0.1-1.49
			c0.05-0.36-0.12-0.56-0.39-0.74c-0.94-0.63-1.88-1.26-2.83-1.88c-0.3-0.2-0.41-0.4-0.25-0.75c0.59-1.32,1.14-2.65,1.76-3.96
			c0.08-0.17,0.45-0.34,0.65-0.3c1.24,0.24,2.47,0.53,3.66,0.8c0.44-0.52,0.84-1.06,1.31-1.52c0.26-0.26,0.28-0.47,0.16-0.76
			c-0.42-1.04-0.82-2.1-1.26-3.13c-0.19-0.46-0.12-0.79,0.3-1.05c1.16-0.72,2.32-1.45,3.49-2.15c0.41-0.24,0.73,0,1,0.3
			c0.79,0.85,1.56,1.71,2.36,2.54c0.09,0.1,0.34,0.12,0.5,0.08c0.69-0.15,1.37-0.34,2.08-0.52c0.25-1.16,0.5-2.35,0.76-3.54
			c0.09-0.42,0.31-0.62,0.79-0.6c1.33,0.07,2.67,0.08,4,0.12c0.56,0.02,0.71,0.21,0.84,1.11c0.14,0.99,0.26,1.99,0.44,2.98
			c0.03,0.19,0.25,0.41,0.44,0.51c0.49,0.25,1.05,0.38,1.52,0.65c0.35,0.2,0.59,0.14,0.84-0.07c0.91-0.76,1.81-1.52,2.7-2.29
			c0.3-0.26,0.6-0.3,0.89-0.06c1.07,0.88,2.13,1.77,3.19,2.66c0.31,0.26,0.4,0.53,0.17,0.93c-0.61,1.05-1.16,2.13-1.76,3.19
			c-0.16,0.29-0.19,0.47,0.06,0.76c0.35,0.41,0.61,0.89,0.86,1.37c0.17,0.33,0.28,0.48,0.71,0.34c0.43-0.14,0.92-0.08,1.38-0.11
			c0.76-0.04,1.51-0.12,2.27-0.1c0.17,0,0.43,0.32,0.49,0.53c0.36,1.26,0.65,2.54,1,3.81c0.14,0.49,0.01,0.79-0.43,1
			c-1.08,0.51-2.16,1.04-3.24,1.55c-0.26,0.12-0.37,0.29-0.37,0.59c0.01,0.46-0.06,0.92-0.09,1.39c-0.02,0.3,0.02,0.53,0.34,0.72
			c1.01,0.61,2,1.26,3,1.89c0.34,0.21,0.48,0.41,0.28,0.86c-0.52,1.18-0.97,2.4-1.44,3.6c-0.28,0.71-0.48,0.78-1.48,0.56
			c-0.97-0.22-1.95-0.43-2.93-0.6c-0.18-0.03-0.45,0.1-0.58,0.24c-0.47,0.52-0.9,1.08-1.37,1.65c0.46,1.16,0.93,2.36,1.42,3.55
			c0.19,0.46,0.06,0.73-0.37,0.98c-1.11,0.65-2.19,1.33-3.28,2.01c-0.52,0.33-0.79,0.28-1.18-0.17c-0.73-0.83-1.48-1.64-2.24-2.44
			c-0.11-0.11-0.36-0.16-0.53-0.13c-0.66,0.13-1.32,0.29-1.96,0.47c-0.14,0.04-0.3,0.21-0.34,0.35c-0.33,1.18-0.63,2.38-0.97,3.56
			c-0.05,0.16-0.3,0.36-0.46,0.36c-0.81,0-1.62-0.04-2.43-0.09c-0.63-0.04-1.25-0.16-1.88-0.19c-0.44-0.03-0.61-0.21-0.66-0.65
			c-0.11-1.19-0.26-2.37-0.42-3.56c-0.01-0.1-0.14-0.23-0.24-0.27C115.84,66.43,115.56,66.37,115.25,66.27 M134.94,53.99
			c0.05-0.67,0.12-1.34,0.13-2.01c0.01-0.36,0.14-0.58,0.46-0.73c0.42-0.2,0.82-0.43,1.31-0.66c0.63-0.29,1.26-0.57,1.87-0.89
			c0.15-0.08,0.34-0.35,0.31-0.48c-0.16-0.7-0.38-1.39-0.58-2.16c-0.07-0.25-0.16-0.49-0.2-0.75c-0.06-0.35-0.24-0.47-0.57-0.43
			c-0.43,0.05-0.86,0.07-1.29,0.11c-0.62,0.05-1.25,0.03-1.85,0.16c-0.56,0.12-0.84-0.08-1.09-0.53c-0.27-0.48-0.57-0.94-0.89-1.48
			c-0.05-0.09-0.09-0.19-0.16-0.27c-0.42-0.45-0.43-0.9-0.1-1.41c0.27-0.44,0.48-0.92,0.77-1.43c0.32-0.6,0.64-1.19,0.97-1.82
			c-0.96-0.81-1.91-1.61-2.89-2.43c-1.01,0.83-2.02,1.65-3,2.5c-0.31,0.27-0.61,0.27-0.96,0.13c-0.77-0.31-1.53-0.65-2.32-0.93
			c-0.36-0.13-0.51-0.35-0.56-0.72c-0.13-1.06-0.29-2.13-0.45-3.19c-0.04-0.26-0.06-0.58-0.46-0.58c-1.14,0-2.28,0-3.48,0
			c-0.24,1.06-0.5,2.21-0.74,3.36c-0.09,0.43-0.3,0.63-0.75,0.71c-0.73,0.13-1.45,0.34-2.17,0.54c-0.41,0.12-0.73,0.09-1.03-0.25
			c-0.74-0.81-1.49-1.61-2.26-2.39c-0.12-0.13-0.44-0.23-0.56-0.16c-0.91,0.51-1.8,1.06-2.67,1.63c-0.11,0.07-0.2,0.35-0.16,0.48
			c0.39,1.02,0.81,2.03,1.22,3.13c0.14,0.38,0.16,0.72-0.15,1.06c-0.54,0.61-1.05,1.25-1.58,1.87c-0.22,0.26-0.46,0.36-0.83,0.27
			c-1.16-0.27-2.32-0.5-3.56-0.77c-0.38,0.94-0.75,1.87-1.18,2.84c-0.33,0.39-0.3,0.67,0.16,0.95c0.9,0.56,1.79,1.15,2.65,1.77
			c0.2,0.14,0.38,0.47,0.38,0.71c-0.01,0.85-0.13,1.69-0.17,2.54c-0.02,0.32-0.13,0.5-0.44,0.62c-0.66,0.26-1.31,0.56-1.96,0.86
			c-0.49,0.22-1.19,0.34-1.39,0.72c-0.19,0.37,0.13,1.01,0.23,1.62c0.11,0.53,0.22,1.05,0.33,1.58c0.06,0.32,0.21,0.46,0.57,0.44
			c1.09-0.06,2.19-0.06,3.28-0.12c0.45-0.02,0.71,0.16,0.91,0.54c0.29,0.55,0.56,1.14,0.97,1.6c0.59,0.68,0.5,1.24,0.01,1.92
			c-0.55,0.77-0.99,1.62-1.47,2.44c0.97,0.87,1.89,1.71,2.82,2.55c0.98-0.75,1.89-1.45,2.8-2.14c0.26-0.2,0.49-0.4,0.89-0.22
			c0.85,0.39,1.74,0.7,2.6,1.08c0.21,0.09,0.43,0.32,0.5,0.53c0.11,0.32,0.09,0.68,0.14,1.03c0.11,0.92,0.23,1.85,0.35,2.79
			c1.27,0.1,2.49,0.2,3.76,0.3c0.06-0.19,0.13-0.36,0.18-0.54c0.28-1.02,0.57-2.04,0.81-3.07c0.09-0.38,0.29-0.52,0.62-0.6
			c0.84-0.21,1.68-0.42,2.52-0.63c0.34-0.08,0.63-0.04,0.9,0.24c0.74,0.81,1.52,1.59,2.26,2.39c0.22,0.23,0.38,0.27,0.66,0.09
			c0.83-0.54,1.68-1.06,2.53-1.56c0.29-0.17,0.28-0.32,0.17-0.59c-0.42-1.01-0.8-2.04-1.22-3.05c-0.19-0.46-0.09-0.77,0.24-1.12
			c0.46-0.49,0.87-1.03,1.36-1.6c0.24-0.45,0.6-0.55,1.1-0.44c1.1,0.25,2.21,0.45,3.31,0.65c0.1,0.02,0.3-0.05,0.33-0.13
			c0.44-1.06,0.85-2.12,1.28-3.23c0,0,0-0.04,0.03-0.07c-0.02-0.03-0.03-0.06-0.09-0.15c-0.98-0.62-1.94-1.25-2.93-1.84
			C135,54.92,134.79,54.58,134.94,53.99z"/>
		<path class="st3" d="M57.65,53.74c0-5.16,0-10.27,0-15.38c0-1.25-0.01-1.29,1.17-1.45c1.2-0.16,2.42-0.32,3.64-0.3
			c1.21,0.02,2.44,0.14,3.44,1.01c0.62,0.54,0.94,1.22,1.06,2c0.08,0.49,0.11,0.99,0.11,1.49c0.01,5.3,0.06,10.6-0.02,15.9
			c-0.04,2.43-0.89,4.66-2.45,6.59c-1.92,2.38-4.48,3.58-7.41,4.19c-1.8,0.37-3.61,0.37-5.42,0.27c-2.44-0.14-4.76-0.85-6.82-2.2
			c-1.51-0.99-2.73-2.28-3.57-3.92c-0.76-1.48-1.24-3.02-1.31-4.69c-0.04-0.92-0.1-1.83-0.1-2.75c-0.01-5.39,0-10.78-0.01-16.17
			c0-1.46,0.13-1.24,1.15-1.41c1.21-0.2,2.46-0.34,3.69-0.31c1.19,0.02,2.4,0.14,3.39,1c0.62,0.54,0.94,1.22,1.08,1.99
			c0.08,0.47,0.11,0.96,0.11,1.44c0.01,4.97,0,9.94,0.01,14.91c0,0.92,0.17,1.83,0.68,2.62c0.65,1.02,1.61,1.63,2.79,1.75
			c1.38,0.15,2.71-0.07,3.71-1.17c0.69-0.76,1.01-1.68,1.06-2.68C57.68,55.57,57.65,54.68,57.65,53.74 M66.22,53.27
			c0-3.94,0-7.88,0-11.82c0-0.5-0.03-1.01-0.09-1.51c-0.14-1.11-0.7-1.91-1.81-2.19c-1.92-0.48-3.83-0.22-5.74,0.12
			c0,0.24,0,0.44,0,0.63c0,5.63,0,11.26,0,16.9c0,0.5-0.01,1.01-0.08,1.51c-0.28,1.99-1.26,3.49-3.26,4.06
			c-2.09,0.6-4.02,0.28-5.52-1.44c-0.95-1.09-1.17-2.42-1.17-3.81c0-4.74,0-9.49,0-14.23c0-0.49-0.03-0.98-0.08-1.46
			c-0.14-1.36-0.94-2.19-2.28-2.4c-1.76-0.27-3.5-0.09-5.28,0.24c0,0.21,0,0.39,0,0.58c0,4.57,0,9.14,0,13.71
			c0,1.6-0.06,3.21,0.04,4.81c0.24,3.89,1.98,6.94,5.52,8.69c4.23,2.1,8.65,2.12,13.04,0.52c3.56-1.3,5.79-3.91,6.45-7.65
			C66.25,56.85,66.14,55.09,66.22,53.27z"/>
		<path class="st3" d="M172.76,50.5c0,5.33-0.01,10.62,0.01,15.9c0,0.54-0.2,0.75-0.71,0.86c-1.43,0.31-2.88,0.48-4.34,0.38
			c-0.81-0.05-1.65-0.23-2.41-0.53c-1.15-0.46-1.73-1.45-1.86-2.66c-0.09-0.82-0.11-1.65-0.11-2.48c-0.01-5.68,0-11.36,0-17.12
			c-0.18,0-0.34,0-0.51,0c-1.99,0-3.97-0.01-5.96,0.01c-0.44,0-0.73-0.17-0.9-0.53c-0.79-1.72-1.1-3.47-0.5-5.33
			c0.36-1.11,1.6-1.98,2.67-1.99c7.2-0.01,14.4-0.01,21.6,0.01c0.18,0,0.44,0.17,0.54,0.34c0.68,1.13,0.98,2.39,0.93,3.7
			c-0.05,1.3-0.34,2.58-1.62,3.26c-0.56,0.3-1.24,0.49-1.87,0.52c-1.63,0.07-3.27,0.02-4.97,0.02
			C172.76,46.73,172.76,48.59,172.76,50.5 M171.89,61.01c0-5.4,0-10.81,0-16.21c0-0.77,0.1-0.88,0.87-0.88
			c1.73,0,3.45,0.01,5.18-0.01c1.2-0.02,2.04-0.74,2.26-1.92c0.24-1.26,0.1-2.49-0.4-3.69c-0.16-0.38-0.35-0.47-0.73-0.47
			c-6.4,0.01-12.8,0.01-19.19,0.01c-0.49,0-0.98-0.01-1.46,0.01c-1.23,0.06-2.1,0.85-2.29,2.05c-0.19,1.25-0.04,2.46,0.45,3.63
			c0.13,0.3,0.29,0.41,0.62,0.4c2.02-0.02,4.04-0.01,6.07-0.01c0.88,0,0.98,0.09,0.98,1c0,5.94,0,11.89,0,17.83
			c0,0.45,0.01,0.91,0.04,1.36c0.12,1.43,0.92,2.36,2.35,2.49c1.19,0.11,2.4,0.06,3.59,0.03c0.55-0.01,1.09-0.13,1.65-0.21
			C171.89,64.6,171.89,62.86,171.89,61.01z"/>
		<path class="st4" d="M86.8,67.95c-1.47,0.09-2.91,0.26-4.33,0.21c-1.65-0.06-3.3-0.32-4.95-0.5c-1.27-0.14-2.49-0.44-3.62-1.04
			c-1.44-0.76-2.24-1.88-2.23-3.56c0.01-7.51,0.04-15.03-0.02-22.54c-0.01-1.82,0.84-2.6,2.28-3.06c1.29-0.42,2.65-0.7,4.01-0.84
			c1.99-0.21,4-0.37,5.99-0.31c3.24,0.1,6.4,0.69,9.26,2.36c1.58,0.93,2.93,2.12,4.01,3.61c1.4,1.94,2.26,4.1,2.53,6.47
			c0.15,1.28,0.33,2.57,0.3,3.84c-0.06,3-0.59,5.9-2.17,8.53c-0.93,1.54-2.09,2.85-3.54,3.93c-2.08,1.55-4.46,2.33-6.96,2.82
			C87.18,67.89,87.01,67.9,86.8,67.95 M72.52,49.34c0,1.36,0.01,2.73,0,4.19c0,1.78,0,3.56,0,5.44c0,1.26,0.05,2.51-0.01,3.76
			c-0.09,1.75,0.97,2.82,2.32,3.34c1.91,0.75,3.93,0.99,5.95,1.15c1.21,0.09,2.42,0.03,3.64,0.02c2.09-0.01,4.1-0.42,6.05-1.15
			c3.62-1.36,6.18-3.8,7.59-7.51c0.75-1.93,1.09-3.93,1.04-6.09c0-0.5,0.04-1.01-0.01-1.51c-0.11-1-0.27-2-0.41-3.08
			c-0.11-0.4-0.18-0.81-0.32-1.2c-0.41-1.16-0.76-2.34-1.56-3.39c-0.68-0.81-1.27-1.71-2.05-2.4c-2.83-2.52-6.29-3.45-9.97-3.69
			c-1.33-0.08-2.67-0.08-4,0c-1.55,0.1-3.11,0.25-4.64,0.54c-0.99,0.19-1.94,0.62-2.87,1.03c-0.53,0.23-0.74,0.77-0.74,1.35
			c0,1.39,0.01,2.79,0,4.28C72.52,46.03,72.52,47.63,72.52,49.34z"/>
		<path class="st5" d="M142.73,46.73c0-2.88,0.01-5.7-0.01-8.52c-0.01-1.22,0.05-1.12,1.05-1.28c1.26-0.21,2.56-0.33,3.84-0.31
			c1.03,0.02,2.09,0.13,3,0.77c0.91,0.64,1.37,1.54,1.4,2.58c0.1,2.64,0.11,5.28,0.12,7.92c0.02,5.98,0,11.96,0,17.94
			c0,1.24-0.14,1.42-1.38,1.51c-1.37,0.1-2.75,0.21-4.13,0.2c-1.03-0.01-2.03-0.27-2.84-1.04c-0.75-0.72-1.06-1.62-1.06-2.61
			C142.72,58.18,142.73,52.48,142.73,46.73 M143.57,55.05c0,2.6-0.01,5.2,0,7.8c0,0.5,0.03,1.01,0.1,1.51
			c0.15,1.09,0.76,1.84,1.83,2.1c1.9,0.46,3.8,0.22,5.71-0.1c0-0.21,0-0.36,0-0.52c0-8.14,0-16.29,0-24.43c0-0.37,0-0.73-0.02-1.1
			c-0.12-1.64-0.9-2.47-2.51-2.7c-1.71-0.24-3.4-0.05-5.11,0.26C143.57,43.58,143.57,49.26,143.57,55.05z"/>
		<path class="st6" d="M132.37,60.44c-0.43,0.52-0.84,1.07-1.3,1.56c-0.33,0.35-0.43,0.66-0.24,1.12c0.43,1.01,0.8,2.04,1.22,3.05
			c0.11,0.27,0.12,0.43-0.17,0.59c-0.86,0.5-1.7,1.02-2.53,1.56c-0.28,0.18-0.45,0.14-0.66-0.09c-0.75-0.8-1.52-1.58-2.26-2.39
			c-0.26-0.29-0.56-0.33-0.9-0.24c-0.84,0.21-1.68,0.42-2.52,0.63c-0.32,0.08-0.53,0.23-0.62,0.6c-0.24,1.03-0.53,2.05-0.81,3.07
			c-0.05,0.18-0.12,0.36-0.18,0.54c-1.27-0.1-2.49-0.2-3.76-0.3c-0.12-0.94-0.23-1.86-0.35-2.79c-0.04-0.34-0.03-0.71-0.14-1.03
			c-0.07-0.21-0.29-0.43-0.5-0.53c-0.86-0.38-1.74-0.69-2.6-1.08c-0.4-0.18-0.63,0.02-0.89,0.22c-0.91,0.69-1.82,1.39-2.8,2.14
			c-0.93-0.84-1.85-1.67-2.82-2.55c0.49-0.82,0.92-1.67,1.47-2.44c0.49-0.69,0.58-1.24-0.01-1.92c-0.4-0.47-0.67-1.05-0.97-1.6
			c-0.2-0.38-0.46-0.56-0.91-0.54c-1.09,0.06-2.19,0.06-3.28,0.12c-0.36,0.02-0.5-0.12-0.57-0.44c-0.1-0.53-0.22-1.05-0.28-1.62
			c1.7-0.04,3.35-0.05,4.99-0.04c0.86,0.01,1.73,0.07,2.59,0.14c0.97,2.53,4.26,4.99,5.48,5.02c-0.32-0.19-0.55-0.32-0.77-0.5
			c0.22-0.08,0.43-0.16,0.64-0.17C121.42,60.5,126.9,60.47,132.37,60.44z"/>
		<path class="st7" d="M110.8,40.97c-0.41-1.01-0.83-2.02-1.22-3.05c-0.05-0.13,0.04-0.4,0.16-0.48c0.87-0.57,1.76-1.12,2.67-1.63
			c0.12-0.07,0.44,0.03,0.56,0.16c0.77,0.78,1.53,1.57,2.26,2.39c0.3,0.34,0.62,0.37,1.03,0.25c0.72-0.21,1.43-0.42,2.17-0.54
			c0.46-0.08,0.66-0.28,0.75-0.71c0.24-1.15,0.51-2.3,0.74-3.36c1.2,0,2.34,0,3.48,0c0.39,0,0.42,0.32,0.46,0.58
			c0.16,1.06,0.31,2.12,0.45,3.19c0.05,0.37,0.2,0.59,0.56,0.72c0.78,0.29,1.54,0.62,2.32,0.93c0.35,0.14,0.64,0.14,0.96-0.13
			c0.99-0.84,2-1.66,3-2.5c0.98,0.82,1.93,1.62,2.89,2.43c-0.33,0.63-0.65,1.22-1.05,1.84c-6.89,0.02-13.71,0.02-20.53,0.01
			C111.91,41.07,111.35,41.01,110.8,40.97z"/>
		<path class="st8" d="M110.8,41.02c0.55-0.01,1.1,0.06,1.66,0.06c6.82,0.01,13.63,0.01,20.5,0.01c-0.19,0.46-0.4,0.94-0.67,1.38
			c-0.32,0.52-0.32,0.97,0.1,1.41c0.07,0.07,0.11,0.18,0.14,0.33c-0.22,0.08-0.43,0.11-0.63,0.11c-5.95,0.04-11.9,0.07-17.83,0.07
			c0.15-0.17,0.27-0.32,0.42-0.43c2.07-1.53,4.37-2.37,6.96-2.36c0.16,0,0.31-0.02,0.47-0.03c0-0.04,0-0.09,0-0.13
			c-0.16-0.01-0.32-0.05-0.48-0.04c-1.05,0.06-2.12,0.04-3.15,0.23c-2.28,0.41-4.25,1.44-5.76,3.25c-0.46,0.55-0.86,1.17-1.32,1.74
			c-0.3-0.08-0.57-0.18-0.83-0.18c-2.07-0.01-4.13,0-6.2-0.01c-0.19,0-0.39-0.08-0.58-0.12c0.37-0.93,0.75-1.86,1.12-2.8
			c1.24,0.26,2.4,0.49,3.56,0.77c0.37,0.09,0.61-0.02,0.83-0.27c0.53-0.62,1.04-1.26,1.58-1.87
			C110.96,41.78,110.95,41.44,110.8,41.02z"/>
		<path class="st9" d="M132.39,60.41c-5.5,0.06-10.97,0.09-16.44,0.13c-0.21,0-0.42,0.08-0.67,0.16c-0.92-0.74-1.89-1.45-2.66-2.33
			c-0.79-0.89-1.37-1.96-1.57-3.19c0.19-0.04,0.34-0.08,0.49-0.09c0.98-0.04,1.95-0.07,2.95-0.09c0.06,0.08,0.1,0.14,0.13,0.2
			c1.48,2.96,5.02,4.58,8.29,3.37c0.8-0.3,1.53-0.8,2.34-1.2c0.63,0.04,1.22,0.11,1.81,0.11c3.24,0.01,6.48,0.01,9.72,0
			c0.55,0,1.09-0.13,1.64-0.2c-0.42,1.06-0.84,2.13-1.28,3.19c-0.03,0.08-0.23,0.15-0.33,0.13c-1.11-0.2-2.21-0.41-3.31-0.65
			C133.02,59.85,132.67,59.94,132.39,60.41z"/>
		<path class="st10" d="M114.05,44.42c5.95-0.03,11.9-0.07,17.85-0.1c0.21,0,0.41-0.03,0.65-0.08c0.32,0.44,0.62,0.9,0.89,1.38
			c0.25,0.45,0.53,0.64,1.09,0.53c0.6-0.13,1.23-0.11,1.85-0.16c0.43-0.03,0.86-0.06,1.29-0.11c0.34-0.04,0.52,0.08,0.57,0.43
			c0.04,0.25,0.13,0.5,0.16,0.79c-0.28,0.08-0.52,0.14-0.76,0.14c-4,0.01-7.99,0.01-12.02-0.01c-2.23-1.99-4.72-2.52-7.5-1.46
			c-1.52,0.58-2.61,1.67-3.49,3.04c-0.35-0.04-0.66-0.09-0.97-0.1c-0.82-0.01-1.63-0.01-2.45-0.05
			C111.78,46.97,112.69,45.55,114.05,44.42z"/>
		<path class="st11" d="M103.54,46.31c0.22,0.02,0.42,0.1,0.61,0.1c2.07,0.01,4.13,0,6.2,0.01c0.27,0,0.53,0.11,0.82,0.22
			c-0.65,1.39-1.13,2.78-1.25,4.3c-0.14,1.79,0,3.52,0.67,5.2c-0.86-0.04-1.73-0.09-2.59-0.1c-1.65-0.02-3.3-0.01-4.99-0.01
			c-0.15-0.52-0.47-1.17-0.28-1.54c0.2-0.38,0.9-0.5,1.39-0.72c0.65-0.29,1.3-0.59,1.96-0.86c0.31-0.12,0.42-0.3,0.44-0.62
			c0.05-0.85,0.16-1.69,0.17-2.54c0-0.24-0.18-0.57-0.38-0.71c-0.86-0.62-1.74-1.21-2.65-1.77C103.21,47,103.18,46.72,103.54,46.31z
			"/>
		<path class="st12" d="M125.66,47.26c4,0,7.99,0,11.99-0.01c0.24,0,0.48-0.06,0.76-0.1c0.24,0.69,0.46,1.37,0.62,2.08
			c0.03,0.14-0.16,0.4-0.31,0.48c-0.61,0.32-1.25,0.6-1.92,0.85c-0.22-0.08-0.39-0.17-0.56-0.17c-2.93-0.01-5.86-0.01-8.8-0.04
			C127.03,49.18,126.48,48.14,125.66,47.26z"/>
		<path class="st13" d="M138.44,57.28c-0.55,0.09-1.1,0.22-1.64,0.22c-3.24,0.02-6.48,0.01-9.72,0c-0.59,0-1.18-0.07-1.79-0.14
			c0.93-0.96,1.65-2.03,2.11-3.31c2.53,0,5.01,0,7.49,0c-0.1,0.53,0.11,0.86,0.57,1.13c0.99,0.59,1.96,1.22,2.95,1.9
			c0.02,0.08,0.03,0.1,0.03,0.12C138.45,57.21,138.45,57.25,138.44,57.28z"/>
		<path class="st14" d="M134.91,54.02c-2.51,0.03-4.99,0.03-7.52-0.01c0.15-0.9,0.34-1.75,0.16-2.64c-0.06-0.32-0.08-0.65-0.12-0.97
			c2.93,0,5.86,0,8.79,0c0.17,0,0.35,0.08,0.53,0.17c-0.4,0.26-0.81,0.49-1.23,0.69c-0.32,0.15-0.45,0.36-0.46,0.73
			C135.06,52.65,134.99,53.32,134.91,54.02z"/>
		<path class="st9" d="M138.46,57.2c-0.02-0.01-0.02-0.03-0.03-0.08C138.45,57.12,138.47,57.15,138.46,57.2z"/>
		<path class="st15" d="M66.22,53.32c-0.08,1.77,0.03,3.53-0.27,5.21c-0.67,3.74-2.89,6.35-6.45,7.65
			c-4.39,1.6-8.81,1.57-13.04-0.52c-3.54-1.75-5.28-4.8-5.52-8.69c-0.1-1.6-0.04-3.21-0.04-4.81c0-4.57,0-9.14,0-13.71
			c0-0.19,0-0.38,0-0.58c1.78-0.33,3.52-0.51,5.28-0.24c1.35,0.21,2.15,1.04,2.28,2.4c0.05,0.48,0.08,0.97,0.08,1.46
			c0.01,4.74,0.01,9.49,0,14.23c0,1.39,0.22,2.72,1.17,3.81c1.51,1.72,3.43,2.05,5.52,1.44c2-0.58,2.98-2.07,3.26-4.06
			c0.07-0.5,0.08-1.01,0.08-1.51c0.01-5.63,0-11.26,0-16.9c0-0.19,0-0.38,0-0.63c1.92-0.34,3.82-0.6,5.74-0.12
			c1.1,0.28,1.67,1.08,1.81,2.19c0.06,0.5,0.09,1.01,0.09,1.51C66.22,45.39,66.22,49.33,66.22,53.32z"/>
		<path class="st15" d="M171.89,61.06c0,1.79,0,3.54,0,5.36c-0.56,0.07-1.11,0.2-1.65,0.21c-1.2,0.02-2.4,0.07-3.59-0.03
			c-1.43-0.13-2.24-1.05-2.35-2.49c-0.04-0.45-0.04-0.91-0.04-1.36c0-5.94,0-11.89,0-17.83c0-0.9-0.09-1-0.98-1
			c-2.02,0-4.04-0.01-6.07,0.01c-0.33,0-0.49-0.1-0.62-0.4c-0.49-1.17-0.65-2.38-0.45-3.63c0.19-1.2,1.06-1.99,2.29-2.05
			c0.49-0.02,0.98-0.01,1.46-0.01c6.4,0,12.8,0,19.19-0.01c0.38,0,0.57,0.1,0.73,0.47c0.5,1.2,0.63,2.42,0.4,3.69
			c-0.22,1.18-1.06,1.9-2.26,1.92c-1.73,0.03-3.45,0.01-5.18,0.01c-0.77,0-0.87,0.1-0.87,0.88
			C171.89,50.2,171.89,55.61,171.89,61.06z"/>
		<path class="st16" d="M98.04,58.66c-1.4,3.63-3.96,6.07-7.58,7.43c-1.95,0.73-3.96,1.14-6.05,1.15c-1.21,0.01-2.43,0.07-3.64-0.02
			c-2.02-0.16-4.04-0.4-5.95-1.15c-1.35-0.53-2.41-1.6-2.32-3.34c0.06-1.25,0.01-2.51,0.07-3.81c2.15-0.05,4.25-0.05,6.34-0.04
			c0.5,0,1.01,0.07,1.14-0.6c0-0.02,0.06-0.02,0.1,0.02c0,0.74,0.01,1.44,0,2.14c0,0.4,0.18,0.6,0.59,0.64
			c1.31,0.14,2.62,0.38,3.92,0.09c0.95-0.22,1.94-0.44,2.79-0.89c0.79-0.42,1.42-1.13,2.14-1.68c0.18,0.05,0.34,0.08,0.49,0.08
			C92.74,58.66,95.39,58.66,98.04,58.66z"/>
		<path class="st7" d="M72.53,44.32c0-1.39-0.01-2.79-0.01-4.18c0-0.58,0.21-1.12,0.74-1.35c0.93-0.41,1.88-0.84,2.87-1.03
			c1.53-0.29,3.09-0.44,4.64-0.54c1.33-0.09,2.67-0.09,4,0c3.68,0.23,7.14,1.17,9.97,3.69c0.78,0.69,1.37,1.59,2.02,2.44
			c-0.27,0.07-0.51,0.13-0.75,0.14c-3.06,0.01-6.13,0-9.19,0.01c-0.2,0-0.4,0.07-0.63,0.1c-1.8-0.54-3.58-0.48-5.38-0.25
			c-0.52,0.07-0.7,0.29-0.7,0.78c-0.36,0.07-0.67,0.19-0.99,0.2C76.91,44.33,74.72,44.32,72.53,44.32z"/>
		<path class="st17" d="M98.05,58.62c-2.66,0.04-5.31,0.04-7.96,0.04c-0.15,0-0.31-0.03-0.49-0.11c0.67-1.1,1.11-2.24,1.34-3.45
			c0.15-0.83,0.21-1.67,0.35-2.5c2.63,0,5.22,0,7.8,0C99.14,54.65,98.8,56.65,98.05,58.62z"/>
		<path class="st18" d="M80.14,58.24c-0.03,0.01-0.09,0.01-0.09,0.03c-0.13,0.68-0.64,0.61-1.14,0.6c-2.1-0.01-4.19,0-6.34-0.01
			c-0.05-1.78-0.05-3.56,0-5.39c2.2-0.05,4.34-0.06,6.49-0.04c0.41,0,0.78-0.03,1.09-0.27C80.15,54.88,80.14,56.56,80.14,58.24z"/>
		<path class="st19" d="M86.22,43.59c0.2-0.04,0.39-0.1,0.59-0.1c3.06-0.01,6.13,0,9.19-0.01c0.24,0,0.48-0.06,0.76-0.1
			c0.83,0.98,1.18,2.16,1.59,3.32c0.14,0.39,0.22,0.8,0.28,1.26c-0.24,0.08-0.45,0.13-0.65,0.13c-2.46,0-4.91,0-7.39-0.03
			c-0.52-1.06-0.96-2.16-1.9-2.87C87.92,44.59,87.05,44.12,86.22,43.59z"/>
		<path class="st10" d="M72.52,44.37c2.2-0.05,4.39-0.04,6.58-0.06c0.32,0,0.64-0.12,1-0.15c0.04,1.61,0.04,3.19,0,4.76
			c-0.39,0.11-0.74,0.29-1.09,0.3c-2.16,0.03-4.32,0.01-6.48,0.01C72.52,47.63,72.52,46.03,72.52,44.37z"/>
		<path class="st11" d="M90.61,48.09c2.46,0,4.91,0,7.37,0c0.2,0,0.41-0.04,0.66-0.09c0.18,0.98,0.34,1.98,0.44,2.98
			c0.05,0.5,0.01,1,0.01,1.56c-2.59,0.05-5.17,0.05-7.8,0C91.14,51.01,91.06,49.52,90.61,48.09z"/>
		<path class="st20" d="M72.52,49.29c2.17-0.05,4.33-0.03,6.49-0.06c0.35,0,0.7-0.19,1.1-0.25c0.04,1.41,0.04,2.77,0.04,4.13
			c-0.31,0.29-0.68,0.33-1.09,0.32c-2.14-0.02-4.29-0.01-6.48-0.01C72.52,52.06,72.52,50.7,72.52,49.29z"/>
		<path class="st21" d="M143.57,54.99c0-5.74,0-11.42,0-17.12c1.71-0.32,3.4-0.51,5.11-0.26c1.61,0.23,2.39,1.06,2.51,2.7
			c0.03,0.36,0.02,0.73,0.02,1.1c0,8.14,0,16.29,0,24.43c0,0.16,0,0.31,0,0.52c-1.91,0.32-3.81,0.56-5.71,0.1
			c-1.08-0.26-1.68-1.01-1.83-2.1c-0.07-0.5-0.1-1.01-0.1-1.51C143.56,60.24,143.57,57.65,143.57,54.99z"/>
		<path class="st22" d="M110.6,56.18c-0.67-1.71-0.81-3.45-0.67-5.24c0.12-1.52,0.6-2.91,1.28-4.29c0.44-0.62,0.84-1.23,1.3-1.79
			c1.51-1.8,3.48-2.83,5.76-3.25c1.03-0.19,2.1-0.16,3.15-0.23c0.16-0.01,0.32,0.03,0.48,0.04c0,0.04,0,0.09,0,0.13
			c-0.16,0.01-0.31,0.03-0.47,0.03c-2.59-0.01-4.89,0.83-6.96,2.36c-0.15,0.11-0.27,0.27-0.42,0.43c-1.37,1.15-2.29,2.57-2.87,4.31
			c-0.21,0.87-0.46,1.67-0.54,2.48c-0.14,1.35-0.13,2.72,0.36,4.03c0.23,1.21,0.82,2.28,1.61,3.17c0.77,0.88,1.74,1.58,2.65,2.37
			c0.26,0.14,0.49,0.27,0.81,0.46C114.86,61.18,111.58,58.71,110.6,56.18z"/>
		<path class="st2" d="M127.42,50.36c0.06,0.36,0.07,0.69,0.14,1.01c0.18,0.89-0.02,1.75-0.21,2.64c-0.4,1.32-1.13,2.39-2.1,3.35
			c-0.78,0.43-1.51,0.93-2.32,1.23c-3.27,1.21-6.81-0.41-8.29-3.37c-0.03-0.06-0.07-0.12-0.14-0.24c-0.51-1.19-0.79-2.36-0.54-3.58
			c0.18-0.87,0.48-1.72,0.73-2.58c0.83-1.38,1.92-2.46,3.44-3.04c2.78-1.06,5.27-0.53,7.5,1.46
			C126.48,48.14,127.03,49.18,127.42,50.36 M123.47,46.78c-1.1-0.5-2.21-0.76-3.45-0.59c-1.74,0.24-3.14,1.01-4.13,2.43
			c-1.8,2.58-1.41,5.77,0.71,7.8c1.26,1.21,2.81,1.79,4.62,1.62c1.89-0.18,3.37-1,4.45-2.57c0.96-1.39,1.27-2.93,0.92-4.56
			C126.21,49.09,125.22,47.69,123.47,46.78z"/>
		<path class="st20" d="M114.64,48.82c-0.2,0.86-0.51,1.7-0.68,2.58c-0.24,1.22,0.03,2.39,0.51,3.56c-0.97,0.07-1.95,0.11-2.92,0.15
			c-0.15,0.01-0.3,0.04-0.49,0.09c-0.53-1.29-0.54-2.65-0.4-4.01c0.08-0.81,0.34-1.61,0.54-2.44c0.84-0.02,1.66-0.03,2.48-0.02
			C113.98,48.73,114.29,48.79,114.64,48.82z"/>
		<path class="st4" d="M80.14,53.16c0-1.41,0-2.77,0-4.19c0-1.62,0-3.19,0-4.81c-0.04-0.53,0.14-0.75,0.66-0.82
			c1.8-0.23,3.58-0.29,5.38,0.25c0.87,0.53,1.74,1.01,2.52,1.6c0.94,0.71,1.38,1.81,1.9,2.87c0.46,1.47,0.54,2.96,0.64,4.49
			c-0.1,0.88-0.15,1.72-0.3,2.55c-0.22,1.21-0.66,2.35-1.37,3.42c-0.7,0.62-1.33,1.34-2.12,1.75c-0.85,0.45-1.84,0.68-2.79,0.89
			c-1.3,0.3-2.62,0.05-3.92-0.09c-0.4-0.04-0.59-0.25-0.59-0.64c0-0.7,0-1.39,0-2.14C80.14,56.56,80.15,54.88,80.14,53.16
			 M89.47,47.81c-0.17-0.34-0.31-0.71-0.53-1.02c-1.51-2.16-3.71-2.8-6.21-2.78c-0.38,0-0.75,0.1-1.13,0.09
			c-0.44-0.01-0.63,0.12-0.63,0.61c0.02,5.04,0.01,10.07,0.01,15.11c0,0.12,0,0.24,0,0.38c1.34,0.17,2.63,0.28,3.94,0.03
			c2.43-0.45,4.04-1.79,4.85-4.14c0.53-1.53,0.55-3.09,0.51-4.67C90.27,50.2,90.01,49.01,89.47,47.81z"/>
	</g>
	<path class="st1" d="M89.39,48.55c0.41,0.95,0.61,1.92,0.63,2.93c0.03,1.29,0.01,2.57-0.4,3.82c-0.64,1.92-1.91,3.01-3.82,3.38
		c-1.04,0.2-2.05,0.11-3.1-0.03c0-0.11,0-0.21,0-0.31c0-4.11,0.01-8.23-0.01-12.34c0-0.41,0.15-0.5,0.5-0.5
		c0.29,0,0.59-0.07,0.89-0.07c1.96-0.02,3.7,0.5,4.89,2.27C89.12,47.94,89.23,48.24,89.39,48.55z"/>
</g>
</svg>
