<?xml version="1.0" encoding="utf-8"?>
<!-- Generator: Adobe Illustrator 26.5.0, SVG Export Plug-In . SVG Version: 6.00 Build 0)  -->
<svg version="1.1" id="Layer_1" xmlns="http://www.w3.org/2000/svg" xmlns:xlink="http://www.w3.org/1999/xlink" x="0px" y="0px"
	 viewBox="0 0 292 249" style="enable-background:new 0 0 292 249;" xml:space="preserve">
<style type="text/css">
	.st0{fill:#E0B15E;}
	.st1{fill:none;stroke:#000000;stroke-width:4;stroke-miterlimit:10;}
	.st2{fill:#FFFFFF;stroke:#000000;stroke-width:4;stroke-linecap:round;stroke-linejoin:round;stroke-miterlimit:10;}
	.st3{fill:#F5CD69;stroke:#000000;stroke-width:4;stroke-miterlimit:10;}
	.st4{fill:#F5CD69;stroke:#000000;stroke-width:0.5;stroke-miterlimit:10;}
</style>
<g id="Layer_2_00000018220428343978538930000003742065307678232223_">
	<g>
		<path class="st0" d="M4,105.5V18.7C4,11,10.2,4.8,17.8,4.8h111.4c4.3,0,8.3,2,10.9,5.3l16.2,20.9c0.3,0.4,1.1,0.8,1.6,0.8h115.5
			c7.6,0,13.8,6.2,13.8,13.8v59.8"/>
		<path class="st1" d="M4,105.5V18.7C4,11,10.2,4.8,17.8,4.8h111.4c4.3,0,8.3,2,10.9,5.3l16.2,20.9c0.3,0.4,1.1,0.8,1.6,0.8h115.5
			c7.6,0,13.8,6.2,13.8,13.8v59.8"/>
	</g>
	<g>
		<polyline class="st2" points="23.3,111 23.3,44.2 271.3,44.2 271.3,111 23.3,111 		"/>
		<line class="st1" x1="23.3" y1="59.5" x2="46" y2="59.5"/>
		<line class="st1" x1="72.3" y1="59.5" x2="271.3" y2="59.5"/>
	</g>
	<g>
		<path class="st3" d="M18.9,84.8h138.4l28-28c2.8-2.8,6.6-4.4,10.6-4.4h76.5c8.3,0,15,6.7,15,15v161.8c0,8.3-6.7,15-15,15H18.9
			c-8.3,0-14.9-6.7-14.9-15V99.8C4,91.5,10.7,84.8,18.9,84.8z"/>
	</g>
	<path class="st4" d="M4,12.8"/>
	<path class="st3" d="M266.5,242"/>
	<path class="st0" d="M266.5,242.2c0.1-31.3,0.2-62.5,0.3-93.8c0.1-31.3,0.2-62.5,0.3-93.8c0.2,0,2.8,0,3,0c2.8,0,3.2,0,3.8,0
		c0.5,0,2.1,0.2,4,1.1c3.1,1.4,4.8,3.7,5.2,4.4c1.9,2.8,2.2,5.5,2.2,6.7c0.5,89.2,0.4,154.5,0,162.8c-0.1,2.5-0.6,6.2-3.3,9
		c-3,3.2-6.8,3.7-7.8,3.8C271.6,242.3,269.1,242.2,266.5,242.2z"/>
	<path class="st0" d="M330,219.2"/>
</g>
</svg>
