<svg id="Layer_2" data-name="Layer 2" xmlns="http://www.w3.org/2000/svg" viewBox="0 0 1026.5 734.7345"><title>techrangers-robot-wave-vector</title><path d="M518,161.7345" transform="translate(0)" style="fill:#000000"/><path d="M400.5682,91.2022S416.0109,2.537,429.6317,5.9244s30.147,36.7173,36.3124,47.9417S485.6417,80.643,505.1735,85.06s66.1452-30.0968,80.8013-55.9657S611.6837-1.955,620.3786.5745s32.9752,32.1346,39.2236,54.539,13.3933,57.1457,10.9911,70.938l-4.8044,27.5848s26.0848,7.5883,48.1017,9.3928,78.9022,1.5617,78.9022,1.5617,5.3076,16.15,4.1065,23.0464l-3.26,18.7182S590.44,160.8139,523.3211,144.0486s-256.3542-60.89-256.3542-60.89-.9408-6.2542,3.0886-17.7331a72.3087,72.3087,0,0,1,10.5-19.4874S314.4768,60.982,338.89,72.3394,400.5682,91.2022,400.5682,91.2022Z" transform="translate(0)" style="fill:#000000"/><path d="M989,295.2345a37.431,37.431,0,0,0-12.042,1.9873C937.2355,270.9725,869.1213,225.8559,867,223.7345c-3-3,1-12,1-12s9-39,9-43-17-25-25-36-15-18-19-19-11,2-11,2-45,21-47,23c0,0-20.5,10.5-19.5,14.5s4,5,10,8,14.5,3.5,14.5,3.5,10.5-5.5,15.5-10.5,14-9,18-8,9,7,13,12,10,14,10,14,0,8-1,18-5,38-5,38-15,7-18,7-10-3-15-10-10-18-12-20-8,0-15,6-10,8-10,13,12.5,14.5,24,23,27,14,31,15,14-2,23-6,11-9,14-10,6,3,6,3l96.12,68.5211a37.5484,37.5484,0,0,0-1.8608,24.6268L861.757,400.578a34.5032,34.5032,0,0,0-48.4477,16.5107c-21.2941-.2776-62.8093-.8542-62.8093-.8542l-7-186s-141-11-217-14-213,6-213,6v100c0,59-5,100-5,100l-62.4948-2.9759a36.0174,36.0174,0,0,0-47.5921-15.9834L71.2422,320.104a36.0245,36.0245,0,0,0-6.059-28.4375L150.5933,151c2.8715.0834,7.3528.2254,10.9819.3943,5.8246.2709,27.701-1.2866,31.2229-3.183s12.801-20.5215,18.6258-35.0153,7.5182-32.4419,6.0282-37.3184S213.56,71.3713,208,71.7345s-12.6273-1.0048-15.0994,3.5442-3.3527,9.9448-4.3687,20.7136-2.4386,22.8922-5.08,24.3145-14.6971,2.2349-17.88.5416-10.2268-12.6654-18.625-24.0439-15.7127-31.2907-16.2544-34.4063,3.3188-8.6014,6.2989-13.6133,8.737-6.976,13.6135-8.4659,20.9959-1.0834,26.3464-1.6929,8.3307-5.6214,11.7173-11.9878a24.04,24.04,0,0,0,3.1833-13.0716c-.0677-2.2351-3.6573-2.5737-10.8365-3.2511s-14.2908.88-29.462,2.2347-37.3862,6.5015-41.7886,8.8719-5.3507,15.3743-7.7891,23.5017S93.983,76.4853,94.9989,80.4814s3.3864,8.3983,9.0077,16.729c5.139,7.6157,18.421,25.0706,20.6642,28.0122L32.5748,276.901a35.9992,35.9992,0,1,0,19.0874,68.2555L178.1793,432.14c-.1172,1.1825-.1793,2.3814-.1793,3.5947A36.0056,36.0056,0,0,0,208.674,471.34L223,734.7345H825l24.7065-269.8279a34.5275,34.5275,0,0,0,28.682-25.4607l108.2681-69.2916c.7758.0479,1.5556.08,2.3434.08a37.5,37.5,0,0,0,0-75Z" transform="translate(0)" style="fill:#000000"/><circle cx="254.3" cy="458.2345" r="7" style="fill:#fff"/><circle cx="254.3" cy="505.2345" r="7" style="fill:#fff"/><circle cx="254.3" cy="553.2345" r="7" style="fill:#fff"/><circle cx="254.3" cy="599.2345" r="7" style="fill:#fff"/><circle cx="254.3" cy="645.2345" r="7" style="fill:#fff"/><circle cx="798.3" cy="452.2345" r="7" style="fill:#fff"/><circle cx="798.3" cy="505.2345" r="7" style="fill:#fff"/><circle cx="798.3" cy="555.2345" r="7" style="fill:#fff"/><circle cx="798.3" cy="605.2345" r="7" style="fill:#fff"/><circle cx="798.3" cy="656.2345" r="7" style="fill:#fff"/><circle cx="300.3164" cy="462.6452" r="7" style="fill:#fff"/><circle cx="350.3127" cy="464.0402" r="7" style="fill:#fff"/><circle cx="400.3091" cy="466.4351" r="7" style="fill:#fff"/><circle cx="450.3054" cy="466.83" r="7" style="fill:#fff"/><circle cx="500.3018" cy="467.225" r="7" style="fill:#fff"/><circle cx="550.2981" cy="465.6199" r="7" style="fill:#fff"/><circle cx="600.2944" cy="464.0148" r="7" style="fill:#fff"/><circle cx="650.2908" cy="463.4098" r="7" style="fill:#fff"/><circle cx="700.2871" cy="458.8047" r="7" style="fill:#fff"/><circle cx="748.2836" cy="458.2239" r="7" style="fill:#fff"/><circle cx="653" cy="529.7345" r="11" style="fill:#fff"/><circle cx="710" cy="492.7345" r="11" style="fill:#fff"/><circle cx="764" cy="532.7345" r="11" style="fill:#fff"/><circle cx="741" cy="597.7345" r="11" style="fill:#fff"/><circle cx="671.3274" cy="596.6039" r="11" style="fill:#fff"/><polygon points="741.224 599.068 707.171 572.444 671.327 596.604 686.125 555.99 652.072 529.367 695.27 530.89 710.068 490.276 721.968 531.831 765.167 533.354 729.323 557.513 741.224 599.068" style="fill:#fff"/><path d="M340,305.7345s96,4,177,5,195,2,195,2,4,28,5,47,4,50,4,50l-380,2Z" transform="translate(0)" style="fill:#fff"/><circle cx="656" cy="271.7345" r="25.5" style="fill:#fff"/><circle cx="411" cy="267.7345" r="25.5" style="fill:#fff"/><circle cx="255.3" cy="695.2345" r="7" style="fill:#fff"/><circle cx="796.3" cy="707.2345" r="7" style="fill:#fff"/><polygon points="529.901 396.988 502.075 330.405 458.282 394.567 450.32 341.815 430.61 372.786 414.259 350.304 398.395 366.168 360.662 369.228 360.338 365.241 396.605 362.301 414.741 344.165 430.39 365.683 452.68 330.654 460.718 383.903 502.925 322.064 531.099 389.481 550.285 367.266 557.355 388.477 587.939 356.906 598.041 375.09 613.734 361.243 614.478 361.235 704.478 360.235 704.522 364.235 615.266 365.226 596.959 381.379 587.061 363.563 555.645 395.992 548.715 375.203 529.901 396.988"/></svg>
