<svg id="Layer_2" data-name="Layer 2" xmlns="http://www.w3.org/2000/svg" viewBox="0 0 599.52 596.54"><defs><style>.cls-1{fill:#FFC904;}</style></defs><title>blackboard</title><path class="cls-1" d="M506.17,393.54H89.83A30.86,30.86,0,0,1,59,362.71V77.36A30.86,30.86,0,0,1,89.83,46.54H506.17A30.86,30.86,0,0,1,537,77.36V362.71A30.86,30.86,0,0,1,506.17,393.54ZM89.83,68.54A8.84,8.84,0,0,0,81,77.36V362.71a8.84,8.84,0,0,0,8.83,8.83H506.17a8.84,8.84,0,0,0,8.83-8.83V77.36a8.84,8.84,0,0,0-8.83-8.82Z"/><path class="cls-1" d="M388,116.54H207a11,11,0,0,1,0-22H388a11,11,0,0,1,0,22Z"/><path class="cls-1" d="M267,160.54H114a11,11,0,1,1,0-22H267a11,11,0,0,1,0,22Z"/><path class="cls-1" d="M482,160.54H355a11,11,0,0,1,0-22H482a11,11,0,0,1,0,22Z"/><path class="cls-1" d="M321,160.54H306a11,11,0,0,1,0-22h15a11,11,0,0,1,0,22Z"/><path class="cls-1" d="M487,206.54H113a11,11,0,1,1,0-22H487a11,11,0,0,1,0,22Z"/><path class="cls-1" d="M182,252.54H110a11,11,0,1,1,0-22h72a11,11,0,0,1,0,22Z"/><path class="cls-1" d="M234,252.54H216a11,11,0,0,1,0-22h18a11,11,0,0,1,0,22Z"/><path class="cls-1" d="M333,252.54H266a11,11,0,0,1,0-22h67a11,11,0,0,1,0,22Z"/><path class="cls-1" d="M382,252.54H367a11,11,0,0,1,0-22h15a11,11,0,0,1,0,22Z"/><path class="cls-1" d="M486,252.54H416a11,11,0,0,1,0-22h70a11,11,0,0,1,0,22Z"/><path class="cls-1" d="M271,301.54H109a11,11,0,0,1,0-22H271a11,11,0,0,1,0,22Z"/><path class="cls-1" d="M321,301.54H303a11,11,0,0,1,0-22h18a11,11,0,0,1,0,22Z"/><path class="cls-1" d="M589,527.34V29.07A29.1,29.1,0,0,0,559.93,0H40.07A29.1,29.1,0,0,0,11,29.07v498A18.06,18.06,0,0,0,0,543.7v34.82a18,18,0,0,0,18,18H581.5a18,18,0,0,0,18-18V543.7A18,18,0,0,0,589,527.34ZM33,29.07A7.08,7.08,0,0,1,40.07,22H559.93A7.08,7.08,0,0,1,567,29.07V525.68H541V448.51a31,31,0,0,0-31-31H91a31,31,0,0,0-31,31v77.17H33ZM515,444.48v18.11a3,3,0,0,1-3,3H402a3,3,0,0,1-2.95-3V444.48a3,3,0,0,1,2.95-2.94h110.1A3,3,0,0,1,515,444.48ZM91.52,574.54H22V547.68H91.52Zm4-48.86H88v-1.14H82v-76a9,9,0,0,1,9-9H377.49a25.16,25.16,0,0,0-.49,4.94v18.11a25,25,0,0,0,24.95,25h110.1a25,25,0,0,0,7-1v38h-7.42v1.14H504a18,18,0,0,0-18,18v30.84H113.52V543.7A18,18,0,0,0,95.5,525.68Zm482,48.86H508V547.68h69.52Z"/></svg>
