<svg id="Layer_4" data-name="Layer 4" xmlns="http://www.w3.org/2000/svg" viewBox="0 0 591.57 596"><defs><style>.cls-1{fill:#FFC904;}</style></defs><title>coding</title><path class="cls-1" d="M114.46,39A18.47,18.47,0,0,0,96,57.46V231.54A18.47,18.47,0,0,0,114.46,250H430.54A18.47,18.47,0,0,0,449,231.54V57.46A18.47,18.47,0,0,0,430.54,39ZM432,221.63A11.37,11.37,0,0,1,420.63,233H124.37A11.37,11.37,0,0,1,113,221.63V67.37A11.37,11.37,0,0,1,124.37,56H420.63A11.37,11.37,0,0,1,432,67.37Z"/><path class="cls-1" d="M198.5,540.5h-99a8.5,8.5,0,0,0,0,17h99a8.5,8.5,0,0,0,0-17Z"/><path class="cls-1" d="M74.5,540.5h-21a8.5,8.5,0,0,0,0,17h21a8.5,8.5,0,0,0,0-17Z"/><path class="cls-1" d="M275.59,75.07a8.5,8.5,0,0,0-9.52,7.34l-16,124a8.5,8.5,0,0,0,7.34,9.52,8.23,8.23,0,0,0,1.1.07,8.5,8.5,0,0,0,8.42-7.41l16-124A8.5,8.5,0,0,0,275.59,75.07Z"/><path class="cls-1" d="M221.56,84.67a8.51,8.51,0,0,0-11.89,1.77l-43.71,59,40.66,56a8.5,8.5,0,0,0,13.76-10l-33.34-46,36.29-49A8.51,8.51,0,0,0,221.56,84.67Z"/><path class="cls-1" d="M535.24,325H164v.76a8.4,8.4,0,0,0-2.4,1.62l-51.26,49.37a12,12,0,0,0,.44,17.65l51.14,44.51a8.25,8.25,0,0,0,2.08,1.33V441H535.24a56.33,56.33,0,0,0,56.33-56.33v-3.34A56.33,56.33,0,0,0,535.24,325ZM164,418.19l-37.92-33L164,348.67ZM493,424H467V344h26Zm-312,0V390H428.5a8.5,8.5,0,0,0,0-17H181V342H450v82Zm393.57-39.33A39.33,39.33,0,0,1,535.24,424H510V342h25.24a39.33,39.33,0,0,1,39.33,39.33Z"/><path class="cls-1" d="M320.51,86.62a8.5,8.5,0,0,0-1.89,11.87l33.34,46-36.29,49a8.5,8.5,0,0,0,13.66,10.12l43.71-59-40.66-56A8.5,8.5,0,0,0,320.51,86.62Z"/><path class="cls-1" d="M480.5,461.67a8.5,8.5,0,0,0-8.5,8.5V497H49.36A49.77,49.77,0,0,0,17,509V57.8A40.8,40.8,0,0,1,57.8,17a.2.2,0,0,1,.2.2V474.14a8.51,8.51,0,1,0,17,0V17.2a.2.2,0,0,1,.2-.2H471.8a.2.2,0,0,1,.2.2v282a8.5,8.5,0,1,0,17,0V8.64A8.64,8.64,0,0,0,480.36,0H57.8A57.8,57.8,0,0,0,0,57.8V538.2A57.8,57.8,0,0,0,57.8,596H461.3a.19.19,0,0,0,.15-.08h8.29c.92.05,1.83.08,2.76.08v-.08h7.38a8.5,8.5,0,0,0,0-17h-9.55A31.54,31.54,0,0,1,441,547.5c0-17.37,14.13-33.5,31.5-33.5h7.69a8.32,8.32,0,0,0,2-.25,8.51,8.51,0,0,0,6.8-8.33V470.17A8.5,8.5,0,0,0,480.5,461.67ZM435.67,579H57.8a40.82,40.82,0,0,1-40.61-36.86A31.55,31.55,0,0,1,48.5,514H436.61A51.57,51.57,0,0,0,424,547.5,48.24,48.24,0,0,0,435.67,579Z"/></svg>
