<svg id="Layer_3" data-name="Layer 3" xmlns="http://www.w3.org/2000/svg" viewBox="0 0 591.67 595"><defs><style>.cls-1{fill:#FFC904;}</style></defs><title>worker</title><path class="cls-1" d="M185.83,50.67H82.5a8.5,8.5,0,0,0-8.5,8.5V112.5a8.51,8.51,0,0,0,8.5,8.5H124v17.09a4.05,4.05,0,0,0,.07.7L75.12,171.43A8.49,8.49,0,0,0,76,186.06l48,24.63V238H79.83a8.51,8.51,0,0,0-8.5,8.5v52a8.51,8.51,0,0,0,8.5,8.5H185.17a8.51,8.51,0,0,0,8.5-8.5V282h34.16a8.5,8.5,0,1,0,0-17H193.67V246.5a8.51,8.51,0,0,0-8.5-8.5H141V211.16l45.7-25.93a8.51,8.51,0,0,0,.81-14.27c-6.83-5-37.45-27.28-46.51-33.79V121h44.83a8.5,8.5,0,0,0,8.5-8.5V93.67H500.76v87.5a8.46,8.46,0,1,0,16.91,0v-96a8.48,8.48,0,0,0-8.46-8.5H194.33V59.17A8.49,8.49,0,0,0,185.83,50.67ZM176.67,290H88.33V255h88.34ZM133,196.18,96.6,177.54l37.06-24.71c7,5,20.66,15,33.18,24.12ZM177.33,104H91V67.67h86.33Z"/><path class="cls-1" d="M41.83,374.56a8.5,8.5,0,0,0-8.5,8.5v54.66a8.5,8.5,0,0,0,8.5,8.5h144a8.49,8.49,0,0,0,8.5-8.5V383.06a8.49,8.49,0,0,0-8.5-8.5Zm135.5,54.66h-127V391.56h127Z"/><path class="cls-1" d="M213.33,410.39a35.84,35.84,0,1,0,35.84-35.83A35.87,35.87,0,0,0,213.33,410.39Zm54.67,0a18.84,18.84,0,1,1-18.83-18.83A18.86,18.86,0,0,1,268,410.39Z"/><path class="cls-1" d="M522.83,446.22A35.83,35.83,0,1,0,487,410.39,35.87,35.87,0,0,0,522.83,446.22Zm0-54.66A18.83,18.83,0,1,1,504,410.39,18.85,18.85,0,0,1,522.83,391.56Z"/><path class="cls-1" d="M195.17,466H31.05A14.06,14.06,0,0,1,17,452V357.33H246.17a8.5,8.5,0,1,0,0-17H17V31.05A14.06,14.06,0,0,1,31.05,17H91.17V0H31.05A31.09,31.09,0,0,0,0,31.05V452A31.09,31.09,0,0,0,31.05,483H195.17a8.5,8.5,0,0,0,0-17Z"/><path class="cls-1" d="M560.62,0H115.17V17H560.62a14.07,14.07,0,0,1,14,14.05V340.33H517.83a8.5,8.5,0,0,0,0,17h56.84V452a14.07,14.07,0,0,1-14,14.05,8.5,8.5,0,1,0,0,17,31.09,31.09,0,0,0,31-31.05V31.05A31.09,31.09,0,0,0,560.62,0Z"/><path class="cls-1" d="M547.05,475.12c-5.47-4.25-17.09-9.6-38.86-17.9-11.45-4.36-47.24-14.45-61.86-18.52V411.87c9.16-7.49,33.64-27.87,39.75-36.43,8.73-12.22,12.23-66.11,12.82-96.64a7.77,7.77,0,0,0,1-.24c2-.66,19.42-6.88,20.46-21.45.74-10.3-9.57-18.65-18.66-26-2.79-2.26-7-5.67-7.86-7-1.43-2.39-4.63-13.5-7-21.61-3.12-10.83-6.34-22-9.3-28.31-5.81-12.36-14.13-21-24.82-30.16C442.46,135.27,422.28,128,420,127.16a8.36,8.36,0,0,0-2.84-.49H348.5a8.56,8.56,0,0,0-2.79.47C345,127.37,329,133,318.14,141a116.43,116.43,0,0,0-29.63,32.54c-3.67,6.23-6.86,16.24-10.24,26.83-2.49,7.77-6.24,19.52-8.35,22.1-1.24,1.52-4.16,3.72-7,5.86-8.27,6.25-19.61,14.82-19.61,28.19,0,15.74,13.63,22.07,22.78,22.49h.67c1,32,9.12,82,15.54,94.14,5.81,11,32.65,31.09,43.68,39.06v26.74c-13.5,4.28-46,14.63-57.74,18.91-19.55,7.11-44.4,16.81-51.74,22.68-7.55,6-15.19,16.9-15.19,26v80a8.51,8.51,0,0,0,8.5,8.5h224V578H298.33V543.83a8.5,8.5,0,0,0-17,0V578h-63V506.51c.06-2,3.44-8.41,8.81-12.71,3.33-2.66,19.13-9.87,46.93-20,13-4.74,54.05-17.72,61.74-20.15H436.68c7.68,2.12,53.09,14.73,65.46,19.44,7.09,2.7,28.68,10.92,34.47,15.43,2.45,1.91,7.64,10.46,11.39,17.94V578H488.33V543.5a8.5,8.5,0,0,0-17,0V578h-19.5v17H556.5a8.51,8.51,0,0,0,8.5-8.5v-82a8.55,8.55,0,0,0-.84-3.69C561.92,496.17,554.08,480.59,547.05,475.12ZM263,260.9a4.19,4.19,0,0,1-2.64-4.4c0-4.91,7.13-10.3,12.86-14.63,3.79-2.86,7.36-5.56,9.89-8.65,3.88-4.75,6.89-13.63,11.38-27.7,2.81-8.8,6-18.79,8.7-23.38a98.26,98.26,0,0,1,25-27.45,72.54,72.54,0,0,1,11.14-6.46v55.6a8.5,8.5,0,0,0,17,0V143.67h56.34v60.16a8.5,8.5,0,0,0,17,0V149.68a60.93,60.93,0,0,1,12,7.27c9,7.75,16,14.87,20.51,24.5,2.38,5.05,5.55,16.06,8.35,25.78,3.81,13.24,6.27,21.56,8.72,25.64,2.26,3.76,6.65,7.32,11.74,11.44,3.66,3,11.15,9,12.34,11.91-.53,1.75-4.27,4.36-7.67,5.78h-1.81a8.51,8.51,0,0,0-6.62,0H266.8A12.62,12.62,0,0,1,263,260.9Zm80,175.77V416.33h35.5v-17H337.22c-17.3-12.4-36.88-28.49-39.87-34.14-4.45-8.39-12.52-54.52-13.57-86.19H481.92c-.69,40.05-5.68,80.51-9.67,86.56-4.11,5.76-24.21,23-37.43,33.77h-35v17h29.5v20.34Z"/></svg>
