<svg xmlns="http://www.w3.org/2000/svg" xmlns:xlink="http://www.w3.org/1999/xlink" xmlns:fi="http://pattern.flaticon.com/" x="0" y="0" width="1920" height="1080" viewBox="0 0 1920 1080"><rect x="0px" y="0px" width="100%" height="100%" opacity="1" fill="#ffc904"/><defs><g transform="matrix(0.08107396215200424 0 0 0.08107396215200424 181.2450656890869 124.24506568908691)" id="L1_1"><path d="M413.2,342.1H299.5c-6.8,0-12.3,5.5-12.3,12.3l-0.1,2.3l-62.5-0.1v-2.2c0-6.8-5.5-12.3-12.3-12.3H98.8   c-6.8,0-12.3,5.5-12.3,12.3c0,6.8,5.5,12.3,12.3,12.3h103.5c3.9,8.5,12.5,14.5,22.4,14.5h62.4c10,0,18.6-6,22.4-14.5h103.6   c6.8,0,12.3-5.5,12.3-12.3C425.5,347.6,420,342.1,413.2,342.1z" fill="#ffffff"/><path d="M488.2,342.1h-23.2V119.4c0-0.4,0-0.8-0.1-1.2c-1.7-17.6-16-30.9-33.1-30.9H79c-17.7,0-32.1,14.4-32.1,32.1v222.7H23.8   c-6.8,0-12.3,5.5-12.3,12.3v23.2c0,26,21.1,47.1,47.1,47.1h394.6c26,0,47.1-21.1,47.1-47.1v-23.2   C500.5,347.6,495,342.1,488.2,342.1z M476,377.6c0,12.5-10.2,22.6-22.6,22.6H58.7C46.2,400.2,36,390,36,377.6v-10.9h23.1   c6.8,0,12.3-5.5,12.3-12.3v-235c0-4.2,3.4-7.6,7.6-7.6h352.8c4.3,0,8,3.6,8.7,8.3v234.2c0,6.8,5.6,12.3,12.3,12.3H476V377.6z" fill="#ffffff"/><path d="M308.6,292.3c2.4,2.9,5.9,4.3,9.4,4.3c2.8,0,5.6-1,7.9-2.9l61.2-51.9c2.7-2.3,4.3-5.7,4.3-9.4c0-3.6-1.6-7-4.3-9.3   l-61.2-51.8c-5.2-4.4-12.9-3.7-17.3,1.4c-4.4,5.2-3.7,12.9,1.4,17.3l50.2,42.5L310,275C304.9,279.4,304.2,287.2,308.6,292.3z" fill="#ffffff"/><path d="M186,293.7c2.3,2,5.1,2.9,7.9,2.9c3.5,0,6.9-1.5,9.3-4.3c4.4-5.2,3.8-12.9-1.4-17.3l-50.1-42.6l50.1-42.5   c5.2-4.4,5.8-12.1,1.4-17.3c-4.4-5.2-12.1-5.8-17.3-1.4l-61.2,51.8c-2.7,2.3-4.3,5.7-4.3,9.3c0,3.6,1.6,7,4.3,9.3L186,293.7z" fill="#ffffff"/><path d="M225.3,308.7c1.5,0.6,3,0.9,4.5,0.9c4.9,0,9.5-2.9,11.4-7.7l51.9-129.7c2.5-6.3-0.5-13.4-6.8-15.9   c-6.3-2.5-13.4,0.5-15.9,6.8l-51.9,129.7C215.9,299.1,219,306.2,225.3,308.7z" fill="#ffffff"/></g><g transform="matrix(0.07106822729110718 0 0 0.07106822729110718 264.9706366658211 41.9706612721298)" id="L1_3"><path d="M454.2,189.101l-33.6-5.7c-3.5-11.3-8-22.2-13.5-32.6l19.8-27.7c8.4-11.8,7.1-27.9-3.2-38.1l-29.8-29.8    c-5.6-5.6-13-8.7-20.9-8.7c-6.2,0-12.1,1.9-17.1,5.5l-27.8,19.8c-10.8-5.7-22.1-10.4-33.8-13.9l-5.6-33.2    c-2.4-14.3-14.7-24.7-29.2-24.7h-42.1c-14.5,0-26.8,10.4-29.2,24.7l-5.8,34c-11.2,3.5-22.1,8.1-32.5,13.7l-27.5-19.8    c-5-3.6-11-5.5-17.2-5.5c-7.9,0-15.4,3.1-20.9,8.7l-29.9,29.8c-10.2,10.2-11.6,26.3-3.2,38.1l20,28.1    c-5.5,10.5-9.9,21.4-13.3,32.7l-33.2,5.6c-14.3,2.4-24.7,14.7-24.7,29.2v42.1c0,14.5,10.4,26.8,24.7,29.2l34,5.8    c3.5,11.2,8.1,22.1,13.7,32.5l-19.7,27.4c-8.4,11.8-7.1,27.9,3.2,38.1l29.8,29.8c5.6,5.6,13,8.7,20.9,8.7c6.2,0,12.1-1.9,17.1-5.5    l28.1-20c10.1,5.3,20.7,9.6,31.6,13l5.6,33.6c2.4,14.3,14.7,24.7,29.2,24.7h42.2c14.5,0,26.8-10.4,29.2-24.7l5.7-33.6    c11.3-3.5,22.2-8,32.6-13.5l27.7,19.8c5,3.6,11,5.5,17.2,5.5l0,0c7.9,0,15.3-3.1,20.9-8.7l29.8-29.8c10.2-10.2,11.6-26.3,3.2-38.1    l-19.8-27.8c5.5-10.5,10.1-21.4,13.5-32.6l33.6-5.6c14.3-2.4,24.7-14.7,24.7-29.2v-42.1    C478.9,203.801,468.5,191.501,454.2,189.101z M451.9,260.401c0,1.3-0.9,2.4-2.2,2.6l-42,7c-5.3,0.9-9.5,4.8-10.8,9.9    c-3.8,14.7-9.6,28.8-17.4,41.9c-2.7,4.6-2.5,10.3,0.6,14.7l24.7,34.8c0.7,1,0.6,2.5-0.3,3.4l-29.8,29.8c-0.7,0.7-1.4,0.8-1.9,0.8    c-0.6,0-1.1-0.2-1.5-0.5l-34.7-24.7c-4.3-3.1-10.1-3.3-14.7-0.6c-13.1,7.8-27.2,13.6-41.9,17.4c-5.2,1.3-9.1,5.6-9.9,10.8l-7.1,42    c-0.2,1.3-1.3,2.2-2.6,2.2h-42.1c-1.3,0-2.4-0.9-2.6-2.2l-7-42c-0.9-5.3-4.8-9.5-9.9-10.8c-14.3-3.7-28.1-9.4-41-16.8    c-2.1-1.2-4.5-1.8-6.8-1.8c-2.7,0-5.5,0.8-7.8,2.5l-35,24.9c-0.5,0.3-1,0.5-1.5,0.5c-0.4,0-1.2-0.1-1.9-0.8l-29.8-29.8    c-0.9-0.9-1-2.3-0.3-3.4l24.6-34.5c3.1-4.4,3.3-10.2,0.6-14.8c-7.8-13-13.8-27.1-17.6-41.8c-1.4-5.1-5.6-9-10.8-9.9l-42.3-7.2    c-1.3-0.2-2.2-1.3-2.2-2.6v-42.1c0-1.3,0.9-2.4,2.2-2.6l41.7-7c5.3-0.9,9.6-4.8,10.9-10c3.7-14.7,9.4-28.9,17.1-42    c2.7-4.6,2.4-10.3-0.7-14.6l-24.9-35c-0.7-1-0.6-2.5,0.3-3.4l29.8-29.8c0.7-0.7,1.4-0.8,1.9-0.8c0.6,0,1.1,0.2,1.5,0.5l34.5,24.6    c4.4,3.1,10.2,3.3,14.8,0.6c13-7.8,27.1-13.8,41.8-17.6c5.1-1.4,9-5.6,9.9-10.8l7.2-42.3c0.2-1.3,1.3-2.2,2.6-2.2h42.1    c1.3,0,2.4,0.9,2.6,2.2l7,41.7c0.9,5.3,4.8,9.6,10,10.9c15.1,3.8,29.5,9.7,42.9,17.6c4.6,2.7,10.3,2.5,14.7-0.6l34.5-24.8    c0.5-0.3,1-0.5,1.5-0.5c0.4,0,1.2,0.1,1.9,0.8l29.8,29.8c0.9,0.9,1,2.3,0.3,3.4l-24.7,34.7c-3.1,4.3-3.3,10.1-0.6,14.7    c7.8,13.1,13.6,27.2,17.4,41.9c1.3,5.2,5.6,9.1,10.8,9.9l42,7.1c1.3,0.2,2.2,1.3,2.2,2.6v42.1H451.9z" fill="#ffffff"/><path d="M239.4,136.001c-57,0-103.3,46.3-103.3,103.3s46.3,103.3,103.3,103.3s103.3-46.3,103.3-103.3S296.4,136.001,239.4,136.001    z M239.4,315.601c-42.1,0-76.3-34.2-76.3-76.3s34.2-76.3,76.3-76.3s76.3,34.2,76.3,76.3S281.5,315.601,239.4,315.601z" fill="#ffffff"/></g><g transform="matrix(0.10362769663333893 0 0 0.10362769663333893 78.41964876651764 22.41964876651764)"><path d="M394.583,8.054c-0.422-3.413-3.11-6.101-6.522-6.523c-30.748-3.803-62.477-0.488-91.767,9.583     c-29.293,10.072-56.355,26.973-78.258,48.876l-49.983,49.983l-72.149,9.305c-1.645,0.212-3.172,0.963-4.345,2.135l-69.563,69.563     c-1.969,1.969-2.685,4.868-1.858,7.528c0.825,2.66,3.058,4.643,5.796,5.15l52.597,9.742l10.335,10.335l-22.003,11.915     c-2.082,1.127-3.51,3.172-3.851,5.515s0.444,4.709,2.118,6.383l83.438,83.438c1.417,1.417,3.329,2.197,5.304,2.197     c0.358,0,0.72-0.026,1.08-0.078c2.343-0.341,4.388-1.769,5.515-3.851l11.916-22.003l10.335,10.335l9.742,52.597     c0.508,2.739,2.49,4.971,5.15,5.797c0.731,0.227,1.48,0.337,2.224,0.337c1.96,0,3.876-0.769,5.305-2.197l69.563-69.563     c1.172-1.172,1.923-2.7,2.135-4.344l9.306-72.15l49.983-49.984c21.903-21.903,38.804-48.964,48.876-78.257     C395.072,70.528,398.385,38.795,394.583,8.054z M79.674,198.355l-36.989-6.851l57.673-57.675l50.332-6.491L79.674,198.355z      M152.065,313.268L82.846,244.05l17.085-9.252l61.385,61.386L152.065,313.268z M262.285,295.756l-57.674,57.674l-6.852-36.988     l71.017-71.017L262.285,295.756z M325.517,167.471l-135.85,135.85l-96.874-96.874l135.85-135.851     c19.738-19.739,44.002-35.076,70.287-44.49c3.395,17.492,11.948,33.719,24.654,46.424c12.705,12.706,28.931,21.259,46.424,24.655     C360.593,123.468,345.255,147.732,325.517,167.471z M374.523,82.774c-15.203-2.593-29.345-9.863-40.333-20.85     c-10.988-10.987-18.257-25.13-20.85-40.333c21.741-5.859,44.579-7.857,66.99-5.807C382.381,38.195,380.382,61.033,374.523,82.774     z" fill="#ffffff"/><path d="M221.325,110.443c-17.74,17.741-17.74,46.606,0,64.347c8.871,8.871,20.521,13.305,32.174,13.305     c11.649,0,23.304-4.436,32.173-13.305h0.001c17.74-17.74,17.74-46.606-0.001-64.347     C267.931,92.703,239.065,92.704,221.325,110.443z M275.066,164.183c-11.894,11.893-31.244,11.891-43.134,0     c-11.893-11.892-11.893-31.242,0-43.134c5.945-5.946,13.756-8.918,21.566-8.918c7.811,0,15.621,2.973,21.566,8.918     C286.957,132.941,286.957,152.291,275.066,164.183z" fill="#ffffff"/><path d="M98.365,299.165c-2.93-2.929-7.678-2.929-10.607,0L23.41,363.512c-2.929,2.929-2.929,7.678,0,10.606     c1.465,1.464,3.385,2.197,5.304,2.197s3.839-0.732,5.304-2.197l64.347-64.347C101.293,306.843,101.293,302.094,98.365,299.165z" fill="#ffffff"/><path d="M108.263,319.671l-28.991,28.991c-2.929,2.929-2.929,7.678,0,10.606c1.465,1.464,3.385,2.197,5.304,2.197     s3.839-0.732,5.304-2.197l28.991-28.991c2.929-2.929,2.929-7.678,0-10.606C115.941,316.742,111.193,316.742,108.263,319.671z" fill="#ffffff"/><path d="M69.123,361.919c-3.138,0-6.002,2.024-7.062,4.973c-1.078,2.998-0.075,6.441,2.416,8.416     c2.547,2.02,6.266,2.13,8.928,0.265c2.84-1.99,3.992-5.81,2.639-9.024C74.931,363.774,72.099,361.919,69.123,361.919z" fill="#ffffff"/><path d="M47.91,380.025l-3.992,3.992c-2.93,2.929-2.93,7.678-0.001,10.607c1.465,1.464,3.384,2.197,5.304,2.197     c1.919,0,3.839-0.732,5.303-2.196l3.992-3.992c2.93-2.929,2.93-7.678,0.001-10.606C55.588,377.099,50.838,377.096,47.91,380.025z     " fill="#ffffff"/><path d="M42.502,314.014c-2.93-2.929-7.678-2.929-10.607,0L2.904,343.005c-2.929,2.929-2.929,7.678,0,10.606     c1.465,1.464,3.385,2.197,5.304,2.197s3.839-0.732,5.304-2.197l28.991-28.991C45.431,321.692,45.431,316.943,42.502,314.014z" fill="#ffffff"/><path d="M54.472,311.136c3.043-0.765,5.327-3.417,5.644-6.537c0.311-3.055-1.369-6.049-4.096-7.427     c-2.895-1.464-6.523-0.853-8.769,1.494c-2.405,2.513-2.752,6.426-0.852,9.335c-0.06-0.09-0.106-0.156,0.015,0.029     c0.126,0.185,0.083,0.118,0.023,0.029C48.204,310.626,51.429,311.901,54.472,311.136z" fill="#ffffff"/><path d="M73.867,293.257l3.991-3.992c2.929-2.929,2.929-7.678-0.001-10.606c-2.932-2.93-7.681-2.929-10.606,0.001l-3.991,3.992     c-2.929,2.929-2.929,7.678,0.001,10.606c1.465,1.464,3.384,2.196,5.303,2.196C70.483,295.454,72.403,294.722,73.867,293.257z" fill="#ffffff"/></g><g transform="matrix(0.07805909216403961 0 0 0.07805909216403961 -3.002691797912121 119.01687240600586)" id="L1_4"><path d="m256,92.3c-74.2,0-127.8,55.3-136.3,114.7-5.3,39.6 7.5,78.2 34.1,107.4 23.4,25 36.2,58.4 36.2,92.8l-.1,54.2c0,21.9 18.1,39.6 40.5,39.6h52.2c22.4,0 40.5-17.7 40.5-39.6l.1-54.2c0-35.4 11.7-67.8 34.1-90.7 24.5-25 37.3-57.3 37.3-90.7-0.1-74.1-63-133.5-138.6-133.5zm46.8,369.1c0,10.4-8.5,18.8-19.2,18.8h-52.2c-10.7,0-19.2-8.3-19.2-18.8v-24h90.5v24zm39.6-159.5c-26.6,27.1-40.5,64.6-40.5,105.3v9.4h-90.5v-9.4c0-38.6-16-77.1-42.6-106.3-23.4-25-33-57.3-28.8-90.7 7.5-50 54-97 116.1-97 65,0 117.2,51.1 117.2,112.6 0,28.1-10.7,55.2-30.9,76.1z" fill="#ffffff"/><rect x="245px" y="11px" width="21px" height="50px" fill="#ffffff"/><path d="M385.1,107.4 400,122.3 436.5,87.2 421.5,72.3z" fill="#ffffff"/><rect x="448px" y="236px" width="52px" height="20px" fill="#ffffff"/><rect x="11px" y="236px" width="52px" height="20px" fill="#ffffff"/><path d="M90.1,72.2 75.1,87.1 111.6,122.2 126.5,107.3z" fill="#ffffff"/></g><g transform="matrix(0.08107396215200424 0 0 0.08107396215200424 158.2450656890869 270.2450656890869)"><path d="M413.2,342.1H299.5c-6.8,0-12.3,5.5-12.3,12.3l-0.1,2.3l-62.5-0.1v-2.2c0-6.8-5.5-12.3-12.3-12.3H98.8   c-6.8,0-12.3,5.5-12.3,12.3c0,6.8,5.5,12.3,12.3,12.3h103.5c3.9,8.5,12.5,14.5,22.4,14.5h62.4c10,0,18.6-6,22.4-14.5h103.6   c6.8,0,12.3-5.5,12.3-12.3C425.5,347.6,420,342.1,413.2,342.1z" fill="#ffffff"/><path d="M488.2,342.1h-23.2V119.4c0-0.4,0-0.8-0.1-1.2c-1.7-17.6-16-30.9-33.1-30.9H79c-17.7,0-32.1,14.4-32.1,32.1v222.7H23.8   c-6.8,0-12.3,5.5-12.3,12.3v23.2c0,26,21.1,47.1,47.1,47.1h394.6c26,0,47.1-21.1,47.1-47.1v-23.2   C500.5,347.6,495,342.1,488.2,342.1z M476,377.6c0,12.5-10.2,22.6-22.6,22.6H58.7C46.2,400.2,36,390,36,377.6v-10.9h23.1   c6.8,0,12.3-5.5,12.3-12.3v-235c0-4.2,3.4-7.6,7.6-7.6h352.8c4.3,0,8,3.6,8.7,8.3v234.2c0,6.8,5.6,12.3,12.3,12.3H476V377.6z" fill="#ffffff"/><path d="M308.6,292.3c2.4,2.9,5.9,4.3,9.4,4.3c2.8,0,5.6-1,7.9-2.9l61.2-51.9c2.7-2.3,4.3-5.7,4.3-9.4c0-3.6-1.6-7-4.3-9.3   l-61.2-51.8c-5.2-4.4-12.9-3.7-17.3,1.4c-4.4,5.2-3.7,12.9,1.4,17.3l50.2,42.5L310,275C304.9,279.4,304.2,287.2,308.6,292.3z" fill="#ffffff"/><path d="M186,293.7c2.3,2,5.1,2.9,7.9,2.9c3.5,0,6.9-1.5,9.3-4.3c4.4-5.2,3.8-12.9-1.4-17.3l-50.1-42.6l50.1-42.5   c5.2-4.4,5.8-12.1,1.4-17.3c-4.4-5.2-12.1-5.8-17.3-1.4l-61.2,51.8c-2.7,2.3-4.3,5.7-4.3,9.3c0,3.6,1.6,7,4.3,9.3L186,293.7z" fill="#ffffff"/><path d="M225.3,308.7c1.5,0.6,3,0.9,4.5,0.9c4.9,0,9.5-2.9,11.4-7.7l51.9-129.7c2.5-6.3-0.5-13.4-6.8-15.9   c-6.3-2.5-13.4,0.5-15.9,6.8l-51.9,129.7C215.9,299.1,219,306.2,225.3,308.7z" fill="#ffffff"/></g><g transform="matrix(0.06830479204654694 0 0 0.06830479204654694 246.63109768927097 196.63112442053057)"><path d="M454.2,189.101l-33.6-5.7c-3.5-11.3-8-22.2-13.5-32.6l19.8-27.7c8.4-11.8,7.1-27.9-3.2-38.1l-29.8-29.8    c-5.6-5.6-13-8.7-20.9-8.7c-6.2,0-12.1,1.9-17.1,5.5l-27.8,19.8c-10.8-5.7-22.1-10.4-33.8-13.9l-5.6-33.2    c-2.4-14.3-14.7-24.7-29.2-24.7h-42.1c-14.5,0-26.8,10.4-29.2,24.7l-5.8,34c-11.2,3.5-22.1,8.1-32.5,13.7l-27.5-19.8    c-5-3.6-11-5.5-17.2-5.5c-7.9,0-15.4,3.1-20.9,8.7l-29.9,29.8c-10.2,10.2-11.6,26.3-3.2,38.1l20,28.1    c-5.5,10.5-9.9,21.4-13.3,32.7l-33.2,5.6c-14.3,2.4-24.7,14.7-24.7,29.2v42.1c0,14.5,10.4,26.8,24.7,29.2l34,5.8    c3.5,11.2,8.1,22.1,13.7,32.5l-19.7,27.4c-8.4,11.8-7.1,27.9,3.2,38.1l29.8,29.8c5.6,5.6,13,8.7,20.9,8.7c6.2,0,12.1-1.9,17.1-5.5    l28.1-20c10.1,5.3,20.7,9.6,31.6,13l5.6,33.6c2.4,14.3,14.7,24.7,29.2,24.7h42.2c14.5,0,26.8-10.4,29.2-24.7l5.7-33.6    c11.3-3.5,22.2-8,32.6-13.5l27.7,19.8c5,3.6,11,5.5,17.2,5.5l0,0c7.9,0,15.3-3.1,20.9-8.7l29.8-29.8c10.2-10.2,11.6-26.3,3.2-38.1    l-19.8-27.8c5.5-10.5,10.1-21.4,13.5-32.6l33.6-5.6c14.3-2.4,24.7-14.7,24.7-29.2v-42.1    C478.9,203.801,468.5,191.501,454.2,189.101z M451.9,260.401c0,1.3-0.9,2.4-2.2,2.6l-42,7c-5.3,0.9-9.5,4.8-10.8,9.9    c-3.8,14.7-9.6,28.8-17.4,41.9c-2.7,4.6-2.5,10.3,0.6,14.7l24.7,34.8c0.7,1,0.6,2.5-0.3,3.4l-29.8,29.8c-0.7,0.7-1.4,0.8-1.9,0.8    c-0.6,0-1.1-0.2-1.5-0.5l-34.7-24.7c-4.3-3.1-10.1-3.3-14.7-0.6c-13.1,7.8-27.2,13.6-41.9,17.4c-5.2,1.3-9.1,5.6-9.9,10.8l-7.1,42    c-0.2,1.3-1.3,2.2-2.6,2.2h-42.1c-1.3,0-2.4-0.9-2.6-2.2l-7-42c-0.9-5.3-4.8-9.5-9.9-10.8c-14.3-3.7-28.1-9.4-41-16.8    c-2.1-1.2-4.5-1.8-6.8-1.8c-2.7,0-5.5,0.8-7.8,2.5l-35,24.9c-0.5,0.3-1,0.5-1.5,0.5c-0.4,0-1.2-0.1-1.9-0.8l-29.8-29.8    c-0.9-0.9-1-2.3-0.3-3.4l24.6-34.5c3.1-4.4,3.3-10.2,0.6-14.8c-7.8-13-13.8-27.1-17.6-41.8c-1.4-5.1-5.6-9-10.8-9.9l-42.3-7.2    c-1.3-0.2-2.2-1.3-2.2-2.6v-42.1c0-1.3,0.9-2.4,2.2-2.6l41.7-7c5.3-0.9,9.6-4.8,10.9-10c3.7-14.7,9.4-28.9,17.1-42    c2.7-4.6,2.4-10.3-0.7-14.6l-24.9-35c-0.7-1-0.6-2.5,0.3-3.4l29.8-29.8c0.7-0.7,1.4-0.8,1.9-0.8c0.6,0,1.1,0.2,1.5,0.5l34.5,24.6    c4.4,3.1,10.2,3.3,14.8,0.6c13-7.8,27.1-13.8,41.8-17.6c5.1-1.4,9-5.6,9.9-10.8l7.2-42.3c0.2-1.3,1.3-2.2,2.6-2.2h42.1    c1.3,0,2.4,0.9,2.6,2.2l7,41.7c0.9,5.3,4.8,9.6,10,10.9c15.1,3.8,29.5,9.7,42.9,17.6c4.6,2.7,10.3,2.5,14.7-0.6l34.5-24.8    c0.5-0.3,1-0.5,1.5-0.5c0.4,0,1.2,0.1,1.9,0.8l29.8,29.8c0.9,0.9,1,2.3,0.3,3.4l-24.7,34.7c-3.1,4.3-3.3,10.1-0.6,14.7    c7.8,13.1,13.6,27.2,17.4,41.9c1.3,5.2,5.6,9.1,10.8,9.9l42,7.1c1.3,0.2,2.2,1.3,2.2,2.6v42.1H451.9z" fill="#ffffff"/><path d="M239.4,136.001c-57,0-103.3,46.3-103.3,103.3s46.3,103.3,103.3,103.3s103.3-46.3,103.3-103.3S296.4,136.001,239.4,136.001    z M239.4,315.601c-42.1,0-76.3-34.2-76.3-76.3s34.2-76.3,76.3-76.3s76.3,34.2,76.3,76.3S281.5,315.601,239.4,315.601z" fill="#ffffff"/></g><g transform="matrix(0.09648976475000381 0 0 0.09648976475000381 51.83295927941799 178.832959279418)"><path d="M394.583,8.054c-0.422-3.413-3.11-6.101-6.522-6.523c-30.748-3.803-62.477-0.488-91.767,9.583     c-29.293,10.072-56.355,26.973-78.258,48.876l-49.983,49.983l-72.149,9.305c-1.645,0.212-3.172,0.963-4.345,2.135l-69.563,69.563     c-1.969,1.969-2.685,4.868-1.858,7.528c0.825,2.66,3.058,4.643,5.796,5.15l52.597,9.742l10.335,10.335l-22.003,11.915     c-2.082,1.127-3.51,3.172-3.851,5.515s0.444,4.709,2.118,6.383l83.438,83.438c1.417,1.417,3.329,2.197,5.304,2.197     c0.358,0,0.72-0.026,1.08-0.078c2.343-0.341,4.388-1.769,5.515-3.851l11.916-22.003l10.335,10.335l9.742,52.597     c0.508,2.739,2.49,4.971,5.15,5.797c0.731,0.227,1.48,0.337,2.224,0.337c1.96,0,3.876-0.769,5.305-2.197l69.563-69.563     c1.172-1.172,1.923-2.7,2.135-4.344l9.306-72.15l49.983-49.984c21.903-21.903,38.804-48.964,48.876-78.257     C395.072,70.528,398.385,38.795,394.583,8.054z M79.674,198.355l-36.989-6.851l57.673-57.675l50.332-6.491L79.674,198.355z      M152.065,313.268L82.846,244.05l17.085-9.252l61.385,61.386L152.065,313.268z M262.285,295.756l-57.674,57.674l-6.852-36.988     l71.017-71.017L262.285,295.756z M325.517,167.471l-135.85,135.85l-96.874-96.874l135.85-135.851     c19.738-19.739,44.002-35.076,70.287-44.49c3.395,17.492,11.948,33.719,24.654,46.424c12.705,12.706,28.931,21.259,46.424,24.655     C360.593,123.468,345.255,147.732,325.517,167.471z M374.523,82.774c-15.203-2.593-29.345-9.863-40.333-20.85     c-10.988-10.987-18.257-25.13-20.85-40.333c21.741-5.859,44.579-7.857,66.99-5.807C382.381,38.195,380.382,61.033,374.523,82.774     z" fill="#ffffff"/><path d="M221.325,110.443c-17.74,17.741-17.74,46.606,0,64.347c8.871,8.871,20.521,13.305,32.174,13.305     c11.649,0,23.304-4.436,32.173-13.305h0.001c17.74-17.74,17.74-46.606-0.001-64.347     C267.931,92.703,239.065,92.704,221.325,110.443z M275.066,164.183c-11.894,11.893-31.244,11.891-43.134,0     c-11.893-11.892-11.893-31.242,0-43.134c5.945-5.946,13.756-8.918,21.566-8.918c7.811,0,15.621,2.973,21.566,8.918     C286.957,132.941,286.957,152.291,275.066,164.183z" fill="#ffffff"/><path d="M98.365,299.165c-2.93-2.929-7.678-2.929-10.607,0L23.41,363.512c-2.929,2.929-2.929,7.678,0,10.606     c1.465,1.464,3.385,2.197,5.304,2.197s3.839-0.732,5.304-2.197l64.347-64.347C101.293,306.843,101.293,302.094,98.365,299.165z" fill="#ffffff"/><path d="M108.263,319.671l-28.991,28.991c-2.929,2.929-2.929,7.678,0,10.606c1.465,1.464,3.385,2.197,5.304,2.197     s3.839-0.732,5.304-2.197l28.991-28.991c2.929-2.929,2.929-7.678,0-10.606C115.941,316.742,111.193,316.742,108.263,319.671z" fill="#ffffff"/><path d="M69.123,361.919c-3.138,0-6.002,2.024-7.062,4.973c-1.078,2.998-0.075,6.441,2.416,8.416     c2.547,2.02,6.266,2.13,8.928,0.265c2.84-1.99,3.992-5.81,2.639-9.024C74.931,363.774,72.099,361.919,69.123,361.919z" fill="#ffffff"/><path d="M47.91,380.025l-3.992,3.992c-2.93,2.929-2.93,7.678-0.001,10.607c1.465,1.464,3.384,2.197,5.304,2.197     c1.919,0,3.839-0.732,5.303-2.196l3.992-3.992c2.93-2.929,2.93-7.678,0.001-10.606C55.588,377.099,50.838,377.096,47.91,380.025z     " fill="#ffffff"/><path d="M42.502,314.014c-2.93-2.929-7.678-2.929-10.607,0L2.904,343.005c-2.929,2.929-2.929,7.678,0,10.606     c1.465,1.464,3.385,2.197,5.304,2.197s3.839-0.732,5.304-2.197l28.991-28.991C45.431,321.692,45.431,316.943,42.502,314.014z" fill="#ffffff"/><path d="M54.472,311.136c3.043-0.765,5.327-3.417,5.644-6.537c0.311-3.055-1.369-6.049-4.096-7.427     c-2.895-1.464-6.523-0.853-8.769,1.494c-2.405,2.513-2.752,6.426-0.852,9.335c-0.06-0.09-0.106-0.156,0.015,0.029     c0.126,0.185,0.083,0.118,0.023,0.029C48.204,310.626,51.429,311.901,54.472,311.136z" fill="#ffffff"/><path d="M73.867,293.257l3.991-3.992c2.929-2.929,2.929-7.678-0.001-10.606c-2.932-2.93-7.681-2.929-10.606,0.001l-3.991,3.992     c-2.929,2.929-2.929,7.678,0.001,10.606c1.465,1.464,3.384,2.196,5.303,2.196C70.483,295.454,72.403,294.722,73.867,293.257z" fill="#ffffff"/></g><g transform="matrix(0.08110080659389496 0 0 0.08110080659389496 326.22015016525984 260.2381935119629)"><path d="m256,92.3c-74.2,0-127.8,55.3-136.3,114.7-5.3,39.6 7.5,78.2 34.1,107.4 23.4,25 36.2,58.4 36.2,92.8l-.1,54.2c0,21.9 18.1,39.6 40.5,39.6h52.2c22.4,0 40.5-17.7 40.5-39.6l.1-54.2c0-35.4 11.7-67.8 34.1-90.7 24.5-25 37.3-57.3 37.3-90.7-0.1-74.1-63-133.5-138.6-133.5zm46.8,369.1c0,10.4-8.5,18.8-19.2,18.8h-52.2c-10.7,0-19.2-8.3-19.2-18.8v-24h90.5v24zm39.6-159.5c-26.6,27.1-40.5,64.6-40.5,105.3v9.4h-90.5v-9.4c0-38.6-16-77.1-42.6-106.3-23.4-25-33-57.3-28.8-90.7 7.5-50 54-97 116.1-97 65,0 117.2,51.1 117.2,112.6 0,28.1-10.7,55.2-30.9,76.1z" fill="#ffffff"/><rect x="245px" y="11px" width="21px" height="50px" fill="#ffffff"/><path d="M385.1,107.4 400,122.3 436.5,87.2 421.5,72.3z" fill="#ffffff"/><rect x="448px" y="236px" width="52px" height="20px" fill="#ffffff"/><rect x="11px" y="236px" width="52px" height="20px" fill="#ffffff"/><path d="M90.1,72.2 75.1,87.1 111.6,122.2 126.5,107.3z" fill="#ffffff"/></g></defs><g fi:class="KUsePattern"><pattern id="pattern_L1_3" width="350" height="350" patternUnits="userSpaceOnUse"><use xlink:href="#L1_3" x="-350" y="-350"/><use xlink:href="#L1_3" x="0" y="-350"/><use xlink:href="#L1_3" x="350" y="-350"/><use xlink:href="#L1_3" x="-350" y="0"/><use xlink:href="#L1_3" x="0" y="0"/><use xlink:href="#L1_3" x="350" y="0"/><use xlink:href="#L1_3" x="-350" y="350"/><use xlink:href="#L1_3" x="0" y="350"/><use xlink:href="#L1_3" x="350" y="350"/></pattern><rect x="0" y="0" width="100%" height="100%" fill="url(#pattern_L1_3)"/></g><g fi:class="KUsePattern"><pattern id="pattern_L1_1" width="350" height="350" patternUnits="userSpaceOnUse"><use xlink:href="#L1_1" x="-350" y="-350"/><use xlink:href="#L1_1" x="0" y="-350"/><use xlink:href="#L1_1" x="350" y="-350"/><use xlink:href="#L1_1" x="-350" y="0"/><use xlink:href="#L1_1" x="0" y="0"/><use xlink:href="#L1_1" x="350" y="0"/><use xlink:href="#L1_1" x="-350" y="350"/><use xlink:href="#L1_1" x="0" y="350"/><use xlink:href="#L1_1" x="350" y="350"/></pattern><rect x="0" y="0" width="100%" height="100%" fill="url(#pattern_L1_1)"/></g><g fi:class="KUsePattern" transform="matrix(1 0 0 1 20 20)" opacity="1"><pattern id="pattern_UNKNOWN" width="350" height="350" patternUnits="userSpaceOnUse"><use xlink:href="#UNKNOWN" x="-350" y="-350"/><use xlink:href="#UNKNOWN" x="0" y="-350"/><use xlink:href="#UNKNOWN" x="350" y="-350"/><use xlink:href="#UNKNOWN" x="-350" y="0"/><use xlink:href="#UNKNOWN" x="0" y="0"/><use xlink:href="#UNKNOWN" x="350" y="0"/><use xlink:href="#UNKNOWN" x="-350" y="350"/><use xlink:href="#UNKNOWN" x="0" y="350"/><use xlink:href="#UNKNOWN" x="350" y="350"/></pattern><rect x="0" y="0" width="100%" height="100%" fill="url(#pattern_UNKNOWN)"/></g><g fi:class="KUsePattern"><pattern id="pattern_L1_4" width="350" height="350" patternUnits="userSpaceOnUse"><use xlink:href="#L1_4" x="-350" y="-350"/><use xlink:href="#L1_4" x="0" y="-350"/><use xlink:href="#L1_4" x="350" y="-350"/><use xlink:href="#L1_4" x="-350" y="0"/><use xlink:href="#L1_4" x="0" y="0"/><use xlink:href="#L1_4" x="350" y="0"/><use xlink:href="#L1_4" x="-350" y="350"/><use xlink:href="#L1_4" x="0" y="350"/><use xlink:href="#L1_4" x="350" y="350"/></pattern><rect x="0" y="0" width="100%" height="100%" fill="url(#pattern_L1_4)"/></g><g fi:class="KUsePattern" transform="matrix(1 0 0 1 20 20)"><pattern id="pattern_UNKNOWN" width="350" height="350" patternUnits="userSpaceOnUse"><use xlink:href="#UNKNOWN" x="-350" y="-350"/><use xlink:href="#UNKNOWN" x="0" y="-350"/><use xlink:href="#UNKNOWN" x="350" y="-350"/><use xlink:href="#UNKNOWN" x="-350" y="0"/><use xlink:href="#UNKNOWN" x="0" y="0"/><use xlink:href="#UNKNOWN" x="350" y="0"/><use xlink:href="#UNKNOWN" x="-350" y="350"/><use xlink:href="#UNKNOWN" x="0" y="350"/><use xlink:href="#UNKNOWN" x="350" y="350"/></pattern><rect x="0" y="0" width="100%" height="100%" fill="url(#pattern_UNKNOWN)"/></g><g fi:class="KUsePattern" transform="matrix(1 0 0 1 20 20)"><pattern id="pattern_UNKNOWN" width="350" height="350" patternUnits="userSpaceOnUse"><use xlink:href="#UNKNOWN" x="-350" y="-350"/><use xlink:href="#UNKNOWN" x="0" y="-350"/><use xlink:href="#UNKNOWN" x="350" y="-350"/><use xlink:href="#UNKNOWN" x="-350" y="0"/><use xlink:href="#UNKNOWN" x="0" y="0"/><use xlink:href="#UNKNOWN" x="350" y="0"/><use xlink:href="#UNKNOWN" x="-350" y="350"/><use xlink:href="#UNKNOWN" x="0" y="350"/><use xlink:href="#UNKNOWN" x="350" y="350"/></pattern><rect x="0" y="0" width="100%" height="100%" fill="url(#pattern_UNKNOWN)"/></g><g fi:class="KUsePattern" transform="matrix(1 0 0 1 40 40)" opacity="1"><pattern id="pattern_UNKNOWN" width="350" height="350" patternUnits="userSpaceOnUse"><use xlink:href="#UNKNOWN" x="-350" y="-350"/><use xlink:href="#UNKNOWN" x="0" y="-350"/><use xlink:href="#UNKNOWN" x="350" y="-350"/><use xlink:href="#UNKNOWN" x="-350" y="0"/><use xlink:href="#UNKNOWN" x="0" y="0"/><use xlink:href="#UNKNOWN" x="350" y="0"/><use xlink:href="#UNKNOWN" x="-350" y="350"/><use xlink:href="#UNKNOWN" x="0" y="350"/><use xlink:href="#UNKNOWN" x="350" y="350"/></pattern><rect x="0" y="0" width="100%" height="100%" fill="url(#pattern_UNKNOWN)"/></g><g fi:class="KUsePattern" transform="matrix(1 0 0 1 20 20)"><pattern id="pattern_UNKNOWN" width="350" height="350" patternUnits="userSpaceOnUse"><use xlink:href="#UNKNOWN" x="-350" y="-350"/><use xlink:href="#UNKNOWN" x="0" y="-350"/><use xlink:href="#UNKNOWN" x="350" y="-350"/><use xlink:href="#UNKNOWN" x="-350" y="0"/><use xlink:href="#UNKNOWN" x="0" y="0"/><use xlink:href="#UNKNOWN" x="350" y="0"/><use xlink:href="#UNKNOWN" x="-350" y="350"/><use xlink:href="#UNKNOWN" x="0" y="350"/><use xlink:href="#UNKNOWN" x="350" y="350"/></pattern><rect x="0" y="0" width="100%" height="100%" fill="url(#pattern_UNKNOWN)"/></g></svg>