<svg xmlns="http://www.w3.org/2000/svg" xmlns:xlink="http://www.w3.org/1999/xlink" xmlns:fi="http://pattern.flaticon.com/" x="0" y="0" width="500" height="250" viewBox="0 0 2333.3333333333335 1166.6666666666667"><rect x="0px" y="0px" width="100%" height="100%" opacity="1" fill="#ffcf00"/><defs><g transform="matrix(0.1171875 0 0 0.1171875 102 54.00000411987304)" id="L1_0"><path d="M503.983,4.276H8.017C3.589,4.276,0,7.865,0,12.292v102.614v384.802c0,4.427,3.589,8.017,8.017,8.017h495.967    c4.428,0,8.017-3.589,8.017-8.017V114.906V12.292C512,7.865,508.412,4.276,503.983,4.276z M495.967,491.691H16.033V122.923    h479.933V491.691z M495.967,106.889H16.033v-86.58h479.933V106.889z" fill="#ffffff"/><path d="M427.023,38.48H332.96c-4.428,0-8.017,3.589-8.017,8.017c0,4.427,3.588,8.017,8.017,8.017h94.063    c4.428,0,8.017-3.589,8.017-8.017C435.04,42.07,431.451,38.48,427.023,38.48z" fill="#ffffff"/><path d="M469.779,38.48h-17.102c-4.428,0-8.017,3.589-8.017,8.017c0,4.427,3.588,8.017,8.017,8.017h17.102    c4.428,0,8.017-3.589,8.017-8.017C477.795,42.07,474.207,38.48,469.779,38.48z" fill="#ffffff"/><path d="M264.551,29.929c-18.566,0-33.67,15.105-33.67,33.67s15.105,33.67,33.67,33.67s33.67-15.104,33.67-33.67    S283.117,29.929,264.551,29.929z M264.551,81.236c-9.725,0-17.637-7.912-17.637-17.637s7.912-17.637,17.637-17.637    s17.637,7.912,17.637,17.637S274.276,81.236,264.551,81.236z" fill="#ffffff"/><path d="M170.489,29.929c-18.566,0-33.67,15.105-33.67,33.67s15.105,33.67,33.67,33.67s33.67-15.104,33.67-33.67    S189.054,29.929,170.489,29.929z M170.489,81.236c-9.725,0-17.637-7.912-17.637-17.637s7.912-17.637,17.637-17.637    s17.637,7.912,17.637,17.637S180.213,81.236,170.489,81.236z" fill="#ffffff"/><path d="M76.426,29.929c-18.566,0-33.67,15.105-33.67,33.67s15.105,33.67,33.67,33.67s33.67-15.104,33.67-33.67    S94.992,29.929,76.426,29.929z M76.426,81.236c-9.725,0-17.637-7.912-17.637-17.637s7.912-17.637,17.637-17.637    s17.637,7.912,17.637,17.637S86.151,81.236,76.426,81.236z" fill="#ffffff"/><path d="M168.877,232.063c0.174-6.422-2.163-12.527-6.582-17.191s-10.389-7.327-16.81-7.501    c-6.403-0.175-12.526,2.164-17.19,6.582l-81.236,76.96c-4.866,4.61-7.602,11.098-7.507,17.801    c0.095,6.703,3.015,13.112,8.011,17.581l81.237,72.686c4.417,3.951,10.109,6.126,16.028,6.126c0.001,0,0.002,0,0.003,0    c6.837,0,13.371-2.92,17.929-8.014c8.842-9.883,7.996-25.117-1.887-33.96l-61.769-55.267l62.274-58.995    C166.039,244.454,168.703,238.484,168.877,232.063z M150.348,237.232l-68.594,64.983c-1.627,1.541-2.534,3.693-2.502,5.935    c0.032,2.24,1,4.365,2.67,5.86l68.258,61.073c3.294,2.947,3.577,8.025,0.63,11.32c-1.541,1.723-3.665,2.672-5.982,2.672    c-1.971,0-3.867-0.725-5.339-2.043l-81.236-72.685c-1.665-1.49-2.639-3.626-2.671-5.86c-0.031-2.234,0.881-4.397,2.502-5.933    l81.236-76.96c1.501-1.422,3.449-2.198,5.508-2.198c0.074,0,0.149,0.001,0.222,0.003c2.141,0.058,4.13,0.946,5.603,2.5    c1.473,1.554,2.252,3.589,2.194,5.73C152.791,233.77,151.903,235.76,150.348,237.232z" fill="#ffffff"/><path d="M464.942,290.914l-81.236-76.96c-9.626-9.119-24.878-8.709-34.001,0.919c-9.119,9.626-8.707,24.879,0.919,33.999    l62.274,58.995l-61.769,55.267c-9.882,8.843-10.729,24.076-1.887,33.961c4.558,5.092,11.092,8.013,17.927,8.013    c0.001,0,0.002,0,0.003,0c5.921,0,11.614-2.176,16.029-6.127l81.236-72.685c4.997-4.471,7.917-10.88,8.01-17.583    C472.543,302.011,469.807,295.523,464.942,290.914z M453.746,314.348l-81.236,72.685c-1.472,1.317-3.367,2.043-5.339,2.043h-0.001    c-2.314,0-4.438-0.949-5.979-2.671c-2.948-3.294-2.666-8.373,0.628-11.321l68.257-61.073c1.671-1.494,2.639-3.619,2.67-5.86    c0.032-2.241-0.875-4.393-2.502-5.935l-68.594-64.983c-3.209-3.04-3.347-8.125-0.307-11.333c1.574-1.661,3.696-2.499,5.822-2.499    c1.98,0,3.965,0.727,5.511,2.193l81.236,76.96c1.623,1.536,2.533,3.699,2.502,5.933v0.002h0.001    C456.385,310.722,455.413,312.858,453.746,314.348z" fill="#ffffff"/><path d="M317.703,233.713c-1.67-6.204-5.656-11.386-11.222-14.59c0-0.001-0.001-0.001-0.001-0.001    c-11.495-6.614-26.226-2.647-32.842,8.843l-81.236,141.094c-6.617,11.492-2.65,26.225,8.843,32.843    c3.648,2.099,7.792,3.21,11.983,3.21c8.585,0,16.577-4.619,20.857-12.053l81.236-141.093    C318.526,246.398,319.373,239.915,317.703,233.713z M301.427,243.964l-81.235,141.094c-1.427,2.479-4.096,4.019-6.963,4.019    c-1.409,0-2.749-0.36-3.985-1.071c-3.831-2.205-5.153-7.117-2.948-10.948l81.237-141.094c1.481-2.573,4.184-4.014,6.961-4.014    c1.356,0,2.73,0.344,3.987,1.068c1.856,1.068,3.184,2.795,3.74,4.862C302.778,239.947,302.496,242.108,301.427,243.964z" fill="#ffffff"/></g><g transform="matrix(0.1171872690320015 0 0 0.1171872690320015 234 177.9999997711186)" id="L1_1"><path d="M345.415,107.168l-48.764-67.723c-1.879-2.61-4.899-4.157-8.115-4.157s-6.236,1.547-8.115,4.157l-48.764,67.723    c-1.226,1.702-1.885,3.746-1.885,5.843v1.597v324.514c0,20.634,16.787,37.421,37.421,37.421h42.685    c20.635,0,37.422-16.787,37.422-37.421V114.608v-1.597C347.3,110.914,346.641,108.869,345.415,107.168z M288.536,62.402    l30.391,42.206h-60.781L288.536,62.402z M249.772,124.608h47.48v259.016h-17.435v-191.01c0.001-5.524-4.476-10.001-9.999-10.001    c-5.522,0-10,4.477-10,10v191.01h-10.046V124.608z M327.3,439.121c0,9.606-7.815,17.421-17.422,17.421h-42.685    c-9.605,0-17.421-7.815-17.421-17.421v-35.498H327.3V439.121z M327.3,383.624h-10.047V124.608H327.3V383.624z" fill="#ffffff"/><path d="M279.62,150.5c-0.13-0.63-0.32-1.26-0.57-1.87c-0.25-0.6-0.56-1.18-0.92-1.72c-0.36-0.55-0.78-1.06-1.24-1.52    c-0.46-0.46-0.97-0.88-1.52-1.25c-0.54-0.36-1.12-0.66-1.73-0.91c-0.6-0.25-1.229-0.45-1.87-0.58c-1.29-0.25-2.62-0.25-3.91,0    c-0.63,0.13-1.26,0.33-1.869,0.58c-0.601,0.25-1.181,0.55-1.721,0.91c-0.55,0.37-1.06,0.79-1.52,1.25    c-0.46,0.46-0.88,0.97-1.25,1.52c-0.36,0.54-0.67,1.12-0.92,1.72c-0.25,0.61-0.44,1.24-0.57,1.87c-0.13,0.65-0.19,1.31-0.19,1.96    c0,2.63,1.07,5.21,2.931,7.07c1.859,1.86,4.439,2.93,7.069,2.93c0.65,0,1.311-0.07,1.95-0.2c0.641-0.13,1.271-0.32,1.87-0.57    c0.61-0.25,1.19-0.56,1.73-0.92c0.55-0.36,1.06-0.78,1.52-1.24c0.46-0.46,0.88-0.97,1.24-1.52c0.36-0.54,0.67-1.12,0.92-1.73    c0.25-0.6,0.44-1.23,0.57-1.87c0.13-0.64,0.199-1.3,0.199-1.95C279.819,151.81,279.75,151.15,279.62,150.5z" fill="#ffffff"/><path d="M97.265,222.573l-0.003-1.524c0.001-7.881,6.413-14.293,14.294-14.293c0.141,0,0.282-0.003,0.423-0.009l30.46-1.289    c17.787-0.125,32.22-14.634,32.22-32.451c0-17.894-14.558-32.451-32.451-32.451H74.151c-6.865,0-12.451-5.586-12.451-12.452    c0-3.322,1.31-6.441,3.688-8.782c2.281-2.247,5.263-3.477,8.413-3.477c0.116,0,0.234,0.003,0.35,0.003l59.547-0.002    c22.21,0,40.278-18.07,40.278-40.28c0-22.21-18.069-40.279-40.279-40.279H65.959c-5.522,0-10,4.477-10,10s4.478,10,10,10h67.738    c11.182,0,20.279,9.097,20.279,20.279s-9.097,20.279-20.278,20.28l-59.476,0.002c-8.566-0.118-16.708,3.159-22.864,9.22    C45.13,111.2,41.7,119.38,41.7,128.105c0,17.894,14.558,32.452,32.451,32.452h68.056c6.865,0,12.451,5.585,12.451,12.451    c0,6.866-5.586,12.452-12.451,12.452c-0.141,0-0.282,0.003-0.423,0.009l-30.457,1.289c-18.805,0.123-34.064,15.459-34.064,34.312    l0.003,1.509C33.839,227.564,0,264.543,0,309.284v80.144c0,48.129,39.156,87.285,87.285,87.285    c48.129,0,87.285-39.156,87.285-87.285v-80.144C174.57,264.53,140.711,227.541,97.265,222.573z M20,309.284    c0-33.705,24.908-61.7,57.285-66.544v81.562H20V309.284z M154.57,389.428c0,37.101-30.184,67.285-67.285,67.285    C50.184,456.713,20,426.529,20,389.428v-45.125h134.57V389.428z M154.57,324.302H97.285V242.74    c32.377,4.844,57.285,32.839,57.285,66.544V324.302z" fill="#ffffff"/><path d="M37.259,43.33c-0.13-0.63-0.32-1.26-0.57-1.87c-0.25-0.6-0.56-1.18-0.92-1.72c-0.359-0.55-0.779-1.06-1.239-1.52    c-1.86-1.86-4.44-2.93-7.07-2.93s-5.21,1.07-7.07,2.93c-0.46,0.46-0.88,0.97-1.24,1.52c-0.369,0.54-0.67,1.12-0.92,1.72    c-0.26,0.61-0.449,1.24-0.58,1.87c-0.13,0.65-0.189,1.31-0.189,1.96c0,0.65,0.06,1.31,0.189,1.95c0.13,0.64,0.32,1.27,0.579,1.87    c0.25,0.61,0.551,1.19,0.92,1.73c0.36,0.55,0.78,1.06,1.24,1.52c0.46,0.46,0.97,0.88,1.521,1.24c0.54,0.36,1.12,0.67,1.72,0.92    c0.61,0.25,1.24,0.44,1.88,0.57c0.64,0.13,1.3,0.2,1.95,0.2c2.63,0,5.21-1.07,7.07-2.93c0.46-0.46,0.88-0.97,1.239-1.52    c0.36-0.54,0.67-1.12,0.92-1.73c0.25-0.6,0.44-1.23,0.57-1.87s0.2-1.3,0.2-1.95C37.459,44.64,37.389,43.98,37.259,43.33z" fill="#ffffff"/><path d="M511.925,135.068c-1.105-23.597-12.992-35.276-22.544-44.66c-10.334-10.154-16.572-16.283-10.682-36.37    c2.667-9.094-1.006-13.869-3.434-15.906c-3.021-2.534-8.412-4.668-16.952-0.441c-11.065,5.478-27.86,21.583-40.842,39.162    c-11.919,16.141-25.896,40.311-24.796,63.799c0.823,17.564,8.27,33.669,20.427,44.997c-6.008,8.108-9.569,18.133-9.569,28.976    c0,6.879,1.402,13.436,3.952,19.388v195.423c0,23.785,19.351,43.135,43.135,43.135s43.135-19.35,43.135-43.135V240.471    c4.662-7.509,7.325-16.371,7.325-25.846c0.001-10.713-3.479-20.623-9.356-28.678C505.285,173.36,512.848,154.791,511.925,135.068z     M473.755,429.435c0.001,12.757-10.377,23.135-23.134,23.135c-12.757,0-23.135-10.378-23.135-23.135V256.676    c5.193,3.042,11.032,5.174,17.333,6.147c0.505,0.078,1.015,0.117,1.525,0.117h11.926c0.511,0,1.021-0.039,1.525-0.117    c0.659-0.102,1.315-0.22,1.968-0.349c0.417-0.081,0.828-0.175,1.241-0.266c0.178-0.04,0.357-0.078,0.535-0.12    c3.59-0.838,7.008-2.057,10.216-3.61V429.435z M465.824,240.009c-0.043,0.021-0.084,0.043-0.125,0.065    c-0.288,0.153-0.579,0.299-0.873,0.443c-0.139,0.068-0.279,0.134-0.42,0.2c-0.224,0.105-0.449,0.207-0.675,0.306    c-0.213,0.093-0.428,0.182-0.643,0.27c-0.175,0.071-0.349,0.143-0.525,0.211c-0.267,0.103-0.537,0.199-0.807,0.294    c-0.14,0.049-0.279,0.1-0.42,0.147c-0.305,0.101-0.612,0.195-0.92,0.286c-0.117,0.035-0.233,0.072-0.351,0.106    c-0.336,0.095-0.675,0.18-1.015,0.262c-0.096,0.023-0.19,0.05-0.286,0.072c-0.437,0.101-0.876,0.192-1.318,0.272h-10.273    c-0.01-0.002-0.02-0.004-0.03-0.006c-0.483-0.087-0.96-0.191-1.435-0.303c-0.19-0.045-0.378-0.094-0.567-0.143    c-0.283-0.073-0.565-0.15-0.845-0.232c-0.236-0.069-0.473-0.137-0.707-0.212c-0.177-0.056-0.352-0.119-0.528-0.179    c-11.41-3.904-19.525-14.855-19.525-27.242c0-9.274,4.415-17.532,11.248-22.798c0.263-0.203,0.53-0.4,0.799-0.593    c0.46-0.33,0.93-0.647,1.41-0.95c0.21-0.133,0.421-0.265,0.634-0.392c0.663-0.395,1.342-0.765,2.038-1.107    c0.068-0.034,0.136-0.07,0.204-0.103c0.403-0.194,0.812-0.379,1.225-0.555c0.068-0.029,0.137-0.054,0.205-0.082    c0.718-0.299,1.451-0.567,2.197-0.808c0.231-0.074,0.462-0.144,0.695-0.212c0.505-0.149,1.016-0.283,1.533-0.405    c0.394-0.092,0.79-0.179,1.189-0.254c0.271-0.052,0.542-0.102,0.815-0.146c0.626-0.099,1.257-0.181,1.894-0.239    c0.172-0.016,0.346-0.027,0.519-0.04c0.719-0.053,1.441-0.09,2.17-0.09c0.74,0,1.471,0.039,2.199,0.093    c0.172,0.013,0.345,0.023,0.516,0.039c0.638,0.059,1.27,0.143,1.897,0.243c0.283,0.046,0.564,0.097,0.845,0.151    c0.402,0.076,0.801,0.166,1.198,0.26c0.522,0.124,1.039,0.261,1.549,0.413c0.212,0.063,0.424,0.129,0.635,0.197    c0.717,0.232,1.422,0.491,2.113,0.776c0.102,0.042,0.205,0.082,0.306,0.125c1.212,0.517,2.38,1.117,3.5,1.789    c0.248,0.149,0.492,0.305,0.736,0.462c0.452,0.29,0.895,0.591,1.329,0.905c0.303,0.22,0.603,0.446,0.899,0.679    c6.72,5.272,11.05,13.458,11.05,22.642C481.083,225.406,474.939,235.102,465.824,240.009z M476.815,172.457    c-0.217-0.126-0.444-0.233-0.662-0.356c-0.522-0.294-1.052-0.577-1.586-0.852c-0.273-0.14-0.544-0.285-0.82-0.42    c-1.781-0.875-3.624-1.639-5.518-2.295c-0.105-0.036-0.209-0.071-0.314-0.107c-0.948-0.321-1.908-0.618-2.881-0.881    c-0.004-0.001-0.008-0.002-0.013-0.004c-1.971-0.533-3.99-0.942-6.051-1.225c-0.188-0.026-0.377-0.048-0.565-0.072    c-0.796-0.1-1.597-0.18-2.404-0.24c-0.241-0.018-0.481-0.04-0.722-0.055c-0.984-0.059-1.973-0.099-2.971-0.099    c-0.988,0-1.967,0.039-2.941,0.097c-0.233,0.014-0.465,0.036-0.698,0.053c-0.799,0.059-1.593,0.137-2.381,0.235    c-0.185,0.023-0.369,0.045-0.554,0.071c-3.052,0.413-6.014,1.11-8.862,2.063c-0.081,0.027-0.161,0.054-0.241,0.082    c-0.902,0.307-1.794,0.637-2.672,0.995c-0.073,0.03-0.147,0.057-0.22,0.087c-0.916,0.379-1.82,0.78-2.708,1.212    c-0.193,0.094-0.381,0.198-0.573,0.294c-0.607,0.305-1.208,0.62-1.8,0.95c-0.173,0.096-0.353,0.179-0.525,0.277    c-9.196-7.825-14.872-19.585-15.479-32.55c-0.672-14.336,7.732-33.957,23.056-53.832c7.681-9.962,15.081-17.483,20.938-22.594    c-1.659,21.363,9.464,32.292,18.717,41.383c8.502,8.353,15.844,15.566,16.582,31.329    C492.622,150.413,486.927,163.855,476.815,172.457z" fill="#ffffff"/></g><path d="M437.02,74.981C388.667,26.629,324.38,0,256,0S123.333,26.629,74.98,74.981C26.629,123.333,0,187.62,0,256h30v138h30v63    c0,30.327,24.673,55,55,55c30.327,0,55-24.673,55-55V331c0-30.327-24.673-55-55-55c-30.327,0-55,24.673-55,55v-75h30    c0-91.533,74.467-166,166-166s166,74.467,166,166h30v75c0-30.327-24.673-55-55-55c-30.327,0-55,24.673-55,55v126    c0,30.327,24.673,55,55,55c30.327,0,55-24.673,55-55v-63h30V256h30C512,187.62,485.371,123.333,437.02,74.981z M90,331    c0-13.785,11.215-25,25-25c13.785,0,25,11.215,25,25v126c0,13.785-11.215,25-25,25c-13.785,0-25-11.215-25-25V331z M422,457    c0,13.785-11.215,25-25,25c-13.785,0-25-11.215-25-25V331c0-13.785,11.215-25,25-25c13.785,0,25,11.215,25,25V457z M449.706,226    C435.224,132.115,353.876,60,256,60S76.776,132.115,62.294,226H31.995C46.715,115.514,141.553,30,256,30    s209.285,85.514,224.005,196H449.706z" transform="matrix(0.1171875 0 0 0.1171875 235 21)" id="L1_2" fill="#ffffff"/><g transform="matrix(0.1171877309679985 0 0 0.1171877309679985 99 232)" id="L1_3"><path d="M422.846,132.411H89.154c-6.085,0-11.019,4.933-11.019,11.019v166.424c0,6.086,4.934,11.019,11.019,11.019    s11.019-4.933,11.019-11.019V154.448h311.654v155.405h0c0,6.086,4.934,11.019,11.019,11.019s11.019-4.933,11.019-11.019V143.429    C433.864,137.344,428.93,132.411,422.846,132.411z" fill="#ffffff"/><path d="M502.083,349.202h-20.295V117.797c0-18.366-14.942-33.308-33.308-33.308H63.52c-18.367,0-33.308,14.942-33.308,33.308    v231.405H9.917c-5.477,0-9.917,4.439-9.917,9.917v19.468c0,26.977,21.947,48.924,48.924,48.924h414.151    c26.977,0,48.924-21.947,48.924-48.924v-19.468C512,353.641,507.561,349.202,502.083,349.202z M52.249,117.797    c0-6.214,5.057-11.271,11.271-11.271h384.958c6.216,0,11.271,5.056,11.271,11.271v231.405H310.549    c-0.703-0.023-1.428,0.037-2.148,0.176c-4.668,0.898-8.041,4.984-8.041,9.737c0,8.371-6.81,15.18-15.179,15.18h-58.361    c-8.371,0-15.179-6.81-15.179-15.18c0-5.553-4.601-10.034-10.147-9.915H52.249V117.797z M492.166,378.587L492.166,378.587    c0,16.041-13.051,29.09-29.09,29.09H48.924c-16.04,0-29.09-13.049-29.09-29.09v-9.551h173.403    c4.287,14.491,17.72,25.094,33.582,25.094h58.361c15.862,0,29.295-10.604,33.583-25.094h173.404V378.587z" fill="#ffffff"/><path d="M272.331,196.459c-4.304-4.303-11.279-4.303-15.584,0l-69.297,69.3c-4.303,4.303-4.303,11.28,0,15.583    c2.152,2.152,4.972,3.227,7.791,3.227c2.82,0,5.639-1.077,7.791-3.227l69.299-69.299    C276.634,207.74,276.634,200.763,272.331,196.459z" fill="#ffffff"/><path d="M313.405,236.619c-4.304-4.303-11.279-4.303-15.583,0l-27.606,27.606c-4.303,4.303-4.303,11.28,0,15.584    c2.152,2.152,4.972,3.227,7.791,3.227c2.821,0,5.639-1.075,7.791-3.227l27.606-27.606    C317.708,247.9,317.708,240.923,313.405,236.619z" fill="#ffffff"/></g><g transform="matrix(0.125 0 0 0.125 -9.99999908447262 95)" id="L1_4"><path d="M391.999,104c-0.034-10.717-7.183-20.107-17.504-22.992l-11.704-46.832C360.118,23.492,350.517,15.998,339.503,16     H199.999V8c0-4.418-3.582-8-8-8h-32c-4.418,0-8,3.582-8,8v8h-11.504c-11.014-0.002-20.615,7.492-23.288,18.176l-11.704,46.832     c-12.695,3.508-20.142,16.644-16.634,29.339c2.142,7.752,8.048,13.902,15.706,16.357l5.968,65.6     c-1.685,0.261-3.24,1.061-4.432,2.28c-1.513,1.647-2.267,3.852-2.08,6.08l16,192c0.345,4.145,3.809,7.334,7.968,7.336h1.408     l5.272,58.208c1.143,12.37,11.537,21.824,23.96,21.792h162.72c12.452,0.051,22.875-9.43,24-21.832L350.591,400h1.408     c4.171,0.014,7.654-3.179,8-7.336l16-192c0.187-2.228-0.567-4.433-2.08-6.08c-1.192-1.219-2.747-2.019-4.432-2.28l5.968-65.6     C385.296,123.506,391.97,114.348,391.999,104z M132.727,38.064c0.889-3.566,4.093-6.067,7.768-6.064h199.008     c3.675-0.003,6.879,2.498,7.768,6.064L357.759,80h-235.52L132.727,38.064z M329.399,456.672c-0.379,4.139-3.843,7.312-8,7.328     h-162.76c-4.143-0.006-7.605-3.156-8-7.28l-5.16-56.72h189.04L329.399,456.672z M344.639,384h-209.28l-14.664-176h238.608     L344.639,384z M120.799,128h238.48l-5.824,64H126.583L120.799,128z M367.999,112h-256c-4.418,0-8-3.582-8-8s3.582-8,8-8h256     c4.418,0,8,3.582,8,8S372.417,112,367.999,112z" fill="#ffffff"/><path d="M239.999,344c26.51,0,48-21.49,48-48c0-26.51-21.49-48-48-48c-26.51,0-48,21.49-48,48     C192.025,322.499,213.5,343.974,239.999,344z M239.999,264c17.673,0,32,14.327,32,32c0,17.673-14.327,32-32,32     c-17.673,0-32-14.327-32-32C207.999,278.327,222.326,264,239.999,264z" fill="#ffffff"/></g><g transform="matrix(0.1171875 0 0 0.1171875 -12.99999834060668 265)" id="L1_5"><path d="M401.699,265.632c-12.326-16.187-24.798-24.666-31.245-28.326c-1.385-25.896-5.647-51.532-12.736-76.506    c-1.164-4.099-5.486-6.431-9.559-5.177c-3.951,1.217-6.197,5.364-5.068,9.342c8.404,29.604,12.66,60.179,12.66,90.997v122.483    H156.25V255.962c0-45.761,9.206-90.261,27.363-132.266c2.563-5.93,5.305-11.752,8.183-17.487h128.366    c3.455,6.852,6.687,13.812,9.66,20.873c1.606,3.814,5.944,5.663,9.795,4.149c3.967-1.56,5.892-6.081,4.241-10.012    c-18.81-44.813-47.271-85.878-82.648-119.153c-2.929-2.755-7.493-2.754-10.419,0c-34.854,32.782-62.153,71.675-81.137,115.595    c-16.508,38.191-25.932,78.357-28.111,119.646c-6.448,3.662-18.918,12.141-31.24,28.324    c-28.222,37.065-34.139,85.962-34.136,120.445c0,4.189,3.415,7.575,7.604,7.575h64.876h214.708h64.875    c4.197,0,7.604-3.437,7.604-7.634C435.829,323.565,417.269,286.081,401.699,265.632z M255.998,18.151    c21.861,21.495,40.76,46.156,55.996,72.85H199.927C215.12,64.266,233.874,39.866,255.998,18.151z M141.043,255.961v122.483H91.475    c0.833-31.065,7.113-71.721,30.279-102.741c6.885-9.218,13.813-15.592,19.289-19.792    C141.043,255.928,141.043,255.945,141.043,255.961z M370.959,378.444v-0.001V255.962c0-0.016,0-0.032,0-0.048    c5.477,4.198,12.403,10.571,19.288,19.79c23.167,31.02,29.446,71.676,30.279,102.741H370.959z" fill="#ffffff"/><path d="M256.001,163.171c-37.411-0.001-67.847,30.435-67.847,67.846s30.436,67.846,67.847,67.846    c37.409,0,67.846-30.436,67.846-67.846C323.847,193.607,293.411,163.171,256.001,163.171z M256.001,283.654    c-29.025,0-52.639-23.614-52.639-52.638s23.614-52.638,52.639-52.638s52.638,23.613,52.638,52.638    S285.026,283.654,256.001,283.654z" fill="#ffffff"/><path d="M256.001,188.887c-23.231,0-42.13,18.899-42.13,42.13s18.899,42.13,42.13,42.13s42.13-18.899,42.13-42.13    S279.232,188.887,256.001,188.887z M256,257.939c-14.845,0-26.922-12.077-26.922-26.922c0-14.845,12.077-26.922,26.922-26.922    c14.845,0,26.922,12.077,26.922,26.922C282.922,245.862,270.845,257.939,256,257.939z" fill="#ffffff"/><path d="M256.001,410.887c-4.2,0-7.604,3.405-7.604,7.604v85.905c0,4.199,3.404,7.604,7.604,7.604s7.604-3.405,7.604-7.604    v-85.906C263.605,414.292,260.201,410.887,256.001,410.887z" fill="#ffffff"/><path d="M203.197,472.323c-4.2,0-7.604,3.405-7.604,7.604v24.47c0,4.199,3.404,7.604,7.604,7.604s7.604-3.405,7.604-7.604v-24.47    C210.801,475.727,207.398,472.323,203.197,472.323z" fill="#ffffff"/><path d="M203.197,410.887c-4.2,0-7.604,3.405-7.604,7.604v31.018c0,4.199,3.404,7.604,7.604,7.604s7.604-3.405,7.604-7.604    v-31.018C210.801,414.292,207.398,410.887,203.197,410.887z" fill="#ffffff"/><path d="M308.804,410.887c-4.2,0-7.604,3.405-7.604,7.604v85.905c0,4.199,3.404,7.604,7.604,7.604s7.604-3.405,7.604-7.604    v-85.906C316.408,414.292,313.004,410.887,308.804,410.887z" fill="#ffffff"/></g></defs><g fi:class="KUsePattern"><pattern id="pattern_L1_0" width="350" height="350" patternUnits="userSpaceOnUse"><use xlink:href="#L1_0" x="-350" y="-350"/><use xlink:href="#L1_0" x="0" y="-350"/><use xlink:href="#L1_0" x="350" y="-350"/><use xlink:href="#L1_0" x="-350" y="0"/><use xlink:href="#L1_0" x="0" y="0"/><use xlink:href="#L1_0" x="350" y="0"/><use xlink:href="#L1_0" x="-350" y="350"/><use xlink:href="#L1_0" x="0" y="350"/><use xlink:href="#L1_0" x="350" y="350"/></pattern><rect x="0" y="0" width="100%" height="100%" fill="url(#pattern_L1_0)"/></g><g fi:class="KUsePattern"><pattern id="pattern_L1_1" width="350" height="350" patternUnits="userSpaceOnUse"><use xlink:href="#L1_1" x="-350" y="-350"/><use xlink:href="#L1_1" x="0" y="-350"/><use xlink:href="#L1_1" x="350" y="-350"/><use xlink:href="#L1_1" x="-350" y="0"/><use xlink:href="#L1_1" x="0" y="0"/><use xlink:href="#L1_1" x="350" y="0"/><use xlink:href="#L1_1" x="-350" y="350"/><use xlink:href="#L1_1" x="0" y="350"/><use xlink:href="#L1_1" x="350" y="350"/></pattern><rect x="0" y="0" width="100%" height="100%" fill="url(#pattern_L1_1)"/></g><g fi:class="KUsePattern"><pattern id="pattern_L1_2" width="350" height="350" patternUnits="userSpaceOnUse"><use xlink:href="#L1_2" x="-350" y="-350"/><use xlink:href="#L1_2" x="0" y="-350"/><use xlink:href="#L1_2" x="350" y="-350"/><use xlink:href="#L1_2" x="-350" y="0"/><use xlink:href="#L1_2" x="0" y="0"/><use xlink:href="#L1_2" x="350" y="0"/><use xlink:href="#L1_2" x="-350" y="350"/><use xlink:href="#L1_2" x="0" y="350"/><use xlink:href="#L1_2" x="350" y="350"/></pattern><rect x="0" y="0" width="100%" height="100%" fill="url(#pattern_L1_2)"/></g><g fi:class="KUsePattern"><pattern id="pattern_L1_3" width="350" height="350" patternUnits="userSpaceOnUse"><use xlink:href="#L1_3" x="-350" y="-350"/><use xlink:href="#L1_3" x="0" y="-350"/><use xlink:href="#L1_3" x="350" y="-350"/><use xlink:href="#L1_3" x="-350" y="0"/><use xlink:href="#L1_3" x="0" y="0"/><use xlink:href="#L1_3" x="350" y="0"/><use xlink:href="#L1_3" x="-350" y="350"/><use xlink:href="#L1_3" x="0" y="350"/><use xlink:href="#L1_3" x="350" y="350"/></pattern><rect x="0" y="0" width="100%" height="100%" fill="url(#pattern_L1_3)"/></g><g fi:class="KUsePattern"><pattern id="pattern_L1_4" width="350" height="350" patternUnits="userSpaceOnUse"><use xlink:href="#L1_4" x="-350" y="-350"/><use xlink:href="#L1_4" x="0" y="-350"/><use xlink:href="#L1_4" x="350" y="-350"/><use xlink:href="#L1_4" x="-350" y="0"/><use xlink:href="#L1_4" x="0" y="0"/><use xlink:href="#L1_4" x="350" y="0"/><use xlink:href="#L1_4" x="-350" y="350"/><use xlink:href="#L1_4" x="0" y="350"/><use xlink:href="#L1_4" x="350" y="350"/></pattern><rect x="0" y="0" width="100%" height="100%" fill="url(#pattern_L1_4)"/></g><g fi:class="KUsePattern"><pattern id="pattern_L1_5" width="350" height="350" patternUnits="userSpaceOnUse"><use xlink:href="#L1_5" x="-350" y="-350"/><use xlink:href="#L1_5" x="0" y="-350"/><use xlink:href="#L1_5" x="350" y="-350"/><use xlink:href="#L1_5" x="-350" y="0"/><use xlink:href="#L1_5" x="0" y="0"/><use xlink:href="#L1_5" x="350" y="0"/><use xlink:href="#L1_5" x="-350" y="350"/><use xlink:href="#L1_5" x="0" y="350"/><use xlink:href="#L1_5" x="350" y="350"/></pattern><rect x="0" y="0" width="100%" height="100%" fill="url(#pattern_L1_5)"/></g></svg>