<svg xmlns="http://www.w3.org/2000/svg" xmlns:xlink="http://www.w3.org/1999/xlink" xmlns:fi="http://pattern.flaticon.com/" x="0" y="0" width="1200" height="600" viewBox="0 0 2100 1050"><rect x="0px" y="0px" width="100%" height="100%" opacity="1" fill="#ffca38"/><defs><g transform="matrix(0.15120168030261993 0 0 0.15120168030261993 55 132)" id="L1_2"><path d="M394.583,8.054c-0.422-3.413-3.11-6.101-6.522-6.523c-30.748-3.803-62.477-0.488-91.767,9.583     c-29.293,10.072-56.355,26.973-78.258,48.876l-49.983,49.983l-72.149,9.305c-1.645,0.212-3.172,0.963-4.345,2.135l-69.563,69.563     c-1.969,1.969-2.685,4.868-1.858,7.528c0.825,2.66,3.058,4.643,5.796,5.15l52.597,9.742l10.335,10.335l-22.003,11.915     c-2.082,1.127-3.51,3.172-3.851,5.515s0.444,4.709,2.118,6.383l83.438,83.438c1.417,1.417,3.329,2.197,5.304,2.197     c0.358,0,0.72-0.026,1.08-0.078c2.343-0.341,4.388-1.769,5.515-3.851l11.916-22.003l10.335,10.335l9.742,52.597     c0.508,2.739,2.49,4.971,5.15,5.797c0.731,0.227,1.48,0.337,2.224,0.337c1.96,0,3.876-0.769,5.305-2.197l69.563-69.563     c1.172-1.172,1.923-2.7,2.135-4.344l9.306-72.15l49.983-49.984c21.903-21.903,38.804-48.964,48.876-78.257     C395.072,70.528,398.385,38.795,394.583,8.054z M79.674,198.355l-36.989-6.851l57.673-57.675l50.332-6.491L79.674,198.355z      M152.065,313.268L82.846,244.05l17.085-9.252l61.385,61.386L152.065,313.268z M262.285,295.756l-57.674,57.674l-6.852-36.988     l71.017-71.017L262.285,295.756z M325.517,167.471l-135.85,135.85l-96.874-96.874l135.85-135.851     c19.738-19.739,44.002-35.076,70.287-44.49c3.395,17.492,11.948,33.719,24.654,46.424c12.705,12.706,28.931,21.259,46.424,24.655     C360.593,123.468,345.255,147.732,325.517,167.471z M374.523,82.774c-15.203-2.593-29.345-9.863-40.333-20.85     c-10.988-10.987-18.257-25.13-20.85-40.333c21.741-5.859,44.579-7.857,66.99-5.807C382.381,38.195,380.382,61.033,374.523,82.774     z" fill="#ffffff"/><path d="M221.325,110.443c-17.74,17.741-17.74,46.606,0,64.347c8.871,8.871,20.521,13.305,32.174,13.305     c11.649,0,23.304-4.436,32.173-13.305h0.001c17.74-17.74,17.74-46.606-0.001-64.347     C267.931,92.703,239.065,92.704,221.325,110.443z M275.066,164.183c-11.894,11.893-31.244,11.891-43.134,0     c-11.893-11.892-11.893-31.242,0-43.134c5.945-5.946,13.756-8.918,21.566-8.918c7.811,0,15.621,2.973,21.566,8.918     C286.957,132.941,286.957,152.291,275.066,164.183z" fill="#ffffff"/><path d="M98.365,299.165c-2.93-2.929-7.678-2.929-10.607,0L23.41,363.512c-2.929,2.929-2.929,7.678,0,10.606     c1.465,1.464,3.385,2.197,5.304,2.197s3.839-0.732,5.304-2.197l64.347-64.347C101.293,306.843,101.293,302.094,98.365,299.165z" fill="#ffffff"/><path d="M108.263,319.671l-28.991,28.991c-2.929,2.929-2.929,7.678,0,10.606c1.465,1.464,3.385,2.197,5.304,2.197     s3.839-0.732,5.304-2.197l28.991-28.991c2.929-2.929,2.929-7.678,0-10.606C115.941,316.742,111.193,316.742,108.263,319.671z" fill="#ffffff"/><path d="M69.123,361.919c-3.138,0-6.002,2.024-7.062,4.973c-1.078,2.998-0.075,6.441,2.416,8.416     c2.547,2.02,6.266,2.13,8.928,0.265c2.84-1.99,3.992-5.81,2.639-9.024C74.931,363.774,72.099,361.919,69.123,361.919z" fill="#ffffff"/><path d="M47.91,380.025l-3.992,3.992c-2.93,2.929-2.93,7.678-0.001,10.607c1.465,1.464,3.384,2.197,5.304,2.197     c1.919,0,3.839-0.732,5.303-2.196l3.992-3.992c2.93-2.929,2.93-7.678,0.001-10.606C55.588,377.099,50.838,377.096,47.91,380.025z     " fill="#ffffff"/><path d="M42.502,314.014c-2.93-2.929-7.678-2.929-10.607,0L2.904,343.005c-2.929,2.929-2.929,7.678,0,10.606     c1.465,1.464,3.385,2.197,5.304,2.197s3.839-0.732,5.304-2.197l28.991-28.991C45.431,321.692,45.431,316.943,42.502,314.014z" fill="#ffffff"/><path d="M54.472,311.136c3.043-0.765,5.327-3.417,5.644-6.537c0.311-3.055-1.369-6.049-4.096-7.427     c-2.895-1.464-6.523-0.853-8.769,1.494c-2.405,2.513-2.752,6.426-0.852,9.335c-0.06-0.09-0.106-0.156,0.015,0.029     c0.126,0.185,0.083,0.118,0.023,0.029C48.204,310.626,51.429,311.901,54.472,311.136z" fill="#ffffff"/><path d="M73.867,293.257l3.991-3.992c2.929-2.929,2.929-7.678-0.001-10.606c-2.932-2.93-7.681-2.929-10.606,0.001l-3.991,3.992     c-2.929,2.929-2.929,7.678,0.001,10.606c1.465,1.464,3.384,2.196,5.303,2.196C70.483,295.454,72.403,294.722,73.867,293.257z" fill="#ffffff"/></g><g transform="matrix(0.1220703125 0 0 0.1220703125 187 61.00000335276127)" id="L1_3"><rect x="71px" y="102px" width="92px" height="20px" fill="#ffffff"/><rect x="184px" y="102px" width="51px" height="20px" fill="#ffffff"/><rect x="71px" y="256px" width="92px" height="20px" fill="#ffffff"/><rect x="184px" y="256px" width="51px" height="20px" fill="#ffffff"/><rect x="71px" y="204px" width="61px" height="20px" fill="#ffffff"/><rect x="296px" y="204px" width="30px" height="20px" fill="#ffffff"/><rect x="153px" y="204px" width="122px" height="20px" fill="#ffffff"/><rect x="204px" y="153px" width="40px" height="20px" fill="#ffffff"/><rect x="71px" y="153px" width="112px" height="20px" fill="#ffffff"/><rect x="266px" y="153px" width="153px" height="20px" fill="#ffffff"/><rect x="71px" y="307px" width="153px" height="20px" fill="#ffffff"/><path d="M391.24,243.64 376.76,258.12 405.36,286.72 376.76,315.32 391.24,329.8 434.32,286.72z" fill="#ffffff"/><path d="M309.32,258.12 294.84,243.64 251.76,286.72 294.84,329.8 309.32,315.32 280.72,286.72z" fill="#ffffff"/><rect x="287px" y="276px" width="110px" height="20px" transform="matrix(0.3711 -0.9286 0.9286 0.3711 -50.5861 498.917)" fill="#ffffff"/><path d="M471.04,358.4V51.2H20.48v307.2H0v44.06l25.24,37.86h441.04l25.24-37.86V358.4H471.04z M40.96,71.68h409.6V358.4H40.96    V71.68z M471.04,396.26l-15.72,23.58H36.2l-15.72-23.58v-17.38h450.56V396.26z" fill="#ffffff"/><rect x="276px" y="389px" width="20px" height="20px" fill="#ffffff"/><rect x="235px" y="389px" width="20px" height="20px" fill="#ffffff"/><rect x="194px" y="389px" width="20px" height="20px" fill="#ffffff"/></g><g transform="matrix(0.1171875 0 0 0.1171875 305 24)" id="L1_4"><path d="M196,60.01c-5.53,0-9.99,4.452-9.99,9.99c0,5.535,4.454,9.988,9.99,9.988c5.535,0,9.99-4.452,9.99-9.988    C205.99,64.47,201.538,60.01,196,60.01z" fill="#ffffff"/><path d="M403.527,60.957l-13.479-40.435C385.962,8.247,374.521,0,361.58,0H150.42c-12.941,0-24.382,8.247-28.466,20.518    l-13.481,40.439C95.562,64.305,86,76.057,86,90v40c0,5.523,4.478,10,10,10h11.016c1.635,15.232,35.43,330.09,37.065,345.319    C145.779,500.53,158.599,512,173.9,512h164.2c15.302,0,28.121-11.47,29.824-26.723c1.631-15.192,35.422-330.018,37.06-345.277H416    c5.522,0,10-4.477,10-10V90C426,76.057,416.438,64.305,403.527,60.957z M348.041,483.101c-0.565,5.073-4.84,8.899-9.941,8.899    H173.9c-5.102,0-9.376-3.826-9.938-8.857L155.682,406h200.635L348.041,483.101z M358.465,386H153.536l-15.027-140h234.984    L358.465,386z M375.639,226H136.361l-9.231-86h257.74L375.639,226z M406,120c-53.392,0-246.239,0-300,0V90c0-5.514,4.486-10,10-10    h40.02c5.522,0,10-4.477,10-10s-4.478-10-10-10h-26.146l11.055-33.162c1.361-4.09,5.176-6.838,9.491-6.838h211.16    c4.315,0,8.13,2.748,9.493,6.843L382.126,60H236.01c-5.522,0-10,4.477-10,10s4.478,10,10,10H396c5.514,0,10,4.486,10,10V120z" fill="#ffffff"/><path d="M256,266c-39.252,0-70,21.962-70,50c0,28.038,30.748,50,70,50s70-21.962,70-50C326,287.962,295.252,266,256,266z M256,346    c-21.291,0-39.981-8.58-47.02-20.1h94.039C295.981,337.42,277.291,346,256,346z M208.98,306c7.039-11.52,25.729-20,47.02-20    s39.981,8.48,47.02,20H208.98z" fill="#ffffff"/></g><g transform="matrix(0.1171875 0 0 0.1171875 232 231)" id="L1_5"><path d="m256,92.3c-74.2,0-127.8,55.3-136.3,114.7-5.3,39.6 7.5,78.2 34.1,107.4 23.4,25 36.2,58.4 36.2,92.8l-.1,54.2c0,21.9 18.1,39.6 40.5,39.6h52.2c22.4,0 40.5-17.7 40.5-39.6l.1-54.2c0-35.4 11.7-67.8 34.1-90.7 24.5-25 37.3-57.3 37.3-90.7-0.1-74.1-63-133.5-138.6-133.5zm46.8,369.1c0,10.4-8.5,18.8-19.2,18.8h-52.2c-10.7,0-19.2-8.3-19.2-18.8v-24h90.5v24zm39.6-159.5c-26.6,27.1-40.5,64.6-40.5,105.3v9.4h-90.5v-9.4c0-38.6-16-77.1-42.6-106.3-23.4-25-33-57.3-28.8-90.7 7.5-50 54-97 116.1-97 65,0 117.2,51.1 117.2,112.6 0,28.1-10.7,55.2-30.9,76.1z" fill="#ffffff"/><rect x="245px" y="11px" width="21px" height="50px" fill="#ffffff"/><path d="M385.1,107.4 400,122.3 436.5,87.2 421.5,72.3z" fill="#ffffff"/><rect x="448px" y="236px" width="52px" height="20px" fill="#ffffff"/><rect x="11px" y="236px" width="52px" height="20px" fill="#ffffff"/><path d="M90.1,72.2 75.1,87.1 111.6,122.2 126.5,107.3z" fill="#ffffff"/></g><g transform="matrix(0.12533867359161377 0 0 0.12533867359161377 77 277.9999991125924)" id="L1_6"><path d="M454.2,189.101l-33.6-5.7c-3.5-11.3-8-22.2-13.5-32.6l19.8-27.7c8.4-11.8,7.1-27.9-3.2-38.1l-29.8-29.8    c-5.6-5.6-13-8.7-20.9-8.7c-6.2,0-12.1,1.9-17.1,5.5l-27.8,19.8c-10.8-5.7-22.1-10.4-33.8-13.9l-5.6-33.2    c-2.4-14.3-14.7-24.7-29.2-24.7h-42.1c-14.5,0-26.8,10.4-29.2,24.7l-5.8,34c-11.2,3.5-22.1,8.1-32.5,13.7l-27.5-19.8    c-5-3.6-11-5.5-17.2-5.5c-7.9,0-15.4,3.1-20.9,8.7l-29.9,29.8c-10.2,10.2-11.6,26.3-3.2,38.1l20,28.1    c-5.5,10.5-9.9,21.4-13.3,32.7l-33.2,5.6c-14.3,2.4-24.7,14.7-24.7,29.2v42.1c0,14.5,10.4,26.8,24.7,29.2l34,5.8    c3.5,11.2,8.1,22.1,13.7,32.5l-19.7,27.4c-8.4,11.8-7.1,27.9,3.2,38.1l29.8,29.8c5.6,5.6,13,8.7,20.9,8.7c6.2,0,12.1-1.9,17.1-5.5    l28.1-20c10.1,5.3,20.7,9.6,31.6,13l5.6,33.6c2.4,14.3,14.7,24.7,29.2,24.7h42.2c14.5,0,26.8-10.4,29.2-24.7l5.7-33.6    c11.3-3.5,22.2-8,32.6-13.5l27.7,19.8c5,3.6,11,5.5,17.2,5.5l0,0c7.9,0,15.3-3.1,20.9-8.7l29.8-29.8c10.2-10.2,11.6-26.3,3.2-38.1    l-19.8-27.8c5.5-10.5,10.1-21.4,13.5-32.6l33.6-5.6c14.3-2.4,24.7-14.7,24.7-29.2v-42.1    C478.9,203.801,468.5,191.501,454.2,189.101z M451.9,260.401c0,1.3-0.9,2.4-2.2,2.6l-42,7c-5.3,0.9-9.5,4.8-10.8,9.9    c-3.8,14.7-9.6,28.8-17.4,41.9c-2.7,4.6-2.5,10.3,0.6,14.7l24.7,34.8c0.7,1,0.6,2.5-0.3,3.4l-29.8,29.8c-0.7,0.7-1.4,0.8-1.9,0.8    c-0.6,0-1.1-0.2-1.5-0.5l-34.7-24.7c-4.3-3.1-10.1-3.3-14.7-0.6c-13.1,7.8-27.2,13.6-41.9,17.4c-5.2,1.3-9.1,5.6-9.9,10.8l-7.1,42    c-0.2,1.3-1.3,2.2-2.6,2.2h-42.1c-1.3,0-2.4-0.9-2.6-2.2l-7-42c-0.9-5.3-4.8-9.5-9.9-10.8c-14.3-3.7-28.1-9.4-41-16.8    c-2.1-1.2-4.5-1.8-6.8-1.8c-2.7,0-5.5,0.8-7.8,2.5l-35,24.9c-0.5,0.3-1,0.5-1.5,0.5c-0.4,0-1.2-0.1-1.9-0.8l-29.8-29.8    c-0.9-0.9-1-2.3-0.3-3.4l24.6-34.5c3.1-4.4,3.3-10.2,0.6-14.8c-7.8-13-13.8-27.1-17.6-41.8c-1.4-5.1-5.6-9-10.8-9.9l-42.3-7.2    c-1.3-0.2-2.2-1.3-2.2-2.6v-42.1c0-1.3,0.9-2.4,2.2-2.6l41.7-7c5.3-0.9,9.6-4.8,10.9-10c3.7-14.7,9.4-28.9,17.1-42    c2.7-4.6,2.4-10.3-0.7-14.6l-24.9-35c-0.7-1-0.6-2.5,0.3-3.4l29.8-29.8c0.7-0.7,1.4-0.8,1.9-0.8c0.6,0,1.1,0.2,1.5,0.5l34.5,24.6    c4.4,3.1,10.2,3.3,14.8,0.6c13-7.8,27.1-13.8,41.8-17.6c5.1-1.4,9-5.6,9.9-10.8l7.2-42.3c0.2-1.3,1.3-2.2,2.6-2.2h42.1    c1.3,0,2.4,0.9,2.6,2.2l7,41.7c0.9,5.3,4.8,9.6,10,10.9c15.1,3.8,29.5,9.7,42.9,17.6c4.6,2.7,10.3,2.5,14.7-0.6l34.5-24.8    c0.5-0.3,1-0.5,1.5-0.5c0.4,0,1.2,0.1,1.9,0.8l29.8,29.8c0.9,0.9,1,2.3,0.3,3.4l-24.7,34.7c-3.1,4.3-3.3,10.1-0.6,14.7    c7.8,13.1,13.6,27.2,17.4,41.9c1.3,5.2,5.6,9.1,10.8,9.9l42,7.1c1.3,0.2,2.2,1.3,2.2,2.6v42.1H451.9z" fill="#ffffff"/><path d="M239.4,136.001c-57,0-103.3,46.3-103.3,103.3s46.3,103.3,103.3,103.3s103.3-46.3,103.3-103.3S296.4,136.001,239.4,136.001    z M239.4,315.601c-42.1,0-76.3-34.2-76.3-76.3s34.2-76.3,76.3-76.3s76.3,34.2,76.3,76.3S281.5,315.601,239.4,315.601z" fill="#ffffff"/></g></defs><g fi:class="KUsePattern"><pattern id="pattern_L1_2" width="350" height="350" patternUnits="userSpaceOnUse"><use xlink:href="#L1_2" x="-350" y="-350"/><use xlink:href="#L1_2" x="0" y="-350"/><use xlink:href="#L1_2" x="350" y="-350"/><use xlink:href="#L1_2" x="-350" y="0"/><use xlink:href="#L1_2" x="0" y="0"/><use xlink:href="#L1_2" x="350" y="0"/><use xlink:href="#L1_2" x="-350" y="350"/><use xlink:href="#L1_2" x="0" y="350"/><use xlink:href="#L1_2" x="350" y="350"/></pattern><rect x="0" y="0" width="100%" height="100%" fill="url(#pattern_L1_2)"/></g><g fi:class="KUsePattern"><pattern id="pattern_L1_3" width="350" height="350" patternUnits="userSpaceOnUse"><use xlink:href="#L1_3" x="-350" y="-350"/><use xlink:href="#L1_3" x="0" y="-350"/><use xlink:href="#L1_3" x="350" y="-350"/><use xlink:href="#L1_3" x="-350" y="0"/><use xlink:href="#L1_3" x="0" y="0"/><use xlink:href="#L1_3" x="350" y="0"/><use xlink:href="#L1_3" x="-350" y="350"/><use xlink:href="#L1_3" x="0" y="350"/><use xlink:href="#L1_3" x="350" y="350"/></pattern><rect x="0" y="0" width="100%" height="100%" fill="url(#pattern_L1_3)"/></g><g fi:class="KUsePattern"><pattern id="pattern_L1_4" width="350" height="350" patternUnits="userSpaceOnUse"><use xlink:href="#L1_4" x="-350" y="-350"/><use xlink:href="#L1_4" x="0" y="-350"/><use xlink:href="#L1_4" x="350" y="-350"/><use xlink:href="#L1_4" x="-350" y="0"/><use xlink:href="#L1_4" x="0" y="0"/><use xlink:href="#L1_4" x="350" y="0"/><use xlink:href="#L1_4" x="-350" y="350"/><use xlink:href="#L1_4" x="0" y="350"/><use xlink:href="#L1_4" x="350" y="350"/></pattern><rect x="0" y="0" width="100%" height="100%" fill="url(#pattern_L1_4)"/></g><g fi:class="KUsePattern"><pattern id="pattern_L1_5" width="350" height="350" patternUnits="userSpaceOnUse"><use xlink:href="#L1_5" x="-350" y="-350"/><use xlink:href="#L1_5" x="0" y="-350"/><use xlink:href="#L1_5" x="350" y="-350"/><use xlink:href="#L1_5" x="-350" y="0"/><use xlink:href="#L1_5" x="0" y="0"/><use xlink:href="#L1_5" x="350" y="0"/><use xlink:href="#L1_5" x="-350" y="350"/><use xlink:href="#L1_5" x="0" y="350"/><use xlink:href="#L1_5" x="350" y="350"/></pattern><rect x="0" y="0" width="100%" height="100%" fill="url(#pattern_L1_5)"/></g><g fi:class="KUsePattern"><pattern id="pattern_L1_6" width="350" height="350" patternUnits="userSpaceOnUse"><use xlink:href="#L1_6" x="-350" y="-350"/><use xlink:href="#L1_6" x="0" y="-350"/><use xlink:href="#L1_6" x="350" y="-350"/><use xlink:href="#L1_6" x="-350" y="0"/><use xlink:href="#L1_6" x="0" y="0"/><use xlink:href="#L1_6" x="350" y="0"/><use xlink:href="#L1_6" x="-350" y="350"/><use xlink:href="#L1_6" x="0" y="350"/><use xlink:href="#L1_6" x="350" y="350"/></pattern><rect x="0" y="0" width="100%" height="100%" fill="url(#pattern_L1_6)"/></g></svg>