<svg xmlns="http://www.w3.org/2000/svg" width="2.13832in" height="2.13977in" viewBox="0 0 153.95875 154.0634">
  <title>maxpowerArtboard 4</title>
  <g id="34a76ae5-21ae-4317-9a7a-ab1b6f18b7d7" data-name="Layer 15">
    <g>
      <polygon points="36.774 99.903 37.441 59.901 118.774 61.901 116.608 100.653 36.774 99.903" style="fill: #d3d3d3"/>
      <path d="M124.441,60.23508,30.60734,58.57724c-.33453-.00591-.64029-.16011-.97409-.183-7.19222-.49252-14.52821-9.66484.80779-9.49252,22.25.25,9.58333.33333,17.83333.16667C56.61267,48.9,44.441,20.90175,58.441,20.90175s4.53036,27.5582,19.33333,26C90.441,45.56841,83.10769,23.22768,94.441,23.23508c8.52093.00557,3.36008,17.51,10.66666,25,2.17623,2.23086,16.78214,2.27924,19,2.33333,13.66667.33334,11.66667,10,0,9.66667Z" style="fill: #d3d3d3"/>
      <polygon points="22.154 100.063 22.174 100.463 22.104 100.463 22.154 100.063" style="fill: #d3d3d3"/>
      <polygon points="132.654 100.063 132.524 101.623 130.574 124.383 128.034 154.063 25.304 154.063 23.514 123.323 22.254 101.723 22.174 100.463 132.654 100.063" style="fill: #d3d3d3"/>
      <polygon points="26.064 102.183 23.514 123.323 19.804 154.063 10.424 154.063 16.824 101.063 22.254 101.723 26.064 102.183" style="fill: #d3d3d3"/>
      <circle cx="22.26149" cy="103.55053" r="8.34701" style="fill: #d3d3d3"/>
      <polygon points="143.534 154.063 134.154 154.063 130.574 124.383 127.894 102.183 132.524 101.623 137.134 101.063 143.534 154.063" style="fill: #d3d3d3"/>
      <circle cx="131.69821" cy="103.55053" r="8.34701" style="fill: #d3d3d3"/>
      <rect x="26.77436" y="99.90335" width="101.33333" height="11.99419" style="fill: #d3d3d3"/>
      <path d="M111.61,107.631a1.42476,1.42476,0,0,0-.4368-1.20383,1.9936,1.9936,0,0,0-1.23887-.52675,1.71784,1.71784,0,0,0-1.20709.55063,1.9727,1.9727,0,0,0-.52431,1.23643,1.75165,1.75165,0,0,0,.54819,1.2198,1.398,1.398,0,0,0,.50051.30318l-2.22394,4.04366-4.86724-.27931a1.39943,1.39943,0,0,0-.4368-1.20383,1.972,1.972,0,0,0-1.23089-.52675,1.73738,1.73738,0,0,0-1.215.55063,1.972,1.972,0,0,0-.52358,1.23643,1.751,1.751,0,0,0,.54745,1.2198,1.57461,1.57461,0,0,0,1.23887.41537,1.42574,1.42574,0,0,0,1.207-.43925l.05573-.04774,3.72378,3.33391-2.53266,5.29606a2.56544,2.56544,0,0,0-.52438-.0955,1.73608,1.73608,0,0,0-1.215.54982,2.00719,2.00719,0,0,0-.51559,1.23651,1.777,1.777,0,0,0,.53946,1.22062,1.62115,1.62115,0,0,0,1.24685.41448,1.38677,1.38677,0,0,0,1.19911-.43835,1.6438,1.6438,0,0,0,.42091-1.25239,1.51021,1.51021,0,0,0-.199-.91744l5.05024-2.75941,4.39133,3.653a2.10636,2.10636,0,0,0-.28566.94123,1.71757,1.71757,0,0,0,.54745,1.21182,1.56593,1.56593,0,0,0,1.23887.42254,1.3984,1.3984,0,0,0,1.19911-.43843,1.61261,1.61261,0,0,0,.42091-1.25239,1.42251,1.42251,0,0,0-.4368-1.20383,1.9936,1.9936,0,0,0-1.23887-.52675,1.54628,1.54628,0,0,0-.53946.1201l-1.89778-5.6469,4.502-2.58439a1.71593,1.71593,0,0,0,.24589.28721,1.58354,1.58354,0,0,0,1.23887.41456,1.40252,1.40252,0,0,0,1.20709-.43843,1.62078,1.62078,0,0,0,.41293-1.24441,1.4403,1.4403,0,0,0-.4368-1.21263,1.98585,1.98585,0,0,0-1.239-.518,1.71151,1.71151,0,0,0-1.207.54183,1.79551,1.79551,0,0,0-.4368.82195l-4.899-.4949-1.09571-4.40249a1.2553,1.2553,0,0,0,.50851-.335A1.64094,1.64094,0,0,0,111.61,107.631Z" style="fill: #f2f2f2"/>
      <circle cx="57.44103" cy="67.90095" r="5" style="fill: #f2f2f2"/>
      <circle cx="96.46186" cy="68.90175" r="5" style="fill: #f2f2f2"/>
      <rect x="45.77436" y="78.23588" width="60.66667" height="14.66667" transform="translate(2.26171 -1.95931) rotate(1.49718)" style="fill: #f2f2f2"/>
      <polyline points="100.642 87.167 87.659 86.509 85.097 88.461 83.782 85.848 79.158 90.238 78.327 87.124 75.327 90.118 71.889 80.344 65.423 88.895 64.659 81.482 61.364 85.977 59.395 82.595 56.724 84.807 51.365 84.836" style="fill: none;stroke: #d3d3d3;stroke-miterlimit: 10"/>
    </g>
  </g>
</svg>
